<?xml version="1.0" encoding="utf-8"?>
<!-- Generator: Adobe Illustrator 17.0.0, SVG Export Plug-In . SVG Version: 6.00 Build 0)  -->
<!DOCTYPE svg PUBLIC "-//W3C//DTD SVG 1.1//EN" "http://www.w3.org/Graphics/SVG/1.1/DTD/svg11.dtd">
<svg version="1.1" id="Layer_1" xmlns="http://www.w3.org/2000/svg" xmlns:xlink="http://www.w3.org/1999/xlink" x="0px" y="0px"
	 width="500px" height="500px" viewBox="0 0 500 500" enable-background="new 0 0 500 500" xml:space="preserve">
<g>
	<defs>
		<path id="SVGID_3_" d="M500,438.515C500,479.1,467.1,512,426.515,512H209.419c-40.584,0-73.485-32.9-73.485-73.485V20.106
			c0-40.584,32.9-73.485,73.485-73.485h217.097c40.584,0,73.485,32.9,73.485,73.485V438.515z"/>
	</defs>
	<clipPath id="SVGID_2_">
		<use xlink:href="#SVGID_3_"  overflow="visible"/>
	</clipPath>
	<g clip-path="url(#SVGID_2_)">
		<path fill="#E1E3ED" d="M494.613,6.483c3.571,1.426,7.439,2.376,10.655,4.375c7.587,4.715,11.448,11.852,11.801,20.817
			c0.049,1.258,0.007,2.519,0.007,4.342c3.516,0,6.63,0,9.742,0c11.352,0,22.704-0.015,34.056,0.005
			c11.274,0.02,18.54,5.27,21.544,15.516c2.969,10.125-0.908,20.856-9.45,26.512c-13.119,8.687-27.655,10.606-42.914,9.126
			c-4.129-0.401-8.242-0.959-12.952-1.515c0,1.792,0,3.318,0,4.843c0,16.812,0.017,33.625-0.006,50.437
			c-0.018,13.138-6.68,22.839-18.041,26.367c-11.218,3.484-21.982-0.673-29.595-11.162c-0.74-1.02-2.82-1.791-4.101-1.584
			c-17.677,2.854-32.624,11.5-46.245,22.612c-4.76,3.883-9.006,8.435-13.217,12.933c-1.826,1.95-3.296,4.396-4.37,6.861
			c-4.936,11.324-4.999,11.485-16.531,15.947c0,4.492,0,9.061,0,14.356c3.944,0,7.894-0.007,11.843,0.001
			c15.755,0.033,24.589,8.814,24.612,24.504c0.02,13.507,0.057,27.015-0.011,40.522c-0.07,13.943-8.845,23.098-22.772,23.212
			c-23.996,0.197-47.995,0.197-71.991,0c-13.935-0.114-22.702-9.269-22.764-23.216c-0.062-13.938-0.065-27.877,0.002-41.815
			c0.067-13.974,9.26-23.079,23.307-23.2c4.278-0.037,8.556-0.006,13.079-0.006c0-5.092,0-9.761,0-14.704
			c-8.917-1.593-14.124-7.06-16.489-15.607c-0.48-1.735-1.607-3.404-2.78-4.818c-16.003-19.28-35.857-32.364-60.593-37.647
			c-2.569-0.549-3.77,0.189-5.158,2.287c-6.532,9.872-18.006,13.935-28.999,10.523c-10.816-3.357-17.947-12.985-18.004-24.648
			c-0.084-17.243-0.025-34.487-0.028-51.73c0-1.561,0-3.121,0-5.212c-4.415,0.497-8.468,0.987-12.528,1.406
			c-15.57,1.608-30.383-0.361-43.689-9.345c-8.49-5.733-12.141-16.586-8.974-26.655c3.163-10.055,10.27-15.087,21.42-15.102
			c14.361-0.02,28.723-0.005,43.329-0.005c0.168-1.159,0.396-2.101,0.428-3.05c0.459-13.653,7.738-22.638,20.93-25.822
			c0.545-0.132,1.048-0.438,1.57-0.663c2.3,0,4.599,0,6.899,0c0.638,0.273,1.253,0.635,1.918,0.805
			c11.492,2.938,18.78,11.338,19.989,23.085c0.185,1.794,0.344,3.59,0.539,5.645c14.571,0,28.776-0.009,42.981,0.003
			c11.771,0.01,18.68,4.958,21.858,15.616c3.051,10.232-0.928,20.818-9.877,26.679c-13.176,8.629-27.74,10.337-42.976,8.803
			c-3.943-0.397-7.876-0.905-12.062-1.391c0,8.084,0,15.761,0,23.584c1.074,0.141,1.906,0.344,2.738,0.345
			c13.505,0.019,27.046,0.591,40.502-0.224c7.126-0.432,14.624-2.189,21.058-5.24c25.746-12.206,51.068-12.317,76.742,0.034
			c5.319,2.559,11.376,4.523,17.209,4.883c13.169,0.813,26.411,0.454,39.624,0.565c2.406,0.02,4.812,0.003,7.332,0.003
			c0-8.289,0-16.053,0-23.972c-4.399,0.525-8.376,1.067-12.368,1.463c-15.416,1.53-30.089-0.449-43.269-9.327
			c-8.377-5.642-12.121-16.353-9.156-26.209c3.162-10.513,10.104-15.586,21.441-15.609c11.207-0.023,22.413-0.005,33.62-0.005
			c3.264,0,6.528,0,9.899,0c0.151-2.095,0.256-3.657,0.377-5.218c0.693-8.944,4.845-15.874,12.522-20.431
			c2.895-1.718,6.277-2.615,9.437-3.886C490.014,6.483,492.314,6.483,494.613,6.483z M465.611,124.407c-2.077,0-3.619,0-5.161,0
			c-11.919,0-23.839-0.027-35.758,0.008c-10.655,0.031-20.8-2.123-30.348-6.906c-21.252-10.647-42.325-10.174-63.754-0.026
			c-6.861,3.249-14.629,5.652-22.149,6.214c-14.428,1.079-28.974,0.565-43.472,0.708c-1.654,0.016-3.308,0.002-5.223,0.002
			c0,4.571-0.223,8.457,0.133,12.289c0.11,1.179,1.655,2.977,2.794,3.198c22.695,4.397,41.707,15.766,58.61,30.98
			c7.488,6.74,14.202,14.182,17.603,24.076c0.465,1.354,2.992,2.808,4.59,2.837c12.777,0.231,25.563,0.265,38.337-0.034
			c1.701-0.04,3.838-1.961,4.927-3.581c2.857-4.25,4.638-9.336,7.923-13.167c17.994-20.989,40.305-35.105,67.556-40.875
			c2.333-0.494,3.579-1.141,3.44-3.79C465.466,132.624,465.611,128.889,465.611,124.407z M362.69,300.824
			c11.629,0,23.259,0.037,34.888-0.014c6.718-0.029,9.146-2.438,9.164-9.033c0.035-13.496,0.031-26.991,0.002-40.487
			c-0.015-6.791-2.546-9.306-9.413-9.313c-23.115-0.025-46.23-0.025-69.345,0.001c-6.845,0.008-9.361,2.535-9.375,9.346
			c-0.026,13.352-0.024,26.704-0.002,40.056c0.012,7.143,2.317,9.415,9.624,9.436C339.718,300.85,351.204,300.825,362.69,300.824z
			 M491.667,50.75c-23.253,0-46.506-0.012-69.76,0.009c-5.461,0.005-7.8,2.512-7.669,7.951c0.089,3.672,1.985,6.166,4.99,8.005
			c7.064,4.323,14.876,5.914,23.009,6.108c14.992,0.358,29.313-3.171,43.323-8.05c4.029-1.403,7.608-1.417,11.647-0.013
			c14.148,4.921,28.608,8.505,43.75,8.05c8.427-0.253,16.538-1.924,23.642-6.814c3.678-2.531,4.732-6.393,3.566-10.597
			c-1.2-4.323-4.324-4.691-8.031-4.681C537.312,50.78,514.49,50.749,491.667,50.75z M234.066,50.75
			c-23.281,0-46.562-0.017-69.844,0.013c-5.364,0.007-8.729,3.806-7.305,8.969c0.695,2.521,2.595,5.245,4.743,6.731
			c6.812,4.716,14.775,6.143,22.916,6.353c15.157,0.391,29.625-3.201,43.791-8.137c3.887-1.355,7.396-1.313,11.271,0.038
			c14.168,4.938,28.641,8.529,43.799,8.086c8.432-0.246,16.566-1.89,23.673-6.808c3.616-2.503,4.813-6.492,3.615-10.648
			c-1.22-4.233-4.372-4.649-8.108-4.636C279.766,50.788,256.916,50.749,234.066,50.75z M223.103,82.118
			c-0.05,0.891-0.152,1.881-0.153,2.871c-0.009,18.8-0.033,37.6,0.007,56.4c0.015,7.329,4.481,12.327,10.895,12.394
			c6.348,0.067,11.051-4.875,11.097-12.221c0.118-18.943,0.101-37.887-0.082-56.829c-0.012-1.294-1.576-3.037-2.872-3.778
			C235.6,77.301,229.379,79.225,223.103,82.118z M502.409,113.951c0-9.471-0.157-18.945,0.089-28.41
			c0.081-3.103-1.249-3.889-3.791-4.987c-5.446-2.353-10.576-1.931-15.626,0.585c-1.189,0.593-2.592,2.289-2.602,3.488
			c-0.159,19.083-0.194,38.169-0.058,57.253c0.05,7.058,4.75,11.882,10.965,11.898c6.414,0.017,10.965-4.992,11.008-12.276
			C502.449,132.319,502.407,123.135,502.409,113.951z M502.213,35.776c0.677-5.388-0.422-9.784-4.964-12.659
			c-3.861-2.444-7.965-2.447-11.787,0.066c-4.457,2.932-5.612,7.285-4.79,12.593C487.825,35.776,494.805,35.776,502.213,35.776z
			 M223.212,35.644c7.382,0,14.461,0,21.5,0c0.639-8.645-3.824-14.364-10.844-14.307C226.804,21.396,222.497,27.066,223.212,35.644z
			 M355.588,212.8c0,4.783,0,9.447,0,14.292c4.789,0,9.348,0,14.187,0c0-4.778,0-9.441,0-14.292
			C364.973,212.8,360.423,212.8,355.588,212.8z"/>
		<path fill="#E1E3ED" d="M378.797,385.859c0.909-1.284,1.657-2.729,2.752-3.828c18.357-18.425,36.753-36.813,55.153-55.196
			c5.287-5.282,8.544-5.281,13.84-0.003c6.196,6.175,12.361,12.38,18.711,18.744c1.322-1.265,2.471-2.324,3.575-3.427
			c17.278-17.269,34.546-34.549,51.827-51.815c5.587-5.582,8.861-5.564,14.476,0.046c9.544,9.537,19.077,19.085,29.153,29.168
			c0.187-1.717,0.396-2.745,0.396-3.774c0.019-21.411,0.03-42.822,0.005-64.233c-0.008-7.001-2.609-9.563-9.707-9.566
			c-39.661-0.016-79.322-0.007-118.983-0.01c-1.437,0-2.883,0.071-4.308-0.06c-3.8-0.351-6.424-3.013-6.679-6.652
			c-0.268-3.823,2.117-7.049,5.96-7.771c1.534-0.288,3.148-0.202,4.725-0.202c39.517-0.009,79.034-0.013,118.552-0.004
			c16.29,0.004,25.138,8.78,25.14,24.938c0.007,57.048,0.008,114.097-0.001,171.145c-0.002,15.651-8.954,24.636-24.535,24.638
			c-57.193,0.008-114.385,0.007-171.578,0c-15.679-0.002-24.589-8.898-24.594-24.542c-0.009-27.59-0.003-55.18-0.003-82.771
			c0-0.575-0.008-1.15,0.003-1.724c0.103-5.413,2.943-8.64,7.513-8.544c4.406,0.093,7.136,3.214,7.153,8.443
			c0.046,13.939,0.017,27.878,0.017,41.816c0,1.413,0,2.826,0,4.239C377.841,385.228,378.319,385.544,378.797,385.859z
			 M443.141,340.193c-1.255,1.649-2.084,3.034-3.189,4.143c-16.843,16.897-33.736,33.744-50.581,50.639
			c-4.041,4.054-9.493,7.618-11.483,12.543c-2,4.951-0.554,11.319-0.508,17.066c0.048,5.955,2.771,8.704,8.756,8.707
			c57.919,0.026,115.838,0.026,173.757,0c5.967-0.003,8.767-2.756,8.778-8.714c0.049-27.019,0.045-54.039-0.039-81.058
			c-0.004-1.42-0.507-3.232-1.454-4.197c-11.573-11.792-23.272-23.46-34.501-34.721c-17.462,17.466-34.769,34.777-52.185,52.198
			c12.537,12.53,25.444,25.43,38.351,38.33c1.016,1.016,2.073,1.995,3.038,3.059c3.188,3.515,3.281,7.84,0.272,10.784
			c-2.994,2.93-7.331,2.842-10.736-0.528c-11.134-11.019-22.184-22.124-33.26-33.202
			C466.784,363.865,455.419,352.482,443.141,340.193z"/>
		<path fill="#E1E3ED" d="M299.803,411.124c-53.325-0.145-95.607-45.91-91.343-98.992c1.167-14.529,5.509-28.103,13.22-40.542
			c3.423-5.522,7.51-7.137,11.552-4.517c3.952,2.561,4.311,6.648,1.059,12.071c-16.825,28.061-14.876,61.972,5.035,87.624
			c23.783,30.641,67.023,38.731,100.292,18.763c0.492-0.295,0.972-0.611,1.468-0.9c4.718-2.747,8.937-2.125,11.297,1.662
			c2.375,3.81,1.02,7.913-3.58,10.845C334.303,406.38,317.514,411.172,299.803,411.124z"/>
		<path fill="#E1E3ED" d="M294.963,381.673c-19.664-0.939-38.581-11.661-50.02-33.426c-11.256-21.417-9.824-42.864,3.146-63.38
			c2.696-4.264,6.575-5.505,10.216-3.643c4.144,2.12,5.187,6.88,2.195,11.43c-5.359,8.149-8.383,17.028-8.118,26.769
			c0.506,18.582,8.777,32.939,25.135,41.769c16.175,8.731,32.473,7.842,48.361-1.593c2.283-1.356,5.505-2.514,7.859-1.951
			c2.085,0.498,4.281,3.247,5.142,5.495c1.189,3.104-0.745,5.778-3.452,7.625C324.684,378.096,312.836,381.843,294.963,381.673z"/>
		<path fill="#E1E3ED" d="M443.669,282.401c0.022-14.205,11.598-25.761,25.744-25.7c14.139,0.061,25.717,11.739,25.644,25.865
			c-0.074,14.197-11.669,25.741-25.802,25.686C455.093,308.197,443.647,296.632,443.669,282.401z M480.252,282.378
			c-0.047-6.023-4.965-10.946-10.929-10.938c-5.94,0.008-10.9,4.969-10.946,10.949c-0.048,6.176,5.07,11.282,11.164,11.138
			C475.53,293.387,480.299,288.422,480.252,282.378z"/>
		<path fill="#E1E3ED" d="M298.632,352.361c-11.737-0.526-22.073-6.367-28.078-18.536c-5.834-11.822-4.71-23.475,3.162-34.075
			c1.586-2.136,4.693-3.96,7.29-4.257c1.928-0.221,4.764,1.815,6.122,3.643c1.957,2.634,1.114,5.756-0.968,8.343
			c-3.943,4.9-5.382,10.343-3.735,16.522c3.237,12.147,17.451,17.501,27.892,10.472c0.832-0.56,1.572-1.262,2.417-1.799
			c3.466-2.201,7.651-1.55,10.038,1.522c2.331,3.001,1.955,7.371-1.147,10.078C315.558,349.57,308.442,352.263,298.632,352.361z"/>
		<path fill="#E1E3ED" d="M244.712,35.644c-7.039,0-14.118,0-21.5,0"/>
		<path fill="#E1E3ED" d="M362.504,175.723c-12.1-0.084-21.897-9.9-21.897-21.939c0-12.183,10.126-22.257,22.245-22.132
			c12.011,0.124,21.853,10.036,21.898,22.052C384.794,165.934,374.819,175.808,362.504,175.723z M369.924,153.934
			c0.094-4.068-3.153-7.481-7.168-7.534c-4.008-0.053-7.339,3.295-7.335,7.371c0.004,3.967,3.002,7.074,6.957,7.209
			C366.556,161.122,369.829,158.066,369.924,153.934z"/>
		<path fill="#E1E3ED" d="M348.158,249.501c12.126,0.074,21.823,9.821,21.839,21.952c0.016,12.207-10.075,22.235-22.239,22.101
			c-11.996-0.131-21.869-10.088-21.89-22.076C325.846,259.275,335.836,249.425,348.158,249.501z M348.151,264.225
			c-4.126-0.092-7.449,3.081-7.492,7.153c-0.042,4.001,3.349,7.449,7.317,7.438c3.852-0.011,7.063-3.149,7.216-7.054
			C355.354,267.588,352.3,264.317,348.151,264.225z"/>
		<path fill="#E1E3ED" d="M388.387,264.325c-1.844-0.185-3.752-0.131-5.518-0.605c-3.628-0.975-5.465-3.584-5.433-7.303
			c0.031-3.576,2.768-6.484,6.48-6.817c2.702-0.242,5.446-0.219,8.16-0.084c4.257,0.211,7.166,3.054,7.347,6.93
			c0.186,3.988-2.762,7.187-7.153,7.65c-1.275,0.134-2.577,0.021-3.866,0.021C388.398,264.186,388.393,264.255,388.387,264.325z"/>
	</g>
</g>
</svg>
