<?xml version="1.0" encoding="utf-8"?>
<!-- Generator: Adobe Illustrator 17.0.0, SVG Export Plug-In . SVG Version: 6.00 Build 0)  -->
<!DOCTYPE svg PUBLIC "-//W3C//DTD SVG 1.1//EN" "http://www.w3.org/Graphics/SVG/1.1/DTD/svg11.dtd">
<svg version="1.1" id="Layer_1" xmlns="http://www.w3.org/2000/svg" xmlns:xlink="http://www.w3.org/1999/xlink" x="0px" y="0px"
	 width="500px" height="500px" viewBox="0 0 500 500" enable-background="new 0 0 500 500" xml:space="preserve">
<g>
	<defs>
		<path id="SVGID_1_" d="M500,422c0,43.946-87.988,79.571-131.934,79.571H132.989C89.043,501.571,0,465.946,0,422V12.515
			c0-43.946,89.043,10.429,132.989,10.429h235.078C412.012,22.944,500-31.431,500,12.515V422z"/>
	</defs>
	<clipPath id="SVGID_2_">
		<use xlink:href="#SVGID_1_"  overflow="visible"/>
	</clipPath>
	<g clip-path="url(#SVGID_2_)">
		<path fill="#E1E3ED" d="M111.419,486.323c-1.822,0-3.644,0-5.466,0c-2.324-3.021-5.378-5.685-6.861-9.118
			c-16.288-37.727-32.337-75.571-48.424-113.396c-0.95-2.234-1.578-4.519-4.66-4.155c-5.362,0.634-8.928-2.124-11.117-7.18
			c0-1.617,0-3.233,0-4.85c2.318-5.611,6.482-7.401,12.054-7.396c45.171,0.039,90.036-4.105,134.541-12.22
			c73.636-13.428,144.243-37.17,211.67-71.487c10.355-5.27,20.567-10.86,31.132-16.454c-19.377-38.991-38.464-77.399-57.812-116.331
			c-1.357,2.095-2.234,3.403-3.067,4.742c-10.893,17.502-21.78,35.009-32.67,52.513c-10.303,16.562-20.603,33.126-30.915,49.682
			c-2.267,3.64-5.331,5.864-9.569,5.079c-4.143-0.768-6.658-3.59-7.627-7.961c-0.174-0.784-0.461-1.539-0.659-2.317
			c-7.997-31.292-15.981-62.587-23.988-93.876c-2.252-8.8-4.567-17.581-7.05-27.125c-1.787,2.093-3.005,3.491-4.195,4.917
			c-24.492,29.363-49.005,58.706-73.439,88.124c-3.077,3.704-6.506,5.975-11.157,4.456c-4.52-1.476-5.962-5.393-6.506-10.073
			c-3.447-29.648-6.988-59.284-10.507-88.922c-1.224-10.308-2.47-20.612-3.792-31.635c-1.603,1.583-2.607,2.519-3.553,3.517
			c-17.472,18.425-34.931,36.864-52.406,55.287c-8.629,9.097-17.268,18.184-25.933,27.243c-2.844,2.973-6.208,3.995-10.012,2.389
			c-3.601-1.52-5.427-4.479-5.711-8.562c-0.169-2.417-0.401-4.83-0.538-7.248c-2.246-39.676-4.458-79.354-6.745-119.027
			c-0.342-5.93-1.024-11.837-1.548-17.755c0-5.819,0-11.639,0-17.458c3.948,0,7.896,0,11.844,0c0.346,0.296,0.658,0.661,1.043,0.879
			C120.959,31.903,198.071,61.415,279.4,78.382c36.512,7.617,73.321,12.657,110.443,15.09c32.895,2.156,65.808,2.387,98.703,0.044
			c5.784-0.412,10.002,1.372,12.801,6.78c0,1.94,0,3.88,0,5.82c-2.282,3.776-4.999,7.1-9.656,6.716
			c-3.463-0.286-4.664,1.559-5.751,4.61c-12.288,34.517-24.686,68.989-37.043,103.478c-0.511,1.426-0.901,2.901-1.61,5.207
			c2.143-1.225,3.489-1.906,4.753-2.73c10.982-7.164,21.973-14.313,32.912-21.55c7.538-4.987,11.922-3.925,16.394,4.17
			c0,1.617,0,3.233,0,4.85c-2.392,2.588-4.585,5.443-7.231,7.692c-2.829,2.404-6.25,4.018-9.083,6.419
			c-1.291,1.094-2.461,3.22-2.529,4.93c-0.283,7.099-0.07,14.219-0.144,21.33c-0.07,6.728-3.655,11-9.045,10.977
			c-5.319-0.023-8.993-4.401-9.136-11.032c-0.085-3.964-0.016-7.931-0.016-12.026c-24.459,13.609-48.42,26.94-72.577,40.381
			c23.891,22.289,47.85,44.641,72.572,67.705c0-2.812-0.029-4.259,0.005-5.704c0.163-7.029,3.745-11.421,9.255-11.372
			c5.603,0.05,8.92,4.268,8.948,11.536c0.034,8.728,0.145,17.461-0.124,26.18c-0.075,2.413-0.872,5.195-2.225,7.092
			c-3.392,4.755-8.864,4.566-13.965-0.185c-26.278-24.473-52.523-48.987-78.787-73.478c-1.173-1.094-2.415-2.106-4.189-3.646
			c-1.615,26.594-3.161,52.199-4.73,77.802c-0.849,13.867-1.73,27.731-2.613,41.595c-0.262,4.113-2.238,6.958-5.83,8.459
			c-3.454,1.444-6.562,0.608-9.294-1.923c-1.258-1.165-2.418-2.451-3.601-3.705c-24.954-26.464-49.902-52.932-74.861-79.391
			c-1.083-1.148-2.249-2.208-3.604-3.532c-0.286,1.054-0.39,1.359-0.452,1.673c-7.594,38.706-15.196,77.41-22.76,116.122
			c-0.982,5.024-1.941,9.985-7.585,11.43c-5.857,1.5-8.847-2.541-11.87-6.83c-17.307-24.553-34.685-49.049-52.042-73.562
			c-5.375-7.591-10.76-15.174-16.443-23.186c-0.948,2.142-1.672,3.722-2.353,5.322c-15.527,36.447-30.979,72.931-46.688,109.289
			C116.864,480.663,113.767,483.309,111.419,486.323z M352.754,110.451c-28.46-4.655-56.482-9.238-84.896-13.886
			c9.062,35.333,18.041,70.342,27.299,106.441C314.748,171.525,333.661,141.133,352.754,110.451z M431.897,213.912
			c12.085-33.683,23.88-66.556,35.546-99.069c-28.734-0.564-56.976-1.118-85.584-1.68
			C398.413,146.494,414.838,179.565,431.897,213.912z M60.645,129.119c23.986-26.255,47.087-51.54,69.541-76.119
			C105.77,41.364,80.088,29.125,54.18,16.777C56.306,53.728,58.43,90.626,60.645,129.119z M238.948,89.511
			c-26.801-8.416-53.234-16.717-80.015-25.127c4.151,35.067,8.284,69.977,12.55,106.013
			C194.495,142.807,216.707,116.176,238.948,89.511z M261.12,329.924c-27.152,6.266-53.721,12.397-80.813,18.649
			c19.958,28.192,39.889,56.347,60.447,85.387C247.697,398.491,254.419,364.157,261.12,329.924z M69.069,360.031
			c13.087,30.719,26.13,61.334,39.656,93.083c14.528-34.116,28.58-67.114,42.593-100.02
			C123.759,355.418,96.713,357.7,69.069,360.031z M291.866,320.25c22.117,23.775,44.753,48.109,67.199,72.238
			c1.995-33.104,4.027-66.836,6.06-100.58C339.761,301.72,315.025,311.29,291.866,320.25z"/>
	</g>
</g>
<g>
	<defs>
		<path id="SVGID_5_" d="M-22,446.442C-22,488.172-55.828,522-97.558,522h-223.222c-41.729,0-75.558-33.828-75.558-75.558V75.667
			c0-41.729,33.828-75.558,75.558-75.558h223.222C-55.828,0.109-22,33.937-22,75.667V446.442z"/>
	</defs>
	<clipPath id="SVGID_4_">
		<use xlink:href="#SVGID_5_"  overflow="visible"/>
	</clipPath>
	<g clip-path="url(#SVGID_4_)">
		<path fill="#E1E3ED" d="M-181.944,31.146c9.174,3.109,18.592,5.645,27.475,9.435c24.401,10.413,44.245,26.797,59.696,48.286
			c17.412,24.216,26.732,51.372,27.391,81.237c0.829,37.614-11.073,70.81-35.59,99.417c-1.751,2.043-3.559,4.035-5.045,5.716
			c5.216,7.15,10.286,14.098,16.151,22.137c1.167-1.153,2.62-2.999,4.451-4.319c5.015-3.615,9.089-2.885,12.936,2.034
			c0.333,0.425,0.639,0.871,0.958,1.308c27.588,37.743,55.19,75.475,82.755,113.235c10.241,14.028,11.723,28.879,4.001,44.567
			c-10.09,20.5-39.367,27.988-57.8,14.439c-4.489-3.299-8.669-7.393-11.973-11.871c-27.356-37.074-54.473-74.325-81.662-111.523
			c-5.833-7.981-5.35-11.189,2.54-17.001c0.972-0.716,1.917-1.468,2.491-1.909c-5.118-7.03-10.163-13.96-15.541-21.347
			c-0.77,0.331-2.355,0.981-3.915,1.687c-31.569,14.271-64.206,17.23-97.646,8.338c-35.606-9.468-63.754-29.698-84.303-60.375
			c-15.18-22.662-23.088-47.711-24.373-74.865c-0.305-6.444,0.108-12.922,0.191-19.385c0.913-5.875,1.827-11.751,2.74-17.626
			c1.999-6.416,3.721-12.934,6.046-19.23c9.923-26.88,26.428-48.988,49.316-66.159c20.911-15.687,44.406-25.431,70.485-28.087
			c10.125-1.031,20.396-0.627,30.6-0.877C-193.695,29.319-187.82,30.233-181.944,31.146z M-341.352,154.065
			c-10.959,70.289,37.674,137.049,107.862,148.066c70.808,11.115,137.445-37.421,148.509-108.168
			c11.016-70.436-37.733-137.165-108.228-148.146C-263.68,34.84-330.36,83.563-341.352,154.065z M-93.69,378.411
			c17.251,23.672,34.497,47.343,51.757,71.003c0.554,0.76,1.234,1.429,1.875,2.123c10.155,11.005,27.785,10.177,36.875-1.729
			c7.01-9.181,6.809-20.368-0.71-30.692c-16.37-22.477-32.798-44.912-49.207-67.361c-0.52-0.711-1.101-1.378-1.52-1.9
			C-67.752,359.454-80.597,368.841-93.69,378.411z M-122.147,339.13c6.222,8.523,12.408,16.999,18.239,24.987
			c12.889-9.412,25.897-18.911,38.126-27.841c-5.979-8.199-12.218-16.754-18.244-25.018
			C-96.444,320.337-109.264,329.711-122.147,339.13z M-120.527,288.189c-3.878,2.856-8.147,6-11.638,8.57
			c4.308,5.937,8.952,12.337,13.519,18.631c3.763-2.746,7.891-5.758,11.771-8.589C-111.543,300.437-116.236,294.039-120.527,288.189
			z"/>
	</g>
</g>
<g>
	<defs>
		<path id="SVGID_9_" d="M476.889,1246.903c0,50.585-41.007,91.593-91.593,91.593H114.703c-50.585,0-91.593-41.007-91.593-91.593
			V378.277c0-50.585,41.007-91.593,91.593-91.593h270.594c50.585,0,91.593,41.007,91.593,91.593V1246.903z"/>
	</defs>
	<clipPath id="SVGID_6_">
		<use xlink:href="#SVGID_9_"  overflow="visible"/>
	</clipPath>
</g>
</svg>
