<?xml version="1.0" encoding="utf-8"?>
<!-- Generator: Adobe Illustrator 17.0.0, SVG Export Plug-In . SVG Version: 6.00 Build 0)  -->
<!DOCTYPE svg PUBLIC "-//W3C//DTD SVG 1.1//EN" "http://www.w3.org/Graphics/SVG/1.1/DTD/svg11.dtd">
<svg version="1.1" id="Layer_1" xmlns="http://www.w3.org/2000/svg" xmlns:xlink="http://www.w3.org/1999/xlink" x="0px" y="0px"
	 width="500px" height="500px" viewBox="0 0 500 500" enable-background="new 0 0 500 500" xml:space="preserve">
<g>
	<defs>
		<path id="SVGID_5_" d="M500-75.558C500-33.828,466.172,0,424.442,0H201.221c-41.729,0-75.558-33.828-75.558-75.558v-370.776
			c0-41.729,33.828-75.558,75.558-75.558h223.222c41.729,0,75.558,33.828,75.558,75.558V-75.558z"/>
	</defs>
	<clipPath id="SVGID_2_">
		<use xlink:href="#SVGID_5_"  overflow="visible"/>
	</clipPath>
</g>
<g>
	<defs>
		<path id="SVGID_7_" d="M-22,436.477C-22,478.187-55.813,512-97.523,512h-223.119c-41.71,0-75.523-33.813-75.523-75.523V84.139
			c0-41.71,33.813-75.523,75.523-75.523h223.119C-55.813,8.616-22,42.429-22,84.139V436.477z"/>
	</defs>
	<clipPath id="SVGID_4_">
		<use xlink:href="#SVGID_7_"  overflow="visible"/>
	</clipPath>
	<path clip-path="url(#SVGID_4_)" fill="#E1E3ED" d="M-322.109,121.53c0.277-0.781,0.607-1.547,0.823-2.344
		c3.811-14.069,14.79-22.707,29.405-22.761c26.127-0.097,52.254,0.02,78.381-0.113c2.36-0.012,4.991-0.706,7.03-1.888
		c31.153-18.056,62.231-36.242,93.313-54.419c1.157-0.676,2.187-1.568,3.276-2.36c1.678,0,3.355,0,5.033,0
		c8.555,5.166,17.056,10.424,25.675,15.481c23.594,13.846,47.214,27.65,70.905,41.33c2.04,1.178,4.677,1.843,7.042,1.856
		c24.172,0.133,48.345,0.081,72.518,0.081c21.374,0,28.8,5.172,36.089,25.135c0,81.928,0,163.855,0,245.783
		c-0.445,1.297-0.921,2.585-1.332,3.893c-3.615,11.521-13.434,19.529-25.423,20.636c-2.36,0.218-4.743,0.259-7.116,0.259
		c-48.353,0.014-96.705,0.011-145.058,0.011c-1.782,0-3.565,0-6.044,0c4.277,12.749,8.337,24.85,12.496,37.246
		c6.079,0,12.071-0.029,18.062,0.006c10.597,0.062,18.396,6.318,20.002,15.997c1.539,9.273-3.933,17.588-13.872,21.108
		c-0.375,0.133-0.689,0.44-1.032,0.666c-43.62,0-87.24,0-130.86,0c-3.919-2.739-8.624-4.823-11.577-8.367
		c-4.633-5.56-4.754-12.42-1.465-18.942c3.277-6.498,8.749-10.118,16.052-10.386c6.552-0.24,13.119-0.051,20.108-0.051
		c4.099-12.155,8.175-24.243,12.471-36.982c-2.147-0.114-3.855-0.284-5.564-0.285c-49.05-0.014-98.099,0.001-147.149-0.02
		c-14.748-0.006-25.508-6.78-30.188-18.916c-0.744-1.929-1.34-3.915-2.004-5.875c0-54.246,0-108.491,0-162.737
		c4.288-4.691,8.931-5.227,11.358-1.031c0.97,1.677,1.174,3.985,1.177,6.006c0.061,50.328,0.042,100.657,0.052,150.985
		c0.002,12.137,6.747,18.974,18.945,18.977c122.186,0.026,244.372,0.027,366.559-0.003c12.172-0.003,18.813-6.848,18.814-19.102
		c0.006-77.45,0.007-154.9-0.001-232.349c-0.001-12.193-6.773-19.054-18.851-19.073c-18.034-0.029-36.069-0.008-54.103-0.008
		c-1.183,0-2.366,0-3.548,0c5.581,4.312,11.372,7.807,17.296,11.062c1.62,0.89,3.632,1.464,5.473,1.488
		c10.483,0.139,20.969,0.065,31.454,0.068c8.121,0.003,9.709,1.611,9.709,9.849c0.001,75.213,0.001,150.426-0.001,225.639
		c0,1.258,0.076,2.526-0.051,3.772c-0.34,3.328-2.134,5.718-5.516,5.793c-9.078,0.2-18.169,0.217-27.245-0.032
		c-3.401-0.093-5.205-2.621-5.233-5.977c-0.028-3.364,1.772-5.55,5.148-6.112c1.64-0.273,3.34-0.249,5.013-0.259
		c4.979-0.03,9.958-0.011,15.071-0.011c0-73.592,0-146.632,0-220.079c-9.696,0-19.169-0.123-28.635,0.086
		c-2.377,0.052-4.999,0.7-7.051,1.873c-14.79,8.454-29.421,17.187-44.208,25.645c-2.872,1.643-4.044,3.41-4.018,6.839
		c0.198,25.722,0.088,51.447,0.262,77.169c0.03,4.466-1.618,7.18-5.468,9.407c-27.32,15.802-54.586,31.698-81.745,47.773
		c-4.302,2.546-7.698,2.477-11.96-0.043c-26.805-15.851-53.685-31.58-80.687-47.093c-4.77-2.74-6.473-6.047-6.418-11.447
		c0.26-25.441,0.185-50.887,0.168-76.33c-0.001-1.443-0.052-3.65-0.914-4.204c-5.659-3.635-11.547-6.913-18.009-10.687
		c0,2.517,0,4.039,0,5.561c-0.001,16.776,0.025,33.552-0.015,50.328c-0.015,6.37-1.963,8.322-8.236,8.37
		c-6.85,0.053-13.701,0.035-20.551,0.006c-6.886-0.029-8.694-1.831-8.698-8.675c-0.012-23.207-0.005-46.414-0.005-69.621
		c0-1.498,0-2.996,0-4.633c-9.438,0-18.412,0-27.301,0c0,73.378,0,146.433,0,219.756c2.238,0,4.187,0,6.135,0
		c98.14,0,196.281-0.002,294.421,0.015c2.088,0,4.226-0.022,6.252,0.397c3.161,0.654,4.772,3.018,4.678,6.095
		c-0.093,3.063-1.796,5.313-5.007,5.837c-1.777,0.29-3.62,0.23-5.433,0.23c-101.216,0.009-202.432,0.008-303.648,0.008
		c-0.979,0-1.958,0.026-2.936-0.01c-5.147-0.189-7.319-2.341-7.32-7.557c-0.02-76.611-0.019-153.222-0.002-229.833
		c0.001-5.609,2.248-7.798,7.933-7.833c7.409-0.046,14.864-0.525,22.217,0.114c9.798,0.853,18.414-1.347,26.243-7.223
		c2.428-1.822,5.177-3.216,7.779-4.806c-19.665-0.715-38.951-0.744-58.238-0.704c-11.557,0.024-18.492,7.001-18.513,18.57
		c-0.029,15.937-0.039,31.875,0.016,47.812c0.012,3.527-0.238,6.786-4.099,8.324c-3.923,1.563-6.248-0.873-8.508-3.446
		C-322.109,160.677-322.109,141.104-322.109,121.53z M-172.866,165.674c20.617,12.043,41.28,24.01,61.811,36.198
		c2.841,1.687,4.819,1.554,7.499-0.104c7.122-4.406,14.41-8.547,21.668-12.731c4.483-2.584,8.282-1.974,10.175,1.499
		c1.82,3.337,0.461,6.784-3.767,9.271c-9.026,5.309-18.128,10.492-27.095,15.9c-3.416,2.06-6.387,1.884-9.762-0.1
		c-23.471-13.8-47.003-27.498-70.521-41.218c-1.404-0.819-2.864-1.543-4.885-2.626c0,1.972,0.002,3.313,0,4.654
		c-0.029,21.386,0.001,42.772-0.158,64.157c-0.022,2.995,0.757,4.717,3.462,6.28c24.541,14.182,49.011,28.489,73.417,42.903
		c2.62,1.548,4.484,1.623,7.125,0.064c24.531-14.476,49.143-28.813,73.75-43.16c1.848-1.078,3.348-1.922,3.328-4.64
		c-0.168-22.783-0.145-45.567-0.189-68.35c-0.001-0.404-0.109-0.809-0.269-1.928c-4.155,2.409-8.067,4.674-11.975,6.945
		c-3.018,1.754-6.009,3.557-9.054,5.262c-4.099,2.295-7.51,1.707-9.529-1.556c-2.081-3.362-0.898-6.918,3.321-9.393
		c15.417-9.04,30.867-18.023,46.302-27.032c10.246-5.98,20.487-11.969,31.296-18.284c-1.431-0.946-2.479-1.715-3.595-2.367
		c-41.229-24.092-82.471-48.16-123.678-72.291c-2.112-1.237-3.753-1.59-6.061-0.236c-41.548,24.375-83.15,48.657-124.736,72.967
		c-0.814,0.476-1.571,1.047-2.883,1.929C-215.772,140.602-194.321,153.142-172.866,165.674z M-78.473,429.136
		c-2.418-7.199-4.719-14.041-7.013-20.885c-1.463-4.365-3.005-8.707-4.338-13.112c-0.66-2.183-1.712-3.115-4.127-3.078
		c-8.942,0.137-17.889-0.035-26.828,0.155c-1.281,0.027-3.305,1.128-3.681,2.192c-3.946,11.178-7.629,22.449-11.366,33.701
		c-0.077,0.232,0.068,0.538,0.142,1.028C-116.813,429.136-97.914,429.136-78.473,429.136z M-166.056,441.944
		c-1.257,0-2.542-0.108-3.766,0.11c-3.293,0.585-5.302,2.623-5.396,5.974c-0.101,3.56,1.917,5.737,5.382,6.412
		c1.216,0.237,2.507,0.109,3.764,0.11c39.135,0.004,78.271,0.004,117.406,0c1.257,0,2.548,0.126,3.765-0.108
		c3.467-0.666,5.488-2.835,5.395-6.398c-0.087-3.354-2.087-5.395-5.379-5.988c-1.222-0.22-2.509-0.111-3.766-0.111
		c-19.568-0.005-39.135-0.004-58.703-0.004S-146.488,441.939-166.056,441.944z M-232.088,204.654
		c0.081-1.601,0.22-3.074,0.221-4.547c0.015-16.741-0.069-33.483,0.082-50.223c0.028-3.042-0.791-4.915-3.582-6.22
		c-2.839-1.328-5.485-3.071-8.631-4.87c0,22.214,0,43.776,0,65.86C-239.972,204.654-236.259,204.654-232.088,204.654z"/>
</g>
<g>
	<defs>
		<path id="SVGID_13_" d="M497.905,432c0,48.136-39.022,87.158-87.158,87.158H153.253c-48.136,0-87.158-39.022-87.158-87.158V85.158
			C66.095,37.022,105.117-2,153.253-2h257.494c48.136,0,87.158,39.022,87.158,87.158V432z"/>
	</defs>
	<clipPath id="SVGID_6_">
		<use xlink:href="#SVGID_13_"  overflow="visible"/>
	</clipPath>
	<g clip-path="url(#SVGID_6_)">
		<path fill="#E1E3ED" d="M411.22,23.132c7.927,3.456,10.859,9.662,10.219,18.043c-0.28,3.661,0.135,7.374-0.1,11.042
			c-0.206,3.23,0.809,4.37,4.192,4.314c11.635-0.192,23.275-0.107,34.912-0.063c12.929,0.05,19.528,6.695,19.58,19.649
			c0.026,6.469,0.004,12.938,0.004,20.121c3.464,0,6.635-0.015,9.805,0.003c5.155,0.029,10.32-0.113,15.462,0.159
			c12.064,0.637,21.604,8.939,23.385,20.844c1.763,11.787,2.996,23.657,4.311,35.507c0.478,4.307-2.169,7.538-5.96,7.862
			c-3.659,0.312-6.567-2.057-7.118-6.3c-1.289-9.925-2.48-19.866-3.526-29.82c-1.201-11.437-4.93-14.955-16.34-14.955
			c-71.595-0.003-143.19-0.003-214.785,0c-11.407,0.001-15.047,3.535-16.346,14.956c-3.659,32.176-7.483,64.334-11.229,96.5
			c-0.165,1.421-0.197,2.858-0.329,4.856c13.134-5.396,25.76-10.577,38.381-15.771c30.326-12.48,60.677-24.899,90.941-37.527
			c4.304-1.796,7.996-1.648,12.227,0.106c41.433,17.177,82.925,34.211,124.402,51.281c1.343,0.553,2.705,1.058,4.765,1.861
			c-0.828-7.317-1.586-14.103-2.365-20.887c-0.722-6.288-1.502-12.57-2.189-18.862c-0.367-3.363,0.606-6.139,3.931-7.624
			c4.488-2.004,8.606,0.947,9.294,6.702c1.713,14.323,3.517,28.638,4.986,42.987c0.313,3.056,1.676,4.215,4.219,5.242
			c14.454,5.836,28.857,11.797,43.265,17.747c12.406,5.124,16.214,14.309,11.005,26.644c-20.708,49.043-41.442,98.075-62.16,147.114
			c-0.619,1.465-1.179,2.956-1.832,4.598c6.922,3.677,14.242,4.178,21.599,4.231c8.197,0.058,16.057-1.608,23.503-5.165
			c8.169-3.902,16.669-6.612,25.828-6.855c5.064-0.134,7.965,1.863,8.285,5.864c0.315,3.949-2.326,6.287-7.124,7.4
			c-7.388,1.714-14.963,3.169-21.939,6.008c-19.576,7.967-38.982,8.531-58.195-0.376c-12.404-5.751-25.109-7.279-38.278-4.485
			c-5.115,1.085-10.004,3.371-14.891,5.367c-18.498,7.555-37.128,7.931-55.303-0.306c-18.223-8.258-35.797-8.293-54.038-0.028
			c-18.804,8.52-38.091,8.12-56.894-0.399c-17.441-7.902-34.558-8.097-51.981,0.006c-5.136,2.389-10.765,4.102-16.35,5.067
			c-13.42,2.321-26.692,1.503-39.353-4.097c-7.692-3.402-15.38-6.54-24.004-6.91c-4.942-0.212-7.495-3.217-7.233-7.172
			c0.274-4.139,3.238-6.069,8.638-5.924c9.797,0.262,18.637,3.768,27.442,7.625c12.356,5.411,25.111,5.563,38.025,2.262
			c1.135-0.29,2.245-0.701,3.338-1.13c0.531-0.209,0.996-0.589,1.683-1.009c-0.515-1.401-0.955-2.766-1.511-4.082
			c-20.712-49.041-41.437-98.078-62.157-147.116c-5.47-12.946-1.825-21.918,11.099-27.256c14.407-5.951,28.804-11.928,43.259-17.76
			c2.459-0.992,3.553-2.237,3.868-5.009c3.954-34.81,8.195-69.587,12.061-104.406c1.208-10.878,4.38-20.358,15.1-25.036
			c3.902-1.703,8.508-2.19,12.837-2.426c7.021-0.384,14.079-0.103,21.742-0.103c0-7.119-0.468-13.881,0.166-20.538
			c0.416-4.359,1.692-9.003,3.905-12.735c2.971-5.009,8.391-6.545,14.184-6.519c11.932,0.055,23.868-0.132,35.796,0.095
			c3.756,0.071,4.922-1.156,4.642-4.767c-0.272-3.514,0.171-7.085-0.104-10.598c-0.658-8.388,2.314-14.576,10.217-18.045
			C386.468,23.132,398.844,23.132,411.22,23.132z M578.877,294.093c-1.77-0.754-2.963-1.298-4.182-1.776
			c-59.552-23.374-119.095-46.768-178.7-70.005c-2.042-0.796-4.955-0.68-7.029,0.126c-41.944,16.306-83.824,32.78-125.72,49.208
			c-6.224,2.441-10.036,1.547-11.641-2.652c-1.578-4.127,0.681-7.303,6.99-9.776c42.447-16.638,84.92-33.211,127.31-49.994
			c4.721-1.869,8.757-1.873,13.481-0.008c58.001,22.899,116.069,45.625,174.123,68.39c3.404,1.335,6.83,2.611,10.565,4.036
			c1.206-2.8,2.309-5.339,3.394-7.885c2.938-6.893,2.468-8.042-4.457-10.889c-62.028-25.503-124.067-50.979-186.053-76.584
			c-3.15-1.301-5.651-1.213-8.74,0.065c-44.576,18.443-89.204,36.761-133.82,55.108c-17.955,7.384-35.901,14.789-53.873,22.13
			c-3.07,1.254-5.321,3.019-4.068,6.612c1.335,3.83,3.112,7.505,4.768,11.416c1.808-0.665,3.183-1.148,4.541-1.676
			c6.854-2.664,13.67-5.434,20.57-7.974c3.666-1.349,6.761-0.217,8.57,3.321c1.673,3.273,0.129,6.893-3.571,8.799
			c-1.301,0.67-2.708,1.138-4.074,1.679c-6.816,2.7-13.635,5.394-20.856,8.249c18.425,43.639,36.712,86.95,54.908,130.047
			c0.542,0.113,0.697,0.192,0.828,0.164c0.711-0.152,1.416-0.33,2.122-0.501c16.091-3.885,31.923-3.329,47.046,3.738
			c17.682,8.263,35.017,8.149,52.786,0.093c18.807-8.526,38.106-8.602,56.907-0.078c17.933,8.13,35.266,7.979,53.268,0.074
			c7.364-3.233,15.747-4.939,23.806-5.579c8.485-0.674,17.137,0.756,26.259,1.3C542.219,380.915,560.456,337.721,578.877,294.093z
			 M466.765,96.007c0-6.537,0.004-12.563-0.001-18.589c-0.007-7.229-0.473-7.693-7.84-7.694c-44.186-0.003-88.372-0.002-132.558,0
			c-1.178,0-2.593-0.384-3.482,0.13c-1.582,0.914-3.987,2.32-4.055,3.624c-0.389,7.425-0.189,14.882-0.189,22.528
			C368.175,96.007,417.155,96.007,466.765,96.007z M407.783,36.676c-10.214,0-20.141,0-30.163,0c0,6.644,0,13.013,0,19.381
			c10.282,0,20.181,0,30.163,0C407.783,49.389,407.783,43.127,407.783,36.676z"/>
		<path fill="#E1E3ED" d="M220.273,475.746c-9.598-3.135-19.141-6.451-28.816-9.327c-4.759-1.415-9.736-2.176-14.66-2.937
			c-4.884-0.755-7.445-3.137-7.148-7.228c0.288-3.977,3.534-6.839,8.181-5.908c8.306,1.663,16.891,3.073,24.594,6.375
			c17.164,7.357,33.785,7.672,50.801-0.076c19.731-8.985,39.671-8.929,59.406,0.065c16.849,7.678,33.481,7.648,50.332-0.035
			c19.733-8.997,39.665-8.982,59.398,0.014c16.849,7.681,33.486,7.695,50.332,0.015c19.735-8.997,39.668-9.039,59.401-0.047
			c17.012,7.752,33.654,7.458,50.798,0.049c7.433-3.212,15.703-4.654,23.717-6.297c5.288-1.084,8.748,1.604,9.054,5.848
			c0.303,4.206-2.368,6.286-7.58,7.308c-6.588,1.292-13.076,3.158-19.539,5.014c-7.872,2.26-15.673,4.768-23.505,7.169
			c-5.009,0-10.019,0-15.028,0c-9.579-3.077-19.185-6.074-28.732-9.249c-12.693-4.221-25.286-4.181-37.975,0.112
			c-9.529,3.224-19.174,6.104-28.767,9.137c-4.715,0-9.429,0-14.144,0c-9.586-3.056-19.21-6-28.749-9.195
			c-12.689-4.25-25.284-4.258-37.975-0.001c-9.538,3.2-19.163,6.14-28.749,9.196c-5.009,0-10.019,0-15.028,0
			c-9.696-3.192-19.37-6.449-29.093-9.558c-12.264-3.922-24.508-3.815-36.754,0.29c-9.544,3.199-19.159,6.187-28.743,9.268
			C230.292,475.746,225.283,475.746,220.273,475.746z"/>
		<path fill="#E1E3ED" d="M392.569,163.784c-6.924-0.002-13.849,0.077-20.772-0.024c-6.588-0.096-11.22-4.316-11.508-10.902
			c-0.296-6.763-0.285-13.559,0.001-20.323c0.275-6.526,4.879-10.985,11.46-11.063c13.993-0.166,27.992-0.179,41.985,0.011
			c6.532,0.089,11.051,4.652,11.307,11.225c0.257,6.619,0.261,13.264,0.003,19.883c-0.266,6.835-4.862,11.086-11.704,11.176
			C406.418,163.856,399.493,163.785,392.569,163.784z M411.602,135.029c-12.888,0-25.295,0-37.845,0c0,5.261,0,10.182,0,15.279
			c12.714,0,25.145,0,37.845,0C411.602,145.17,411.602,140.252,411.602,135.029z"/>
		<path fill="#E1E3ED" d="M314.409,163.788c-6.923-0.001-13.847,0.075-20.769-0.022c-7.04-0.099-11.482-4.588-11.584-11.678
			c-0.091-6.333-0.096-12.669,0.007-19.001c0.11-6.785,4.493-11.51,11.284-11.604c13.991-0.194,27.988-0.192,41.979-0.007
			c6.959,0.092,11.31,4.901,11.389,11.98c0.069,6.186,0.078,12.374-0.004,18.56c-0.095,7.232-4.631,11.682-11.975,11.759
			C327.962,163.844,321.185,163.789,314.409,163.788z M295.534,150.182c12.933,0,25.329,0,37.64,0c0-5.27,0-10.188,0-15.198
			c-12.692,0-25.086,0-37.64,0C295.534,140.199,295.534,145.122,295.534,150.182z"/>
		<path fill="#E1E3ED" d="M471.065,163.786c-6.923,0.001-13.847,0.07-20.77-0.018c-7.045-0.09-11.596-4.59-11.707-11.589
			c-0.101-6.332-0.095-12.669,0-19.002c0.102-6.758,4.515-11.594,11.231-11.689c14.138-0.199,28.283-0.211,42.421,0.016
			c6.559,0.105,10.886,4.861,11.002,11.418c0.114,6.479,0.117,12.964,0.006,19.443c-0.117,6.784-4.628,11.29-11.413,11.396
			C484.913,163.87,477.989,163.785,471.065,163.786z M489.76,150.384c0-5.343,0-10.263,0-15.437c-12.63,0-25.023,0-37.616,0
			c0,5.241,0,10.268,0,15.437C464.74,150.384,477.035,150.384,489.76,150.384z"/>
	</g>
</g>
</svg>
