<?xml version="1.0" encoding="utf-8"?>
<!-- Generator: Adobe Illustrator 17.0.0, SVG Export Plug-In . SVG Version: 6.00 Build 0)  -->
<!DOCTYPE svg PUBLIC "-//W3C//DTD SVG 1.1//EN" "http://www.w3.org/Graphics/SVG/1.1/DTD/svg11.dtd">
<svg version="1.1" id="Layer_1" xmlns="http://www.w3.org/2000/svg" xmlns:xlink="http://www.w3.org/1999/xlink" x="0px" y="0px"
	 width="500px" height="500px" viewBox="0 0 500 500" enable-background="new 0 0 500 500" xml:space="preserve">
<g>
	<defs>
		<path id="SVGID_11_" d="M365.051,643.887c0,40.694-32.989,73.683-73.683,73.683H73.683C32.989,717.57,0,684.581,0,643.887V-54.896
			c0-40.694,32.989-73.683,73.683-73.683h217.684c40.694,0,73.683,32.989,73.683,73.683V643.887z"/>
	</defs>
	<clipPath id="SVGID_2_">
		<use xlink:href="#SVGID_11_"  overflow="visible"/>
	</clipPath>
	<g clip-path="url(#SVGID_2_)">
		<path fill="#E1E3ED" d="M-36.107,29.939c5.051,0.793,8.633,4.052,12.318,7.215c39.226,33.67,78.475,67.312,117.722,100.956
			c0.984,0.844,2.016,1.631,2.544,2.057c7.34-5.895,14.217-11.957,21.652-17.231c6.678-4.737,14.271-7.682,22.736-7.443
			c6.549,0.185,9.19,2.816,9.384,9.422c0.252,8.607-2.866,16.246-7.617,23.088c-4.518,6.507-9.764,12.508-14.914,19.014
			c6.363,5.46,12.973,11.133,19.931,17.103c6.877-9.383,13.671-18.485,20.284-27.716c9.522-13.294,19.112-26.548,28.311-40.065
			c12.426-18.258,30.164-26.877,51.499-28.949c6.472-0.629,13.063-0.316,19.586-0.066c7.059,0.27,12.244,4.952,12.893,11.931
			c1.384,14.894,0.238,29.543-5.548,43.554c-4.719,11.428-12.241,20.554-22.33,27.726c-21.539,15.308-42.971,30.767-64.442,46.171
			c-1.366,0.98-2.693,2.016-4.374,3.278c5.834,6.821,11.489,13.433,17.31,20.239c3.477-3.136,6.651-6.225,10.06-9.028
			c8.27-6.8,17.114-12.517,28.119-13.764c10.268-1.164,14.406,3.105,12.95,13.461c-1.216,8.649-5.01,16.248-10.291,23.024
			c-4.49,5.761-9.494,11.122-14.533,16.965c7.194,8.409,14.559,17.032,21.94,25.642c27.596,32.194,55.205,64.378,82.778,96.591
			c1.84,2.15,3.428,4.516,5.134,6.782c0,2.88,0,5.76,0,8.64c-6.566,7.03-12.796,14.42-19.815,20.964
			c-4.753,4.431-11.724,3.359-17.102-1.486c-15.559-14.016-31.072-28.081-46.604-42.127c-23.782-21.508-47.563-43.017-71.349-64.521
			c-0.959-0.867-1.958-1.688-3.67-3.158c-3.516,3.756-6.884,7.537-10.448,11.123c-7.263,7.308-14.441,7.223-21.784-0.114
			c-2.592-2.59-5.261-5.111-7.751-7.796c-5.075-5.473-5.154-12.967-0.029-18.406c3.493-3.707,7.317-7.101,11.307-10.937
			c-8.288-7.508-16.189-14.665-24.273-21.989c-10.646,10.648-20.694,21.534-31.684,31.366c-6.257,5.597-7.505,10.37-4.423,18.298
			c6.145,15.812,10.768,32.209,16.447,48.213c2.717,7.656,1.473,13.748-4.619,19.032c-2.17,1.882-4.057,4.086-6.141,6.073
			c-7.633,7.279-17.787,5.518-22.297-4.024c-8.822-18.668-17.152-37.58-26.472-55.993c-2.416-4.774-7.067-9.399-11.844-11.822
			c-17.938-9.1-36.354-17.259-54.589-25.775c-11.39-5.32-13.081-15.145-4.151-24.099c2.218-2.224,4.463-4.423,6.661-6.667
			c4.406-4.497,9.487-5.473,15.441-3.462c18.687,6.312,37.448,12.407,56.107,18.801c3.127,1.071,5.036,0.823,7.437-1.634
			c11.8-12.07,23.837-23.909,36.175-36.213c-7.252-8.03-14.391-15.934-21.914-24.265c-3.457,3.532-6.686,6.926-10.018,10.214
			c-6.523,6.437-13.895,6.437-20.404,0.046c-2.802-2.751-5.617-5.493-8.314-8.345c-5.412-5.723-5.422-13.293,0.103-18.975
			c3.909-4.019,8.064-7.799,12.369-11.936c-8.008-8.861-15.614-17.284-23.227-25.7c-28.709-31.74-57.464-63.44-86.043-95.297
			c-2.134-2.379-3.577-5.742-4.344-8.891c-0.943-3.872,0.706-7.484,3.529-10.348c4.87-4.94,9.608-10.039,14.804-14.615
			c2.233-1.967,5.473-2.791,8.256-4.134C-37.154,29.939-36.63,29.939-36.107,29.939z M266.904,100.661
			c-6.571,0-12.754-0.556-18.804,0.106c-17.018,1.862-31.376,8.717-41.046,23.581c-1.925,2.959-4.052,5.786-6.092,8.67
			c-21.911,30.981-43,62.661-68.516,90.827c-21.073,23.262-43.664,45.146-65.404,67.812c-3.74,3.899-7.337,4.528-12.262,2.841
			c-19.652-6.731-39.381-13.239-59.118-19.716c-1.375-0.451-3.445-0.552-4.515,0.178c-2.883,1.967-5.4,4.47-8.458,7.103
			c2.234,1.13,3.264,1.69,4.325,2.181c17.793,8.228,35.628,16.368,53.37,24.704c8.186,3.846,14.33,10.032,18.208,18.187
			c7.859,16.524,15.499,33.152,23.238,49.734c1.076,2.307,2.199,4.592,3.423,7.143c1.887-1.869,3.334-3.579,5.055-4.944
			c3.072-2.438,3.5-4.949,2.165-8.795c-6.769-19.502-13.093-39.159-19.748-58.702c-1.411-4.143-0.639-7.156,2.455-10.203
			c13.056-12.86,26.004-25.83,38.905-38.846c18.555-18.721,38.273-36.122,59.508-51.723c23.3-17.117,46.965-33.738,70.256-50.867
			c4.877-3.586,9.54-7.926,13.055-12.814C266.821,133.324,268.165,117.407,266.904,100.661z M-51.09,58.124
			C1.648,116.336,54.143,174.282,107.168,232.811c11.007-12.867,21.661-25.321,32.431-37.911
			C80.444,144.2,21.871,93.999-36.477,43.991C-41.463,48.814-46.145,53.341-51.09,58.124z M323.862,404.373
			c-50.498-58.914-100.695-117.478-151.208-176.409c-12.812,10.977-25.193,21.585-37.877,32.453
			c58.596,53.013,116.697,105.579,174.42,157.803C314.144,413.548,318.871,409.085,323.862,404.373z M238.132,231.151
			c-11.936,3.684-20.719,10.53-28.222,19.627c2.716,3.179,5.327,6.236,8.025,9.395C227.148,252.323,234.611,243.54,238.132,231.151z
			 M136.357,129.387c-12.408,3.752-21.24,11.008-28.903,20.314c3.285,2.796,6.321,5.379,9.336,7.945
			C125.929,150.026,132.775,141.384,136.357,129.387z M160.177,301.487c-4.007,3.935-7.674,7.536-10.783,10.59
			c2.551,2.8,5.325,5.844,7.483,8.212c3.97-3.551,7.926-7.09,12.092-10.815C165.748,306.549,162.791,303.863,160.177,301.487z
			 M54.887,218.57c3.88-3.671,7.628-7.216,11.482-10.862c-2.624-2.888-5.314-5.848-7.73-8.506
			c-4.014,3.963-7.83,7.732-11.738,11.591C49.591,213.414,52.469,216.217,54.887,218.57z"/>
		<path fill="#E1E3ED" d="M336.994,109.272c-1.473,5.247-2.764,10.554-4.472,15.723c-1.664,5.038-5.165,6.932-9.16,5.456
			c-3.87-1.431-5.096-5.187-3.324-10.18c12.003-33.805-6.92-68.266-41.644-75.753c-11.055-2.384-21.794-1.037-32.342,2.859
			c-5.569,2.057-10.65-1.462-9.472-6.736c0.477-2.136,2.652-4.738,4.675-5.519c5.074-1.959,10.503-2.999,15.79-4.407
			c0.989-0.263,1.981-0.518,2.972-0.777c4.713,0,9.426,0,14.139,0c0.869,0.241,1.724,0.563,2.608,0.71
			c27.348,4.57,46.106,19.808,56.218,45.561c1.79,4.559,2.697,9.465,4.012,14.211C336.994,96.704,336.994,102.988,336.994,109.272z"
			/>
		<path fill="#E1E3ED" d="M267.164,58.146c29.076,0.702,49.348,30.371,38.51,56.758c-1.348,3.282-3.539,5.175-7.157,4.861
			c-3.255-0.282-5.329-2.231-5.836-5.404c-0.232-1.457,0.123-3.119,0.601-4.559c3.722-11.224,1.733-21.317-6.644-29.603
			c-8.284-8.194-18.342-9.903-29.356-6.258c-4.627,1.531-8.404,0.015-9.64-3.825c-1.21-3.759,0.629-7.341,5.121-8.687
			C257.469,60.019,262.356,59.215,267.164,58.146z"/>
	</g>
</g>
<g>
	<defs>
		<rect id="SVGID_15_" x="522" y="-2.842" width="500" height="502.842"/>
	</defs>
	<clipPath id="SVGID_4_">
		<use xlink:href="#SVGID_15_"  overflow="visible"/>
	</clipPath>
	<g clip-path="url(#SVGID_4_)">
		<path fill="#E1E3ED" d="M949.383,376.853c-1.915,3.478-3.321,7.389-5.839,10.355c-7.745,9.12-19.696,10.25-30.45,3.232
			c-26.693-17.418-53.35-34.89-80.023-52.339c-2.238-1.464-4.484-2.918-7.766-5.054c0,2.304,0,3.821,0,5.338
			c0,13.934,0.015,27.869-0.004,41.803c-0.034,25.315-15.825,40.998-41.292,40.999c-102.913,0.005-205.826,0.003-308.739,0.001
			c-22.238,0-34.895-9.516-41.147-30.898c-0.138-0.472-0.43-0.898-0.651-1.346c0-96.061,0-192.123,0-288.184
			c0.598-1.906,1.191-3.813,1.795-5.717c4.909-15.469,18.797-26.268,34.96-26.428c25.187-0.25,50.379-0.117,75.568-0.072
			c5.439,0.01,8.717,3.077,8.636,7.676c-0.08,4.547-3.373,7.383-8.916,7.393c-23.846,0.041-47.693,0.006-71.539,0.023
			c-16.238,0.011-25.383,9.066-25.385,25.165c-0.01,90.683-0.009,181.366,0,272.049c0.002,16.113,9.146,25.219,25.337,25.221
			c103.614,0.01,207.227,0.009,310.841,0.001c16.326-0.001,25.41-9.192,25.414-25.723c0.015-51.051,0.005-102.102,0.008-153.154
			c0-1.679-0.075-3.368,0.08-5.035c0.38-4.081,2.711-6.48,6.756-6.828c4.054-0.348,6.805,1.686,7.86,5.578
			c0.472,1.74,0.399,3.655,0.4,5.491c0.022,28.045,0.072,56.089-0.062,84.133c-0.015,3.243,0.972,5.107,3.695,6.876
			c30.396,19.744,60.709,39.617,91.031,59.475c3.146,2.061,6.185,4.165,10.184,2.034c4.172-2.223,4.152-6.033,4.151-10.002
			c-0.028-82.79-0.028-165.58,0.003-248.371c0.001-3.814-0.07-7.448-3.915-9.647c-3.903-2.232-6.997-0.327-10.195,1.775
			c-30.284,19.915-60.567,39.832-90.95,59.595c-3.073,1.999-4.321,4.13-3.996,7.726c0.317,3.498,0.115,7.048,0.057,10.573
			c-0.098,5.91-2.887,9.29-7.589,9.307c-4.78,0.018-7.493-3.23-7.5-9.246c-0.03-26.869-0.007-53.738-0.017-80.607
			c-0.006-17.551-8.803-26.391-26.255-26.392c-67.508-0.003-135.017-0.001-202.525-0.003c-1.511,0-3.033,0.094-4.532-0.052
			c-4.264-0.414-7.458-3.671-7.192-7.607c0.284-4.212,2.684-6.768,6.917-7.37c1.319-0.188,2.682-0.082,4.025-0.082
			c68.012-0.003,136.025-0.012,204.037,0.003c24.743,0.005,40.589,15.872,40.637,40.654c0.027,13.938,0.005,27.877,0.005,41.815
			c0,1.608,0,3.216,0,5.603c2.114-1.267,3.523-2.046,4.865-2.926c26.661-17.484,53.7-34.429,79.818-52.69
			c14.62-10.222,32.873-7.571,39.395,11.875C949.383,200.852,949.383,288.853,949.383,376.853z"/>
	</g>
</g>
</svg>
