<?xml version="1.0" encoding="utf-8"?>
<!-- Generator: Adobe Illustrator 17.0.0, SVG Export Plug-In . SVG Version: 6.00 Build 0)  -->
<!DOCTYPE svg PUBLIC "-//W3C//DTD SVG 1.1//EN" "http://www.w3.org/Graphics/SVG/1.1/DTD/svg11.dtd">
<svg version="1.1" id="Layer_1" xmlns="http://www.w3.org/2000/svg" xmlns:xlink="http://www.w3.org/1999/xlink" x="0px" y="0px"
	 width="500px" height="500px" viewBox="0 0 500 500" enable-background="new 0 0 500 500" xml:space="preserve">
<g>
	<defs>
		<rect id="SVGID_15_" y="-2.842" width="500" height="502.842"/>
	</defs>
	<clipPath id="SVGID_2_">
		<use xlink:href="#SVGID_15_"  overflow="visible"/>
	</clipPath>
	<g clip-path="url(#SVGID_2_)">
		<path fill="#E1E3ED" d="M427.383,376.853c-1.915,3.478-3.321,7.389-5.839,10.355c-7.745,9.12-19.696,10.25-30.45,3.232
			c-26.693-17.418-53.35-34.89-80.023-52.339c-2.238-1.464-4.484-2.918-7.766-5.054c0,2.304,0,3.821,0,5.338
			c0,13.934,0.015,27.869-0.004,41.803c-0.033,25.315-15.825,40.998-41.292,40.999c-102.913,0.005-205.826,0.003-308.739,0.001
			c-22.238,0-34.895-9.516-41.147-30.898c-0.138-0.472-0.43-0.898-0.651-1.346c0-96.061,0-192.123,0-288.184
			c0.598-1.906,1.191-3.813,1.795-5.717c4.909-15.469,18.797-26.268,34.96-26.428c25.187-0.25,50.379-0.117,75.568-0.072
			c5.439,0.01,8.717,3.077,8.636,7.676c-0.08,4.547-3.373,7.383-8.916,7.393c-23.846,0.041-47.693,0.006-71.539,0.023
			c-16.238,0.011-25.383,9.066-25.385,25.165c-0.01,90.683-0.009,181.366,0,272.049c0.002,16.113,9.146,25.219,25.337,25.221
			c103.614,0.01,207.227,0.009,310.841,0.001c16.326-0.001,25.41-9.192,25.414-25.723c0.015-51.051,0.005-102.102,0.008-153.154
			c0-1.679-0.075-3.368,0.08-5.035c0.38-4.081,2.711-6.48,6.756-6.828c4.054-0.348,6.805,1.686,7.86,5.578
			c0.472,1.74,0.399,3.655,0.4,5.491c0.022,28.045,0.072,56.089-0.062,84.133c-0.016,3.243,0.972,5.107,3.695,6.876
			c30.396,19.744,60.709,39.617,91.031,59.475c3.146,2.061,6.185,4.165,10.184,2.034c4.172-2.223,4.152-6.033,4.151-10.002
			c-0.028-82.79-0.028-165.58,0.003-248.371c0.001-3.814-0.069-7.448-3.914-9.647c-3.904-2.232-6.997-0.327-10.195,1.775
			c-30.284,19.915-60.567,39.832-90.95,59.595c-3.073,1.999-4.321,4.13-3.996,7.726c0.317,3.498,0.115,7.048,0.057,10.573
			c-0.098,5.91-2.887,9.29-7.589,9.307c-4.78,0.018-7.493-3.23-7.5-9.246c-0.03-26.869-0.007-53.738-0.017-80.607
			c-0.006-17.551-8.803-26.391-26.255-26.392c-67.508-0.003-135.017-0.001-202.525-0.003c-1.511,0-3.033,0.094-4.532-0.052
			c-4.264-0.414-7.458-3.671-7.192-7.607c0.284-4.212,2.684-6.768,6.917-7.37c1.319-0.188,2.682-0.082,4.025-0.082
			c68.012-0.003,136.024-0.012,204.037,0.003c24.743,0.005,40.589,15.872,40.637,40.654c0.027,13.938,0.005,27.877,0.005,41.815
			c0,1.608,0,3.216,0,5.603c2.114-1.267,3.523-2.046,4.865-2.926c26.661-17.484,53.7-34.429,79.818-52.69
			c14.62-10.222,32.873-7.571,39.395,11.875C427.383,200.852,427.383,288.853,427.383,376.853z"/>
		<path fill="#E1E3ED" d="M27.435,244.808c-0.001-27.027,0.085-54.054-0.046-81.08c-0.048-9.835,3.06-17.806,11.976-22.712
			c8.962-4.932,17.348-3.083,25.554,2.271c17.418,11.364,34.955,22.546,52.444,33.803c0.705,0.454,1.445,0.863,2.105,1.376
			c3.754,2.912,4.626,7.076,2.251,10.599c-2.372,3.519-6.572,4.444-10.653,1.899c-8.681-5.413-17.227-11.042-25.833-16.575
			c-9.595-6.168-19.211-12.302-28.783-18.505c-3.057-1.981-6.054-3.71-9.778-1.652c-3.625,2.004-4.146,5.301-4.144,9.025
			c0.037,54.389,0.038,108.778-0.002,163.168c-0.003,3.729,0.53,7.028,4.137,9.033c3.71,2.063,6.713,0.335,9.78-1.638
			c42.038-27.045,84.101-54.051,126.14-81.094c7.837-5.041,7.797-10.708-0.079-15.794c-14.654-9.463-29.339-18.88-44.01-28.317
			c-0.987-0.635-2.001-1.236-2.943-1.934c-3.768-2.792-4.785-7.025-2.563-10.515c2.301-3.615,6.52-4.71,10.547-2.148
			c16.982,10.802,34.142,21.358,50.687,32.801c13.54,9.364,12.291,28.282-2.028,37.653c-19.366,12.674-38.915,25.068-58.385,37.584
			c-22.855,14.693-45.726,29.363-68.552,44.102c-5.639,3.641-11.476,6.337-18.408,5.131c-11.912-2.072-19.363-11.157-19.393-23.89
			C27.392,299.869,27.436,272.338,27.435,244.808z"/>
	</g>
</g>
</svg>
