<?xml version="1.0" encoding="utf-8"?>
<!-- Generator: Adobe Illustrator 17.0.0, SVG Export Plug-In . SVG Version: 6.00 Build 0)  -->
<!DOCTYPE svg PUBLIC "-//W3C//DTD SVG 1.1//EN" "http://www.w3.org/Graphics/SVG/1.1/DTD/svg11.dtd">
<svg version="1.1" id="Layer_1" xmlns="http://www.w3.org/2000/svg" xmlns:xlink="http://www.w3.org/1999/xlink" x="0px" y="0px"
	 width="500px" height="500px" viewBox="0 0 500 500" enable-background="new 0 0 500 500" xml:space="preserve">
<g>
	<defs>
		<path id="SVGID_3_" d="M-22,438.515C-22,479.1-54.9,512-95.485,512h-217.097c-40.584,0-73.485-32.9-73.485-73.485V20.106
			c0-40.584,32.9-73.485,73.485-73.485h217.097C-54.9-53.379-22-20.478-22,20.106V438.515z"/>
	</defs>
	<clipPath id="SVGID_2_">
		<use xlink:href="#SVGID_3_"  overflow="visible"/>
	</clipPath>
	<g clip-path="url(#SVGID_2_)">
		<path fill="#E1E3ED" d="M-27.387,6.483c3.571,1.426,7.439,2.376,10.655,4.375c7.587,4.715,11.448,11.852,11.801,20.817
			c0.05,1.258,0.007,2.519,0.007,4.342c3.516,0,6.629,0,9.743,0c11.352,0,22.704-0.015,34.056,0.005
			c11.274,0.02,18.54,5.27,21.544,15.516c2.969,10.125-0.908,20.856-9.45,26.512c-13.119,8.687-27.655,10.606-42.914,9.126
			c-4.129-0.401-8.243-0.959-12.952-1.515c0,1.792,0,3.318,0,4.843c0,16.812,0.017,33.625-0.006,50.437
			c-0.018,13.138-6.68,22.839-18.041,26.367c-11.218,3.484-21.982-0.673-29.595-11.162c-0.74-1.02-2.82-1.791-4.101-1.584
			c-17.677,2.854-32.624,11.5-46.245,22.612c-4.76,3.883-9.006,8.435-13.217,12.933c-1.826,1.95-3.296,4.396-4.37,6.861
			c-4.936,11.324-4.999,11.485-16.531,15.947c0,4.492,0,9.061,0,14.356c3.944,0,7.894-0.007,11.843,0.001
			c15.755,0.033,24.589,8.814,24.612,24.504c0.02,13.507,0.057,27.015-0.011,40.522c-0.07,13.943-8.845,23.098-22.772,23.212
			c-23.996,0.197-47.995,0.197-71.991,0c-13.935-0.114-22.702-9.269-22.764-23.216c-0.062-13.938-0.065-27.877,0.002-41.815
			c0.067-13.974,9.26-23.079,23.307-23.2c4.278-0.037,8.556-0.006,13.079-0.006c0-5.092,0-9.761,0-14.704
			c-8.917-1.593-14.124-7.06-16.489-15.607c-0.48-1.735-1.607-3.404-2.78-4.818c-16.003-19.28-35.857-32.364-60.593-37.647
			c-2.569-0.549-3.77,0.189-5.158,2.287c-6.532,9.872-18.006,13.935-28.999,10.523c-10.816-3.357-17.947-12.985-18.004-24.648
			c-0.084-17.243-0.025-34.487-0.028-51.73c0-1.561,0-3.121,0-5.212c-4.415,0.497-8.468,0.987-12.528,1.406
			c-15.57,1.608-30.383-0.361-43.689-9.345c-8.49-5.733-12.141-16.586-8.974-26.655c3.163-10.055,10.27-15.087,21.42-15.102
			c14.361-0.02,28.723-0.005,43.329-0.005c0.168-1.159,0.396-2.101,0.428-3.05c0.459-13.653,7.738-22.638,20.93-25.822
			c0.545-0.132,1.048-0.438,1.57-0.663c2.3,0,4.599,0,6.899,0c0.638,0.273,1.253,0.635,1.918,0.805
			c11.492,2.938,18.78,11.338,19.989,23.085c0.185,1.794,0.344,3.59,0.539,5.645c14.571,0,28.776-0.009,42.981,0.003
			c11.771,0.01,18.68,4.958,21.858,15.616c3.051,10.232-0.928,20.818-9.877,26.679c-13.176,8.629-27.74,10.337-42.976,8.803
			c-3.943-0.397-7.876-0.905-12.062-1.391c0,8.084,0,15.761,0,23.584c1.074,0.141,1.906,0.344,2.738,0.345
			c13.505,0.019,27.046,0.591,40.502-0.224c7.126-0.432,14.624-2.189,21.058-5.24c25.746-12.206,51.068-12.317,76.742,0.034
			c5.319,2.559,11.376,4.523,17.209,4.883c13.169,0.813,26.411,0.454,39.624,0.565c2.406,0.02,4.812,0.003,7.332,0.003
			c0-8.289,0-16.053,0-23.972c-4.399,0.525-8.376,1.067-12.368,1.463c-15.416,1.53-30.089-0.449-43.269-9.327
			c-8.377-5.642-12.121-16.353-9.156-26.209c3.162-10.513,10.104-15.586,21.441-15.609c11.206-0.023,22.413-0.005,33.62-0.005
			c3.264,0,6.528,0,9.899,0c0.151-2.095,0.256-3.657,0.377-5.218c0.693-8.944,4.845-15.874,12.522-20.431
			c2.895-1.718,6.277-2.615,9.437-3.886C-31.986,6.483-29.686,6.483-27.387,6.483z M-56.389,124.407c-2.077,0-3.619,0-5.161,0
			c-11.919,0-23.839-0.027-35.758,0.008c-10.655,0.031-20.8-2.123-30.348-6.906c-21.252-10.647-42.325-10.174-63.754-0.026
			c-6.861,3.249-14.629,5.652-22.149,6.214c-14.428,1.079-28.974,0.565-43.472,0.708c-1.654,0.016-3.308,0.002-5.223,0.002
			c0,4.571-0.223,8.457,0.133,12.289c0.11,1.179,1.655,2.977,2.794,3.198c22.695,4.397,41.707,15.766,58.61,30.98
			c7.488,6.74,14.202,14.182,17.603,24.076c0.465,1.354,2.992,2.808,4.59,2.837c12.777,0.231,25.563,0.265,38.337-0.034
			c1.701-0.04,3.838-1.961,4.927-3.581c2.857-4.25,4.638-9.336,7.923-13.167c17.994-20.989,40.305-35.105,67.556-40.875
			c2.333-0.494,3.579-1.141,3.44-3.79C-56.534,132.624-56.389,128.889-56.389,124.407z M-159.31,300.824
			c11.629,0,23.259,0.037,34.888-0.014c6.718-0.029,9.146-2.438,9.164-9.033c0.035-13.496,0.031-26.991,0.002-40.487
			c-0.015-6.791-2.546-9.306-9.413-9.313c-23.115-0.025-46.23-0.025-69.345,0.001c-6.845,0.008-9.361,2.535-9.375,9.346
			c-0.026,13.352-0.024,26.704-0.002,40.056c0.012,7.143,2.317,9.415,9.624,9.436C-182.282,300.85-170.796,300.825-159.31,300.824z
			 M-30.333,50.75c-23.253,0-46.506-0.012-69.76,0.009c-5.461,0.005-7.8,2.512-7.669,7.951c0.089,3.672,1.985,6.166,4.99,8.005
			c7.064,4.323,14.876,5.914,23.009,6.108c14.992,0.358,29.313-3.171,43.323-8.05c4.029-1.403,7.608-1.417,11.647-0.013
			c14.148,4.921,28.608,8.505,43.75,8.05c8.427-0.253,16.538-1.924,23.642-6.814c3.678-2.531,4.733-6.393,3.566-10.597
			c-1.2-4.323-4.324-4.691-8.031-4.681C15.312,50.78-7.51,50.749-30.333,50.75z M-287.934,50.75
			c-23.281,0-46.562-0.017-69.844,0.013c-5.364,0.007-8.729,3.806-7.305,8.969c0.695,2.521,2.595,5.245,4.743,6.731
			c6.812,4.716,14.775,6.143,22.916,6.353c15.157,0.391,29.625-3.201,43.791-8.137c3.887-1.355,7.396-1.313,11.271,0.038
			c14.168,4.938,28.641,8.529,43.799,8.086c8.432-0.246,16.566-1.89,23.673-6.808c3.616-2.503,4.813-6.492,3.615-10.648
			c-1.22-4.233-4.372-4.649-8.108-4.636C-242.234,50.788-265.084,50.749-287.934,50.75z M-298.897,82.118
			c-0.05,0.891-0.152,1.881-0.153,2.871c-0.009,18.8-0.033,37.6,0.007,56.4c0.015,7.329,4.481,12.327,10.895,12.394
			c6.348,0.067,11.051-4.875,11.097-12.221c0.118-18.943,0.101-37.887-0.082-56.829c-0.012-1.294-1.576-3.037-2.872-3.778
			C-286.4,77.301-292.621,79.225-298.897,82.118z M-19.591,113.951c0-9.471-0.157-18.945,0.089-28.41
			c0.081-3.103-1.249-3.889-3.791-4.987c-5.446-2.353-10.576-1.931-15.626,0.585c-1.189,0.593-2.592,2.289-2.602,3.488
			c-0.159,19.083-0.194,38.169-0.058,57.253c0.05,7.058,4.75,11.882,10.965,11.898c6.414,0.017,10.965-4.992,11.008-12.276
			C-19.551,132.319-19.593,123.135-19.591,113.951z M-19.787,35.776c0.677-5.388-0.422-9.784-4.964-12.659
			c-3.861-2.444-7.965-2.447-11.787,0.066c-4.457,2.932-5.612,7.285-4.79,12.593C-34.175,35.776-27.195,35.776-19.787,35.776z
			 M-298.788,35.644c7.382,0,14.461,0,21.5,0c0.639-8.645-3.824-14.364-10.844-14.307
			C-295.196,21.396-299.503,27.066-298.788,35.644z M-166.412,212.8c0,4.783,0,9.447,0,14.292c4.789,0,9.348,0,14.187,0
			c0-4.778,0-9.441,0-14.292C-157.027,212.8-161.576,212.8-166.412,212.8z"/>
		<path fill="#E1E3ED" d="M-143.203,385.859c0.909-1.284,1.657-2.729,2.752-3.828c18.357-18.425,36.753-36.813,55.153-55.196
			c5.287-5.282,8.544-5.281,13.84-0.003c6.196,6.175,12.361,12.38,18.711,18.744c1.322-1.265,2.471-2.324,3.575-3.427
			c17.278-17.269,34.546-34.549,51.827-51.815c5.587-5.582,8.861-5.564,14.476,0.046c9.544,9.537,19.077,19.085,29.153,29.168
			c0.187-1.717,0.396-2.745,0.396-3.774c0.019-21.411,0.03-42.822,0.005-64.233c-0.008-7.001-2.609-9.563-9.707-9.566
			c-39.661-0.016-79.322-0.007-118.983-0.01c-1.437,0-2.883,0.071-4.308-0.06c-3.8-0.351-6.424-3.013-6.679-6.652
			c-0.268-3.823,2.117-7.049,5.96-7.771c1.534-0.288,3.148-0.202,4.725-0.202c39.517-0.009,79.034-0.013,118.552-0.004
			c16.29,0.004,25.138,8.78,25.14,24.938c0.007,57.048,0.008,114.097-0.001,171.145c-0.002,15.651-8.954,24.636-24.535,24.638
			c-57.193,0.008-114.385,0.007-171.578,0c-15.679-0.002-24.589-8.898-24.594-24.542c-0.009-27.59-0.003-55.18-0.003-82.771
			c0-0.575-0.008-1.15,0.003-1.724c0.103-5.413,2.943-8.64,7.513-8.544c4.406,0.093,7.136,3.214,7.153,8.443
			c0.046,13.939,0.017,27.878,0.017,41.816c0,1.413,0,2.826,0,4.239C-144.159,385.228-143.681,385.544-143.203,385.859z
			 M-78.859,340.193c-1.255,1.649-2.084,3.034-3.189,4.143c-16.843,16.897-33.736,33.744-50.581,50.639
			c-4.041,4.054-9.493,7.618-11.483,12.543c-2,4.951-0.554,11.319-0.507,17.066c0.048,5.955,2.771,8.704,8.756,8.707
			c57.919,0.026,115.838,0.026,173.757,0c5.967-0.003,8.767-2.756,8.778-8.714c0.049-27.019,0.045-54.039-0.039-81.058
			c-0.004-1.42-0.507-3.232-1.454-4.197c-11.573-11.792-23.272-23.46-34.501-34.721c-17.462,17.466-34.769,34.777-52.185,52.198
			c12.537,12.53,25.444,25.43,38.351,38.33c1.016,1.016,2.073,1.995,3.038,3.059c3.188,3.515,3.281,7.84,0.272,10.784
			c-2.994,2.93-7.331,2.842-10.736-0.528c-11.134-11.019-22.184-22.124-33.26-33.202C-55.216,363.865-66.581,352.482-78.859,340.193
			z"/>
	</g>
</g>
<g>
	<defs>
		<path id="SVGID_5_" d="M500,446.442C500,488.172,466.172,522,424.442,522H201.221c-41.729,0-75.558-33.828-75.558-75.558V75.667
			c0-41.729,33.828-75.558,75.558-75.558h223.222C466.172,0.109,500,33.937,500,75.667V446.442z"/>
	</defs>
	<clipPath id="SVGID_4_">
		<use xlink:href="#SVGID_5_"  overflow="visible"/>
	</clipPath>
	<g clip-path="url(#SVGID_4_)">
		<path fill="#E1E3ED" d="M340.056,31.146c9.174,3.109,18.592,5.645,27.475,9.435c24.401,10.413,44.245,26.797,59.696,48.286
			c17.412,24.216,26.732,51.372,27.391,81.237c0.829,37.614-11.073,70.81-35.59,99.417c-1.751,2.043-3.559,4.035-5.045,5.716
			c5.216,7.15,10.286,14.098,16.151,22.137c1.167-1.153,2.62-2.999,4.451-4.319c5.015-3.615,9.089-2.885,12.936,2.034
			c0.333,0.425,0.639,0.871,0.958,1.308c27.588,37.743,55.19,75.475,82.755,113.235c10.241,14.028,11.723,28.879,4.001,44.567
			c-10.09,20.5-39.367,27.988-57.8,14.439c-4.489-3.299-8.669-7.393-11.973-11.871c-27.356-37.074-54.473-74.325-81.662-111.523
			c-5.833-7.981-5.35-11.189,2.54-17.001c0.972-0.716,1.917-1.468,2.491-1.909c-5.118-7.03-10.163-13.96-15.541-21.347
			c-0.77,0.331-2.355,0.981-3.915,1.687c-31.569,14.271-64.206,17.23-97.646,8.338c-35.606-9.468-63.754-29.698-84.303-60.375
			c-15.18-22.662-23.088-47.711-24.373-74.865c-0.305-6.444,0.108-12.922,0.191-19.385c0.913-5.875,1.827-11.751,2.74-17.626
			c1.999-6.416,3.721-12.934,6.046-19.23c9.923-26.88,26.428-48.988,49.316-66.159c20.911-15.687,44.406-25.431,70.485-28.087
			c10.125-1.031,20.396-0.627,30.6-0.877C328.305,29.319,334.18,30.233,340.056,31.146z M180.648,154.065
			c-10.959,70.289,37.674,137.049,107.862,148.066c70.808,11.115,137.445-37.421,148.509-108.168
			c11.016-70.436-37.733-137.165-108.228-148.146C258.32,34.84,191.64,83.563,180.648,154.065z M428.31,378.411
			c17.251,23.672,34.497,47.343,51.757,71.003c0.554,0.76,1.234,1.429,1.875,2.123c10.155,11.005,27.785,10.177,36.875-1.729
			c7.01-9.181,6.808-20.368-0.71-30.692c-16.37-22.477-32.798-44.912-49.207-67.361c-0.52-0.711-1.101-1.378-1.52-1.9
			C454.248,359.454,441.403,368.841,428.31,378.411z M399.853,339.13c6.222,8.523,12.408,16.999,18.239,24.987
			c12.889-9.412,25.897-18.911,38.126-27.841c-5.979-8.199-12.218-16.754-18.244-25.018
			C425.556,320.337,412.736,329.711,399.853,339.13z M401.473,288.189c-3.878,2.856-8.147,6-11.638,8.57
			c4.308,5.937,8.952,12.337,13.519,18.631c3.763-2.746,7.891-5.758,11.771-8.589C410.457,300.437,405.764,294.039,401.473,288.189z
			"/>
		<path fill="#E1E3ED" d="M420.968,191.294c-9.399,61.667-67.622,104.359-129.418,94.897
			c-61.67-9.442-104.268-67.578-94.858-129.457c9.375-61.649,67.584-104.33,129.431-94.904
			C387.767,71.224,430.4,129.417,420.968,191.294z M212.737,159.082c-8.208,52.918,28.165,102.735,81.067,111.034
			c52.859,8.292,102.674-28.013,111.102-80.97c8.422-52.918-28.25-103.156-81.234-111.286
			C270.738,69.737,220.94,106.197,212.737,159.082z"/>
		<path fill="#E1E3ED" d="M318.543,93.163c2.113,0.799,4.497,1.216,6.278,2.481c3.019,2.145,4.01,5.359,2.736,8.969
			c-1.309,3.709-4.564,5.289-9.049,5.297c-7.51,0.013-15.194-0.588-22.493,0.759c-18.444,3.405-32.506,13.745-42.486,29.62
			c-0.86,1.368-1.605,2.818-2.566,4.109c-2.9,3.901-7.271,4.831-11.002,2.434c-3.7-2.377-5.159-7.054-2.43-10.966
			c5.137-7.364,10.03-15.204,16.502-21.272C272.033,97.718,293.828,91.035,318.543,93.163z"/>
		<path fill="#E1E3ED" d="M237.298,163.62c4.303,0.724,7.355,4.953,6.625,9.18c-0.729,4.222-5.054,7.307-9.26,6.605
			c-4.259-0.711-7.25-4.935-6.542-9.241C228.837,165.812,232.939,162.887,237.298,163.62z"/>
	</g>
</g>
</svg>
