<?xml version="1.0" encoding="utf-8"?>
<!-- Generator: Adobe Illustrator 17.0.0, SVG Export Plug-In . SVG Version: 6.00 Build 0)  -->
<!DOCTYPE svg PUBLIC "-//W3C//DTD SVG 1.1//EN" "http://www.w3.org/Graphics/SVG/1.1/DTD/svg11.dtd">
<svg version="1.1" id="Layer_1" xmlns="http://www.w3.org/2000/svg" xmlns:xlink="http://www.w3.org/1999/xlink" x="0px" y="0px"
	 width="500px" height="500px" viewBox="0 0 500 500" enable-background="new 0 0 500 500" xml:space="preserve">
<g>
	<defs>
		<path id="SVGID_5_" d="M-22-75.558C-22-33.828-55.828,0-97.558,0h-223.222c-41.729,0-75.558-33.828-75.558-75.558v-370.776
			c0-41.729,33.828-75.558,75.558-75.558h223.222c41.729,0,75.558,33.828,75.558,75.558V-75.558z"/>
	</defs>
	<clipPath id="SVGID_2_">
		<use xlink:href="#SVGID_5_"  overflow="visible"/>
	</clipPath>
</g>
<g>
	<defs>
		<path id="SVGID_9_" d="M476.889,724.903c0,50.585-41.007,91.593-91.593,91.593H114.703c-50.585,0-91.593-41.007-91.593-91.593
			v-868.626c0-50.585,41.007-91.593,91.593-91.593h270.594c50.585,0,91.593,41.007,91.593,91.593V724.903z"/>
	</defs>
	<clipPath id="SVGID_4_">
		<use xlink:href="#SVGID_9_"  overflow="visible"/>
	</clipPath>
	<g clip-path="url(#SVGID_4_)">
		<path fill="#E1E3ED" d="M405.903,296.306c25.436-3.504,41.068,4.709,53.293,27.378c0.832,1.543,3.417,2.97,5.226,3.018
			c10.555,0.283,21.121,0.139,32.135,0.139c0,47.839,0,95.271,0,143.098c-164.323,0-328.618,0-493.243,0
			c0-47.641,0-95.083,0-143.084c10.66,0,20.984,0,30.008,0c1.934-11.079,2.597-21.746,5.753-31.616
			c8.377-26.198,31.199-42.084,56.585-39.571c21.49,2.127,35.257,15.299,44.37,34.039c1.009,2.074,1.783,4.263,2.785,6.686
			c2.168-0.327,4.236-0.719,6.322-0.939c19.337-2.043,36.445,7.82,46.1,26.934c1.687,3.339,3.503,4.567,7.271,4.546
			c30.156-0.163,60.313-0.088,90.469-0.1c1.588-0.001,3.175-0.139,5.154-0.232c-0.892-12.723,0.638-24.818,5.708-36.362
			c10.189-23.199,31.172-36.939,54.787-34.577c21.236,2.124,35.027,14.997,44.225,33.47
			C403.96,291.357,404.809,293.714,405.903,296.306z M19.153,342.87c-0.161,1.558-0.362,2.601-0.362,3.644
			c-0.018,34.468,0.065,68.937-0.115,103.405c-0.024,4.654,2.29,4.651,5.657,4.65c150.441-0.041,300.881-0.056,451.322,0.059
			c4.566,0.004,5.675-1.398,5.653-5.786c-0.167-33.57-0.088-67.141-0.104-100.712c-0.001-1.577-0.176-3.153-0.276-4.827
			c-5.533,0-10.753,0-15.98,0c1.67,32.164-10.76,51.993-39.655,63.016c0,10.449,0,21.131,0,31.969c-5.519,0-10.446,0-15.899,0
			c0-10.998,0-21.696,0-32.424c-16.215-3.827-26.693-14.057-33.949-27.949c-4.828,1.597-9.184,3.037-14.125,4.671
			c0,18.651,0,37.203,0,55.707c-5.473,0-10.255,0-15.584,0c0-18.889,0-37.482,0-55.894c-22.126-6.768-33.819-16.513-41.966-35.262
			c-1.452-3.34-3.134-4.382-6.732-4.363c-30.159,0.16-60.319,0.087-90.479,0.103c-1.568,0.001-3.136,0.17-4.997,0.277
			c0,5.575,0.64,10.859-0.111,15.938c-3.226,21.829-13.792,38.281-35.56,45.674c-3.192,1.084-3.567,2.688-3.539,5.423
			c0.095,9.284,0.036,18.569,0.036,28.079c-5.61,0-10.521,0-15.939,0c0-9.62-0.104-18.919,0.06-28.213
			c0.052-2.956-0.874-4.106-3.75-5.291c-5.57-2.295-11.441-4.767-15.889-8.652c-5.701-4.979-10.122-11.424-15.503-17.716
			c-3.597,1.126-8.119,2.541-13.02,4.075c0,18.651,0,37.078,0,55.756c-5.398,0-10.301,0-15.673,0c0-2.317,0-4.268,0-6.218
			c-0.001-15.259,0.081-30.52-0.124-45.777c-0.021-1.592-1.442-4.242-2.702-4.58c-19.344-5.195-31.906-17.755-39.859-35.641
			c-0.584-1.313-2.289-2.927-3.553-2.999C30.761,342.687,25.056,342.87,19.153,342.87z M130.49,319.372
			c-0.348-14.151-4.334-26.696-14.238-36.878c-14.25-14.649-35.205-15.121-50.09-1.244c-20.73,19.325-20.506,56.799,0.453,75.835
			c14.217,12.912,34.148,12.861,48.163-0.27C125.627,346.651,129.968,333.693,130.49,319.372z M370.426,362.152
			c-2.687-20.006,1.353-37.43,14.496-52.187c6.885-7.73,7.301-7.832,1.795-16.956c-2.916-4.832-6.528-9.522-10.739-13.244
			c-12.493-11.041-29.537-11.428-43.046-1.616c-25.818,18.754-25.397,64.119,0.887,82.183
			C345.484,368.35,357.723,368.801,370.426,362.152z M385.573,348.734c-0.029,13.167,3.157,23.415,10.791,31.974
			c10.979,12.309,27.643,13.205,39.738,2.299c17.616-15.885,17.421-49.077-0.38-64.725c-11.277-9.913-26.519-9.695-37.437,0.748
			C389.348,327.578,385.777,338.409,385.573,348.734z M186.322,351.128c-0.413-11.475-3.314-21.839-11.107-30.292
			c-6.403-6.945-14.204-10.648-23.94-9.561c-3.647,0.407-5.113,1.665-5.018,5.743c0.434,18.674-5.361,35.175-18.091,49.093
			c-0.911,0.996-1.889,3.006-1.481,3.972c8.546,20.25,29.56,26.733,44.906,14.128C182.03,375.638,185.727,363.917,186.322,351.128z"
			/>
		<path fill="#E1E3ED" d="M98.857,34.147c-7.357,0-14.37,0-21.698,0c0-3.708,0-7.135,0-10.841c18.329,0,36.629,0,55.244,0
			c0,3.464,0,6.889,0,10.797c-7.329,0-14.557,0-21.931,0c0,7.984,0,15.493,0,23.335c8.147,2.029,16.296,4.05,24.441,6.089
			c17.3,4.331,34.606,8.638,51.886,13.048c2.212,0.565,3.569,0.431,4.982-1.707c3.114-4.712,7.747-7.019,13.428-7.099
			c2.003-0.028,4.006-0.005,5.527-0.005c1.876-3.756,3.211-7.342,5.298-10.418c4.781-7.049,11.649-11.297,20.131-11.772
			c9.152-0.513,18.409-0.764,27.522,0.019c12.162,1.044,20.267,8.028,24.206,19.672c0.241,0.713,0.511,1.416,0.899,2.484
			c1.653,0,3.378,0.026,5.102-0.005c6.273-0.111,11.09,2.478,14.853,7.491c0.709,0.944,2.765,1.65,3.929,1.364
			c24.886-6.099,49.738-12.334,74.567-18.659c0.972-0.248,2.331-1.635,2.356-2.524c0.196-6.907,0.108-13.822,0.108-21.2
			c-7.427,0-14.661,0-22.143,0c0-3.908,0-7.35,0-10.966c18.54,0,36.848,0,55.386,0c0,3.548,0,6.888,0,10.77
			c-7.215,0-14.427,0-21.999,0c0,7.674-0.061,14.817,0.084,21.956c0.017,0.816,1.027,1.866,1.845,2.37
			c6.832,4.212,10.061,10.207,8.924,17.25c-1.266,7.845-6.065,12.356-13.667,14.248c-28.028,6.976-56.036,14.03-84.069,20.986
			c-2.213,0.549-3.589,1.424-4.685,3.632c-2.927,5.893-8.044,9.072-14.577,9.099c-29.818,0.123-59.638,0.121-89.456,0.008
			c-6.692-0.025-11.861-3.277-14.828-9.325c-1.028-2.097-2.391-2.875-4.434-3.383c-28.156-7.004-56.299-14.057-84.444-21.103
			c-7.57-1.895-12.343-6.898-13.426-14.047c-1.082-7.148,1.977-12.926,8.917-17.223c0.876-0.542,1.833-1.79,1.858-2.735
			c0.165-6.287,0.093-12.58,0.079-18.87C99.068,36.141,98.957,35.397,98.857,34.147z M249.599,112.393
			c14.579,0,29.159,0.019,43.738-0.011c4.898-0.01,6.914-1.94,6.983-6.812c0.093-6.534,0.079-13.071,0.008-19.606
			c-0.056-5.193-1.892-7.026-7.117-7.031c-28.782-0.031-57.563-0.03-86.345-0.001c-5.397,0.006-7.135,1.825-7.179,7.348
			c-0.049,6.158-0.04,12.317-0.003,18.475c0.035,5.857,1.831,7.629,7.684,7.634C221.445,112.402,235.522,112.394,249.599,112.393z
			 M188.336,88.592c-1.156-0.354-2.215-0.732-3.301-1.004c-18.147-4.546-36.298-9.079-54.448-13.616
			c-7.918-1.979-15.823-4.008-23.757-5.921c-3.76-0.907-6.556,0.63-7.462,3.852c-0.876,3.116,0.936,5.834,4.655,6.973
			c0.36,0.11,0.731,0.18,1.097,0.272c20.348,5.068,40.697,10.134,61.044,15.205c7.272,1.812,14.542,3.637,22.172,5.546
			C188.336,95.818,188.336,92.248,188.336,88.592z M311.611,99.761c1.487-0.292,2.577-0.459,3.643-0.724
			c13.887-3.456,27.771-6.927,41.655-10.391c12.79-3.191,25.585-6.363,38.369-9.578c4.812-1.21,6.956-5.041,4.772-8.551
			c-1.829-2.942-4.548-3.065-7.631-2.281c-14.357,3.652-28.733,7.232-43.105,10.825c-12.527,3.132-25.059,6.248-37.704,9.399
			C311.611,92.187,311.611,95.673,311.611,99.761z M223.775,67.531c17.509,0,34.977,0,52.499,0
			c-1.496-5.971-7.188-10.664-13.862-10.885c-8.276-0.275-16.576-0.279-24.852,0.004C230.875,56.878,225.115,61.665,223.775,67.531z
			"/>
		<path fill="#E1E3ED" d="M226.674,203.424c5.755,5.829,11.476,11.623,17.632,17.859c0-28.924,0-57.387,0-86.167
			c3.839,0,7.267,0,11.25,0c0,28.581,0,57.138,0,86.199c6.231-6.315,11.942-12.103,17.768-18.009
			c2.902,3.132,5.319,5.739,7.485,8.077c-10.06,10.057-20.523,20.516-30.801,30.79c-10.046-10.146-20.518-20.723-30.845-31.152
			C221.16,209.002,223.604,206.53,226.674,203.424z"/>
		<path fill="#E1E3ED" d="M177.498,203.847c0-22.845,0-45.691,0-68.792c3.701,0,7.146,0,11.07,0c0,23.027,0,45.948,0,69.495
			c6.152-6.391,11.768-12.226,17.388-18.065c3.157,3.278,5.624,5.839,7.882,8.183c-10.13,10.107-20.611,20.564-30.849,30.778
			c-10.146-10.134-20.7-20.675-31.217-31.18c2.184-2.266,4.603-4.774,7.378-7.653c5.903,6.009,11.67,11.881,17.438,17.753
			C176.89,204.194,177.194,204.021,177.498,203.847z"/>
		<path fill="#E1E3ED" d="M323.588,187.612c5.659-5.877,11.318-11.754,17.152-17.813c2.807,2.955,5.27,5.548,7.512,7.908
			c-10.373,10.361-20.857,20.832-31.1,31.062c-10.257-10.249-20.722-20.705-31.166-31.141c2.122-2.107,4.579-4.548,7.606-7.554
			c5.399,5.83,10.972,11.847,16.545,17.865c0.4-0.259,0.801-0.518,1.201-0.776c0-19.159,0-38.318,0-57.766c3.857,0,7.288,0,11.176,0
			c0,19.285,0,38.562,0,57.839C322.873,187.36,323.23,187.486,323.588,187.612z"/>
	</g>
</g>
<g>
	<defs>
		<path id="SVGID_13_" d="M-24.095,432c0,48.136-39.022,87.158-87.158,87.158h-257.494c-48.136,0-87.158-39.022-87.158-87.158
			V85.158C-455.905,37.022-416.883-2-368.747-2h257.494c48.136,0,87.158,39.022,87.158,87.158V432z"/>
	</defs>
	<clipPath id="SVGID_6_">
		<use xlink:href="#SVGID_13_"  overflow="visible"/>
	</clipPath>
	<g clip-path="url(#SVGID_6_)">
		<path fill="#E1E3ED" d="M-110.78,23.132c7.927,3.456,10.859,9.662,10.219,18.043c-0.28,3.661,0.135,7.374-0.1,11.042
			c-0.206,3.23,0.809,4.37,4.192,4.314c11.635-0.192,23.275-0.107,34.912-0.063c12.929,0.05,19.528,6.695,19.58,19.649
			c0.026,6.469,0.005,12.938,0.005,20.121c3.464,0,6.635-0.015,9.805,0.003c5.155,0.029,10.32-0.113,15.462,0.159
			c12.064,0.637,21.604,8.939,23.385,20.844c1.763,11.787,2.996,23.657,4.311,35.507c0.478,4.307-2.169,7.538-5.96,7.862
			c-3.659,0.312-6.567-2.057-7.118-6.3c-1.289-9.925-2.48-19.866-3.526-29.82c-1.201-11.437-4.93-14.955-16.34-14.955
			c-71.595-0.003-143.19-0.003-214.785,0c-11.407,0.001-15.047,3.535-16.346,14.956c-3.659,32.176-7.483,64.334-11.229,96.5
			c-0.165,1.421-0.197,2.858-0.329,4.856c13.134-5.396,25.76-10.577,38.381-15.771c30.326-12.48,60.677-24.899,90.941-37.527
			c4.304-1.796,7.996-1.648,12.227,0.106C-81.659,189.835-40.167,206.87,1.31,223.94c1.343,0.553,2.705,1.058,4.765,1.861
			c-0.827-7.317-1.586-14.103-2.365-20.887c-0.722-6.288-1.502-12.57-2.189-18.862c-0.367-3.363,0.606-6.139,3.931-7.624
			c4.488-2.004,8.606,0.947,9.294,6.702c1.713,14.323,3.517,28.638,4.986,42.987c0.313,3.056,1.676,4.215,4.219,5.242
			c14.454,5.836,28.857,11.797,43.265,17.747c12.406,5.124,16.214,14.309,11.005,26.644c-20.708,49.043-41.442,98.075-62.16,147.114
			c-0.619,1.465-1.179,2.956-1.832,4.598c6.922,3.677,14.242,4.178,21.599,4.231c8.197,0.058,16.057-1.608,23.503-5.165
			c8.169-3.902,16.669-6.612,25.828-6.855c5.064-0.134,7.965,1.863,8.285,5.864c0.315,3.949-2.326,6.287-7.124,7.4
			c-7.388,1.714-14.963,3.169-21.939,6.008c-19.576,7.967-38.982,8.531-58.195-0.376c-12.404-5.751-25.109-7.279-38.278-4.485
			c-5.115,1.085-10.004,3.371-14.891,5.367c-18.498,7.555-37.128,7.931-55.304-0.306c-18.222-8.258-35.797-8.293-54.038-0.028
			c-18.804,8.52-38.091,8.12-56.894-0.399c-17.441-7.902-34.558-8.097-51.981,0.006c-5.136,2.389-10.765,4.102-16.35,5.067
			c-13.42,2.321-26.692,1.503-39.353-4.097c-7.692-3.402-15.38-6.54-24.004-6.91c-4.942-0.212-7.495-3.217-7.233-7.172
			c0.274-4.139,3.238-6.069,8.638-5.924c9.797,0.262,18.637,3.768,27.442,7.625c12.356,5.411,25.111,5.563,38.025,2.262
			c1.136-0.29,2.245-0.701,3.338-1.13c0.531-0.209,0.996-0.589,1.683-1.009c-0.515-1.401-0.955-2.766-1.511-4.082
			c-20.712-49.041-41.437-98.078-62.157-147.116c-5.47-12.946-1.825-21.918,11.099-27.256c14.407-5.951,28.804-11.928,43.259-17.76
			c2.459-0.992,3.553-2.237,3.868-5.009c3.954-34.81,8.195-69.587,12.061-104.406c1.208-10.878,4.38-20.358,15.1-25.036
			c3.902-1.703,8.508-2.19,12.837-2.426c7.021-0.384,14.079-0.103,21.742-0.103c0-7.119-0.468-13.881,0.166-20.538
			c0.416-4.359,1.692-9.003,3.905-12.735c2.971-5.009,8.391-6.545,14.184-6.519c11.932,0.055,23.868-0.132,35.796,0.095
			c3.756,0.071,4.922-1.156,4.642-4.767c-0.272-3.514,0.171-7.085-0.104-10.598c-0.658-8.388,2.314-14.576,10.217-18.045
			C-135.532,23.132-123.156,23.132-110.78,23.132z M56.877,294.093c-1.77-0.754-2.963-1.298-4.182-1.776
			c-59.552-23.374-119.096-46.768-178.7-70.005c-2.042-0.796-4.955-0.68-7.029,0.126c-41.944,16.306-83.824,32.78-125.72,49.208
			c-6.224,2.441-10.036,1.547-11.641-2.652c-1.578-4.127,0.681-7.303,6.99-9.776c42.447-16.638,84.92-33.211,127.31-49.994
			c4.721-1.869,8.757-1.873,13.481-0.008c58.001,22.899,116.069,45.625,174.123,68.39c3.404,1.335,6.83,2.611,10.565,4.036
			c1.206-2.8,2.309-5.339,3.394-7.885c2.938-6.893,2.468-8.042-4.457-10.889c-62.028-25.503-124.067-50.979-186.053-76.584
			c-3.15-1.301-5.651-1.213-8.74,0.065c-44.576,18.443-89.204,36.761-133.82,55.108c-17.955,7.384-35.901,14.789-53.873,22.13
			c-3.07,1.254-5.321,3.019-4.068,6.612c1.335,3.83,3.112,7.505,4.768,11.416c1.808-0.665,3.183-1.148,4.541-1.676
			c6.854-2.664,13.67-5.434,20.57-7.974c3.666-1.349,6.761-0.217,8.57,3.321c1.673,3.273,0.129,6.893-3.571,8.799
			c-1.301,0.67-2.708,1.138-4.074,1.679c-6.816,2.7-13.635,5.394-20.856,8.249c18.425,43.639,36.712,86.95,54.908,130.047
			c0.542,0.113,0.697,0.192,0.828,0.164c0.711-0.152,1.416-0.33,2.122-0.501c16.091-3.885,31.923-3.329,47.046,3.738
			c17.682,8.263,35.017,8.149,52.786,0.093c18.807-8.526,38.106-8.602,56.907-0.078c17.933,8.13,35.266,7.979,53.268,0.074
			c7.364-3.233,15.747-4.939,23.806-5.579c8.485-0.674,17.137,0.756,26.259,1.3C20.219,380.915,38.456,337.721,56.877,294.093z
			 M-55.235,96.007c0-6.537,0.004-12.563-0.001-18.589c-0.007-7.229-0.473-7.693-7.84-7.694c-44.186-0.003-88.372-0.002-132.558,0
			c-1.178,0-2.593-0.384-3.482,0.13c-1.582,0.914-3.987,2.32-4.055,3.624c-0.389,7.425-0.189,14.882-0.189,22.528
			C-153.825,96.007-104.845,96.007-55.235,96.007z M-114.217,36.676c-10.214,0-20.141,0-30.163,0c0,6.644,0,13.013,0,19.381
			c10.282,0,20.181,0,30.163,0C-114.217,49.389-114.217,43.127-114.217,36.676z"/>
		<path fill="#E1E3ED" d="M-301.727,475.746c-9.598-3.135-19.141-6.451-28.816-9.327c-4.759-1.415-9.736-2.176-14.66-2.937
			c-4.884-0.755-7.445-3.137-7.148-7.228c0.288-3.977,3.534-6.839,8.181-5.908c8.306,1.663,16.891,3.073,24.594,6.375
			c17.164,7.357,33.785,7.672,50.801-0.076c19.731-8.985,39.671-8.929,59.406,0.065c16.849,7.678,33.481,7.648,50.332-0.035
			c19.733-8.997,39.665-8.982,59.398,0.014c16.849,7.681,33.486,7.695,50.332,0.015c19.735-8.997,39.668-9.039,59.401-0.047
			c17.012,7.752,33.654,7.458,50.798,0.049c7.433-3.212,15.703-4.654,23.717-6.297c5.288-1.084,8.748,1.604,9.054,5.848
			c0.303,4.206-2.368,6.286-7.58,7.308c-6.588,1.292-13.076,3.158-19.539,5.014c-7.872,2.26-15.673,4.768-23.505,7.169
			c-5.009,0-10.019,0-15.028,0c-9.579-3.077-19.185-6.074-28.732-9.249c-12.693-4.221-25.286-4.181-37.975,0.112
			c-9.529,3.224-19.174,6.104-28.767,9.137c-4.715,0-9.429,0-14.144,0c-9.586-3.056-19.21-6-28.749-9.195
			c-12.689-4.25-25.284-4.258-37.975-0.001c-9.538,3.2-19.163,6.14-28.749,9.196c-5.009,0-10.019,0-15.028,0
			c-9.696-3.192-19.37-6.449-29.093-9.558c-12.264-3.922-24.508-3.815-36.754,0.29c-9.544,3.199-19.159,6.187-28.743,9.268
			C-291.708,475.746-296.717,475.746-301.727,475.746z"/>
	</g>
</g>
</svg>
