<?xml version="1.0" encoding="utf-8"?>
<!-- Generator: Adobe Illustrator 17.0.0, SVG Export Plug-In . SVG Version: 6.00 Build 0)  -->
<!DOCTYPE svg PUBLIC "-//W3C//DTD SVG 1.1//EN" "http://www.w3.org/Graphics/SVG/1.1/DTD/svg11.dtd">
<svg version="1.1" id="Layer_1" xmlns="http://www.w3.org/2000/svg" xmlns:xlink="http://www.w3.org/1999/xlink" x="0px" y="0px"
	 width="500px" height="500px" viewBox="0 0 500 500" enable-background="new 0 0 500 500" xml:space="preserve">
<g>
	<defs>
		<path id="SVGID_7_" d="M500,436.477c0,41.71-33.813,75.523-75.523,75.523H201.358c-41.71,0-75.523-33.813-75.523-75.523V84.139
			c0-41.71,33.813-75.523,75.523-75.523h223.119c41.71,0,75.523,33.813,75.523,75.523V436.477z"/>
	</defs>
	<clipPath id="SVGID_2_">
		<use xlink:href="#SVGID_7_"  overflow="visible"/>
	</clipPath>
	<path clip-path="url(#SVGID_2_)" fill="#E1E3ED" d="M199.891,121.53c0.277-0.781,0.607-1.547,0.823-2.344
		c3.811-14.069,14.79-22.707,29.405-22.761c26.127-0.097,52.254,0.02,78.381-0.113c2.36-0.012,4.991-0.706,7.03-1.888
		c31.153-18.056,62.231-36.242,93.313-54.419c1.157-0.676,2.187-1.568,3.276-2.36c1.678,0,3.355,0,5.033,0
		c8.555,5.166,17.056,10.424,25.675,15.481c23.594,13.846,47.214,27.65,70.905,41.33c2.04,1.178,4.677,1.843,7.042,1.856
		c24.172,0.133,48.345,0.081,72.518,0.081c21.374,0,28.8,5.172,36.089,25.135c0,81.928,0,163.855,0,245.783
		c-0.445,1.297-0.921,2.585-1.332,3.893c-3.615,11.521-13.434,19.529-25.423,20.636c-2.36,0.218-4.743,0.259-7.116,0.259
		c-48.353,0.014-96.705,0.011-145.058,0.011c-1.782,0-3.565,0-6.044,0c4.277,12.749,8.337,24.85,12.496,37.246
		c6.079,0,12.071-0.029,18.062,0.006c10.597,0.062,18.396,6.318,20.002,15.997c1.539,9.273-3.933,17.588-13.872,21.108
		c-0.375,0.133-0.689,0.44-1.032,0.666c-43.62,0-87.24,0-130.86,0c-3.919-2.739-8.624-4.823-11.577-8.367
		c-4.633-5.56-4.754-12.42-1.465-18.942c3.277-6.498,8.749-10.118,16.052-10.386c6.552-0.24,13.119-0.051,20.108-0.051
		c4.099-12.155,8.175-24.243,12.471-36.982c-2.147-0.114-3.855-0.284-5.564-0.285c-49.05-0.014-98.099,0.001-147.149-0.02
		c-14.748-0.006-25.508-6.78-30.188-18.916c-0.744-1.929-1.34-3.915-2.004-5.875c0-54.246,0-108.491,0-162.737
		c4.288-4.691,8.931-5.227,11.358-1.031c0.97,1.677,1.174,3.985,1.177,6.006c0.061,50.328,0.042,100.657,0.052,150.985
		c0.002,12.137,6.747,18.974,18.945,18.977c122.186,0.026,244.372,0.027,366.559-0.003c12.172-0.003,18.813-6.848,18.814-19.102
		c0.006-77.45,0.007-154.9-0.001-232.349c-0.001-12.193-6.773-19.054-18.851-19.073c-18.034-0.029-36.069-0.008-54.103-0.008
		c-1.183,0-2.366,0-3.548,0c5.581,4.312,11.372,7.807,17.296,11.062c1.62,0.89,3.632,1.464,5.473,1.488
		c10.483,0.139,20.969,0.065,31.454,0.068c8.121,0.003,9.709,1.611,9.709,9.849c0.001,75.213,0.001,150.426-0.001,225.639
		c0,1.258,0.076,2.526-0.051,3.772c-0.34,3.328-2.134,5.718-5.516,5.793c-9.078,0.2-18.169,0.217-27.245-0.032
		c-3.401-0.093-5.205-2.621-5.233-5.977c-0.028-3.364,1.772-5.55,5.148-6.112c1.64-0.273,3.34-0.249,5.013-0.259
		c4.979-0.03,9.958-0.011,15.071-0.011c0-73.592,0-146.632,0-220.079c-9.696,0-19.169-0.123-28.635,0.086
		c-2.377,0.052-4.999,0.7-7.051,1.873c-14.79,8.454-29.421,17.187-44.208,25.645c-2.872,1.643-4.044,3.41-4.018,6.839
		c0.198,25.722,0.088,51.447,0.262,77.169c0.03,4.466-1.618,7.18-5.468,9.407c-27.32,15.802-54.586,31.698-81.745,47.773
		c-4.302,2.546-7.698,2.477-11.96-0.043c-26.805-15.851-53.685-31.58-80.687-47.093c-4.77-2.74-6.473-6.047-6.418-11.447
		c0.26-25.441,0.185-50.887,0.168-76.33c-0.001-1.443-0.052-3.65-0.914-4.204c-5.659-3.635-11.547-6.913-18.009-10.687
		c0,2.517,0,4.039,0,5.561c-0.001,16.776,0.025,33.552-0.015,50.328c-0.015,6.37-1.963,8.322-8.236,8.37
		c-6.85,0.053-13.701,0.035-20.551,0.006c-6.886-0.029-8.694-1.831-8.698-8.675c-0.012-23.207-0.005-46.414-0.005-69.621
		c0-1.498,0-2.996,0-4.633c-9.438,0-18.412,0-27.301,0c0,73.378,0,146.433,0,219.756c2.238,0,4.187,0,6.135,0
		c98.14,0,196.281-0.002,294.421,0.015c2.088,0,4.226-0.022,6.252,0.397c3.161,0.654,4.772,3.018,4.678,6.095
		c-0.093,3.063-1.796,5.313-5.007,5.837c-1.777,0.29-3.62,0.23-5.433,0.23c-101.216,0.009-202.432,0.008-303.648,0.008
		c-0.979,0-1.958,0.026-2.936-0.01c-5.147-0.189-7.319-2.341-7.32-7.557c-0.02-76.611-0.019-153.222-0.002-229.833
		c0.001-5.609,2.248-7.798,7.933-7.833c7.409-0.046,14.864-0.525,22.217,0.114c9.798,0.853,18.414-1.347,26.243-7.223
		c2.428-1.822,5.177-3.216,7.779-4.806c-19.665-0.715-38.951-0.744-58.238-0.704c-11.557,0.024-18.492,7.001-18.513,18.57
		c-0.029,15.937-0.039,31.875,0.016,47.812c0.012,3.527-0.238,6.786-4.099,8.324c-3.923,1.563-6.248-0.873-8.508-3.446
		C199.891,160.677,199.891,141.104,199.891,121.53z M349.134,165.674c20.617,12.043,41.28,24.01,61.811,36.198
		c2.841,1.687,4.819,1.554,7.499-0.104c7.122-4.406,14.41-8.547,21.668-12.731c4.483-2.584,8.282-1.974,10.175,1.499
		c1.82,3.337,0.461,6.784-3.767,9.271c-9.026,5.309-18.128,10.492-27.095,15.9c-3.416,2.06-6.387,1.884-9.762-0.1
		c-23.471-13.8-47.003-27.498-70.521-41.218c-1.404-0.819-2.864-1.543-4.885-2.626c0,1.972,0.002,3.313,0,4.654
		c-0.029,21.386,0.001,42.772-0.158,64.157c-0.022,2.995,0.757,4.717,3.462,6.28c24.541,14.182,49.011,28.489,73.417,42.903
		c2.62,1.548,4.484,1.623,7.125,0.064c24.53-14.476,49.143-28.813,73.75-43.16c1.848-1.078,3.348-1.922,3.328-4.64
		c-0.168-22.783-0.145-45.567-0.189-68.35c-0.001-0.404-0.109-0.809-0.269-1.928c-4.155,2.409-8.067,4.674-11.975,6.945
		c-3.018,1.754-6.009,3.557-9.054,5.262c-4.099,2.295-7.51,1.707-9.529-1.556c-2.081-3.362-0.898-6.918,3.321-9.393
		c15.417-9.04,30.867-18.023,46.302-27.032c10.246-5.98,20.487-11.969,31.297-18.284c-1.431-0.946-2.479-1.715-3.595-2.367
		c-41.229-24.092-82.471-48.16-123.678-72.291c-2.112-1.237-3.753-1.59-6.061-0.236c-41.548,24.375-83.15,48.657-124.736,72.967
		c-0.814,0.476-1.571,1.047-2.883,1.929C306.228,140.602,327.679,153.142,349.134,165.674z M443.527,429.136
		c-2.418-7.199-4.719-14.041-7.013-20.885c-1.464-4.365-3.005-8.707-4.338-13.112c-0.66-2.183-1.712-3.115-4.127-3.078
		c-8.942,0.137-17.889-0.035-26.828,0.155c-1.281,0.027-3.305,1.128-3.681,2.192c-3.946,11.178-7.629,22.449-11.366,33.701
		c-0.077,0.232,0.068,0.538,0.142,1.028C405.187,429.136,424.086,429.136,443.527,429.136z M355.944,441.944
		c-1.257,0-2.542-0.108-3.766,0.11c-3.293,0.585-5.302,2.623-5.396,5.974c-0.101,3.56,1.917,5.737,5.382,6.412
		c1.216,0.237,2.507,0.109,3.764,0.11c39.135,0.004,78.271,0.004,117.406,0c1.257,0,2.548,0.126,3.765-0.108
		c3.467-0.666,5.488-2.835,5.395-6.398c-0.087-3.354-2.087-5.395-5.379-5.988c-1.222-0.22-2.509-0.111-3.766-0.111
		c-19.568-0.005-39.135-0.004-58.703-0.004C395.079,441.941,375.512,441.939,355.944,441.944z M289.912,204.654
		c0.081-1.601,0.22-3.074,0.221-4.547c0.015-16.741-0.069-33.483,0.082-50.223c0.028-3.042-0.791-4.915-3.582-6.22
		c-2.839-1.328-5.485-3.071-8.631-4.87c0,22.214,0,43.776,0,65.86C282.028,204.654,285.741,204.654,289.912,204.654z"/>
</g>
<g>
	<defs>
		<path id="SVGID_11_" d="M365.051,1165.886c0,40.694-32.989,73.683-73.683,73.683H73.683C32.989,1239.57,0,1206.581,0,1165.886
			V467.104c0-40.694,32.989-73.683,73.683-73.683h217.684c40.694,0,73.683,32.989,73.683,73.683V1165.886z"/>
	</defs>
	<clipPath id="SVGID_4_">
		<use xlink:href="#SVGID_11_"  overflow="visible"/>
	</clipPath>
</g>
</svg>
