<svg xmlns="http://www.w3.org/2000/svg" viewBox="0 0 314.59 95.26">
 <g fill="#0a3c87">
  <path d="M200.61,0l-1.63,2h-42c-13.39,0.31-24.43,11.56-24.43,25.01c0,2.55,0.4,5.01,1.12,7.32l6.31-6.33h33 l-8,8h-33.13c-1-2.81-1.55-5.83-1.55-8.99C130.3,12.13,142.41,0,157.29,0C157.3,0,200.61,0,200.61,0z"/>
  <polygon points="195.98,5 192.98,8 159.98,8 162.98,5"/>
  <polygon points="189.98,11 185.98,15 152.98,15 156.98,11"/>
  <path d="M182.75,18c1,2.82,1.55,5.86,1.55,9.01c0,14.51-11.51,26.4-25.88,26.99h-44.44l14-14h33l-12,12h9 c13.39-0.3,24.07-11.53,24.07-24.99c0-2.54-0.4-5-1.12-7.32V18H182.75z"/>
  <polygon points="180.93,18 180.93,19.69 176.98,24 143.98,24 149.98,18"/>
  <path d="M16.37,80.92v0.11c0,5.16-3.58,8.96-9.23,8.96H0V72h7.1C12.8,72,16.37,75.85,16.37,80.92z M10.2,80.94 c0-3.12-1.21-4.56-3.16-4.56H5.97v9.25h1.1c1.92,0,3.13-1.5,3.13-4.56V80.94z"/>
  <path d="M31.32,76.37H23.9v3.51h6.85v4.38H23.9V90h-5.97V72h13.39V76.37z"/>
  <path d="M32,87.57l2.62-3.73c1.61,1.26,3.54,2,5.37,2c1.35,0,1.98-0.4,1.98-1.09c0-1.03-1.37-1.42-3.88-2.18 c-3.09-0.91-5.11-2.31-5.11-5.12c0-3.55,3.25-5.71,7.69-5.71c2.95,0,5.62,0.96,7.53,2.73l-2.88,3.34 c-1.3-1.06-2.84-1.68-4.35-1.68c-1.24,0-1.98,0.41-1.98,1.1c0,0.83,1.05,1.11,3.28,1.74c3.23,0.93,5.71,2.29,5.71,5.81 c0,3.39-2.94,5.45-7.69,5.45C36.99,90.25,34.07,89.27,32,87.57z"/>
  <path d="M71.59,80.52v0.98c0,5.38-3.16,8.51-8.23,8.51h-5.22V72h5.45C68.37,72,71.59,75.14,71.59,80.52z M69.04,80.49c0-4.24-1.93-6.43-5.45-6.43h-2.88v13.88h2.65c3.83,0,5.69-2.41,5.69-6.45V80.49z"/>
  <path d="M85.01,84.05h-8.83c0.1,2.35,1.41,4.22,3.78,4.22c1.52,0,2.56-0.8,3.34-1.94l1.68,1.3 c-0.87,1.32-2.4,2.62-5.11,2.62c-3.78,0-6.17-2.7-6.17-6.45v-0.52c0-4.4,2.76-6.9,6.11-6.9c3.29,0,5.32,2.41,5.32,6.32 C85.14,83.21,85.1,83.68,85.01,84.05z M82.66,82.07V81.9c-0.12-1.69-0.78-3.55-3.08-3.55c-1.73,0-3.02,1.29-3.33,3.72H82.66z"/>
  <path d="M95.35,76.62h2.47V90h-2.47v-1.17c-0.82,0.9-2.03,1.42-3.68,1.42c-2.74,0-4.47-1.43-4.47-4.98v-8.64h2.47 v8.67c0,2.41,1.17,2.91,2.51,2.91c1.61,0,2.65-0.73,3.18-1.85V76.62z"/>
  <path d="M106.96,87.85v2.08c-0.43,0.06-1.14,0.15-2.2,0.15c-1.69,0-3.13-0.87-3.13-3.46v-8.21h-1.87v-1.83h1.87 v-3.21h2.47v3.21h2.65v1.83h-2.65v8.22c0,1.17,0.68,1.37,1.41,1.37C106.03,88,106.7,87.9,106.96,87.85z"/>
  <path d="M116.55,86.34c0-1.08-0.8-1.67-2.95-2.11c-3.1-0.64-4.55-1.9-4.55-3.92c0-2.27,1.94-3.93,4.83-3.93 c1.84,0,3.44,0.67,4.7,1.88l-1.34,1.52c-1.09-0.94-2.16-1.42-3.37-1.42c-1.46,0-2.35,0.73-2.35,1.88c0,1.03,0.61,1.52,2.66,1.99 c3.46,0.79,4.85,1.94,4.85,4.02c0,2.52-2.2,4.01-5.14,4.01c-2.32,0-4.28-0.93-5.48-2.65l1.71-1.32c1.08,1.43,2.35,1.99,3.8,1.99 C115.52,88.27,116.55,87.56,116.55,86.34z"/>
  <path d="M123.21,83.12v0.52c0,2.91,1.32,4.64,3.41,4.64c1.24,0,2.31-0.62,3.24-1.92l1.63,1.26 c-1.09,1.68-2.86,2.63-4.95,2.63c-3.33,0-5.81-2.57-5.81-6.61v-0.52c0-4.1,2.3-6.74,5.88-6.74c1.79,0,3.25,0.63,4.5,1.97 l-1.37,1.56c-0.9-1-1.99-1.55-3.14-1.55C124.52,78.36,123.21,80.13,123.21,83.12z"/>
  <path d="M143.71,81.22V90h-2.47v-8.8c0-1.98-0.88-2.78-2.57-2.78c-1.35,0-2.46,0.78-3.1,1.97V90h-2.47V71.01h2.47 v7.08c0.95-1.08,2.27-1.72,3.86-1.72C142.04,76.37,143.71,77.72,143.71,81.22z"/>
  <path d="M157.05,84.05h-8.83c0.1,2.35,1.41,4.22,3.78,4.22c1.52,0,2.56-0.8,3.34-1.94l1.68,1.3 c-0.87,1.32-2.4,2.62-5.11,2.62c-3.78,0-6.17-2.7-6.17-6.45v-0.52c0-4.4,2.76-6.9,6.11-6.9c3.29,0,5.32,2.41,5.32,6.32 C157.18,83.21,157.14,83.68,157.05,84.05z M154.71,82.07V81.9c-0.12-1.69-0.78-3.55-3.08-3.55c-1.73,0-3.02,1.29-3.33,3.72 H154.71z"/>
  <path d="M178.45,74.06h-8.46v6.01h7.23v2.05h-7.23V90h-2.57V72h11.03V74.06z"/>
  <path d="M183.3,71.13V90h-2.47V75v-3.87H183.3z"/>
  <path d="M194.23,76.62h2.47V90h-2.47v-1.17c-0.82,0.9-2.03,1.42-3.68,1.42c-2.75,0-4.48-1.43-4.48-4.98v-8.64 h2.47v8.67c0,2.41,1.17,2.91,2.51,2.91c1.61,0,2.65-0.73,3.18-1.85V76.62z"/>
  <path d="M207.79,76.62h2.47v12.71c0,3.72-2.14,5.93-5.74,5.93c-1.98,0-3.93-0.93-4.95-2.25l1.38-1.57 c0.99,1.19,2.2,1.78,3.62,1.78c1.99,0,3.2-1.31,3.2-3.46V88.5c-0.89,0.98-2.06,1.5-3.51,1.5c-3.28,0-5.43-2.65-5.43-6.66v-0.26 c0-4.12,2.09-6.7,5.4-6.7c1.47,0,2.66,0.49,3.54,1.47V76.62z M207.79,86.13v-5.97c-0.65-1.13-1.68-1.74-2.98-1.74 c-2.18,0-3.49,1.74-3.49,4.66v0.26c0,2.91,1.29,4.61,3.49,4.61C206.14,87.95,207.11,87.35,207.79,86.13z"/>
  <path d="M220.47,86.34c0-1.08-0.8-1.67-2.96-2.11c-3.1-0.64-4.55-1.9-4.55-3.92c0-2.27,1.94-3.93,4.83-3.93 c1.84,0,3.44,0.67,4.7,1.88l-1.34,1.52c-1.09-0.94-2.16-1.42-3.38-1.42c-1.46,0-2.35,0.73-2.35,1.88c0,1.03,0.61,1.52,2.66,1.99 c3.46,0.79,4.85,1.94,4.85,4.02c0,2.52-2.2,4.01-5.14,4.01c-2.32,0-4.28-0.93-5.48-2.65l1.71-1.32c1.08,1.43,2.35,1.99,3.8,1.99 C219.44,88.27,220.47,87.56,220.47,86.34z"/>
  <path d="M225.15,72.73c0-0.85,0.59-1.45,1.45-1.45c0.85,0,1.45,0.59,1.45,1.45c0,0.85-0.59,1.45-1.45,1.45 C225.75,74.17,225.15,73.58,225.15,72.73z M227.81,76.62V90h-2.47V76.62H227.81z"/>
  <path d="M232.66,83.12v0.52c0,2.91,1.32,4.64,3.41,4.64c1.24,0,2.31-0.62,3.24-1.92l1.63,1.26 c-1.09,1.68-2.86,2.63-4.95,2.63c-3.33,0-5.81-2.57-5.81-6.61v-0.52c0-4.1,2.3-6.74,5.88-6.74c1.79,0,3.25,0.63,4.5,1.97 l-1.37,1.56c-0.9-1-1.99-1.55-3.14-1.55C233.97,78.36,232.66,80.13,232.66,83.12z"/>
  <path d="M253.15,81.22V90h-2.47v-8.8c0-1.98-0.88-2.78-2.57-2.78c-1.35,0-2.46,0.78-3.1,1.97V90h-2.47V71.01h2.47 v7.08c0.95-1.08,2.27-1.72,3.86-1.72C251.48,76.37,253.15,77.72,253.15,81.22z"/>
  <path d="M266.5,84.05h-8.83c0.1,2.35,1.41,4.22,3.78,4.22c1.52,0,2.56-0.8,3.34-1.94l1.68,1.3 c-0.87,1.32-2.4,2.62-5.11,2.62c-3.78,0-6.17-2.7-6.17-6.45v-0.52c0-4.4,2.76-6.9,6.11-6.9c3.29,0,5.32,2.41,5.32,6.32 C266.62,83.21,266.59,83.68,266.5,84.05z M264.15,82.07V81.9c-0.12-1.69-0.78-3.55-3.08-3.55c-1.73,0-3.02,1.29-3.33,3.72H264.15 z"/>
  <path d="M275.51,76.55v2.26c-0.41-0.07-0.7-0.1-1.15-0.1c-1.47,0-2.41,0.68-2.91,1.74V90h-2.47V76.62h2.47v1.38 c0.67-1,1.66-1.63,3.03-1.63C274.79,76.37,275.35,76.47,275.51,76.55z"/>
  <path d="M285.38,76.62h2.47V90h-2.47v-1.17c-0.82,0.9-2.03,1.42-3.68,1.42c-2.75,0-4.48-1.43-4.48-4.98v-8.64 h2.47v8.67c0,2.41,1.17,2.91,2.51,2.91c1.61,0,2.65-0.73,3.18-1.85V76.62z"/>
  <path d="M301.1,81.22V90h-2.47v-8.8c0-1.98-0.88-2.78-2.57-2.78c-1.35,0-2.46,0.78-3.1,1.97V90h-2.47V76.62h2.46 l0.01,1.48c0.94-1.09,2.27-1.73,3.86-1.73C299.43,76.37,301.1,77.72,301.1,81.22z"/>
  <path d="M312.12,76.62h2.47v12.71c0,3.72-2.14,5.93-5.74,5.93c-1.98,0-3.93-0.93-4.95-2.25l1.38-1.57 c0.99,1.19,2.2,1.78,3.62,1.78c1.99,0,3.2-1.31,3.2-3.46V88.5c-0.89,0.98-2.06,1.5-3.51,1.5c-3.28,0-5.43-2.65-5.43-6.66v-0.26 c0-4.12,2.09-6.7,5.4-6.7c1.47,0,2.66,0.49,3.54,1.47V76.62z M312.12,86.13v-5.97c-0.66-1.13-1.68-1.74-2.98-1.74 c-2.18,0-3.49,1.74-3.49,4.66v0.26c0,2.91,1.29,4.61,3.49,4.61C310.46,87.95,311.44,87.35,312.12,86.13z"/>
 </g>
</svg>