<?xml version="1.0" standalone="no"?>
<!DOCTYPE svg PUBLIC "-//W3C//DTD SVG 20010904//EN"
 "http://www.w3.org/TR/2001/REC-SVG-20010904/DTD/svg10.dtd">
<svg version="1.0" xmlns="http://www.w3.org/2000/svg"
 width="784.000000pt" height="784.000000pt" viewBox="0 0 784.000000 784.000000"
 preserveAspectRatio="xMidYMid meet">
<metadata>
Created by potrace 1.14, written by Peter Selinger 2001-2017
</metadata>
<g transform="translate(0.000000,784.000000) scale(0.100000,-0.100000)"
fill="#000000" stroke="none">
<path d="M4075 7170 c3 -6 -1 -7 -9 -4 -9 4 -16 1 -16 -6 0 -7 -7 -10 -15 -6
-8 3 -15 1 -15 -4 0 -5 -10 -14 -22 -20 -22 -11 -22 -10 -4 4 11 9 15 16 9 16
-6 0 -21 -12 -33 -27 -12 -16 -19 -22 -15 -15 3 6 1 12 -5 12 -6 0 -13 -6 -16
-14 -3 -8 -12 -12 -19 -10 -7 3 -16 0 -20 -5 -3 -6 -11 -8 -17 -5 -6 4 -8 2
-5 -3 6 -10 -1 -14 -38 -22 -5 -1 -14 -9 -18 -17 -4 -8 -13 -14 -20 -14 -7 0
-6 4 3 10 10 7 11 10 2 10 -7 0 -15 -7 -18 -15 -4 -8 -10 -13 -14 -10 -5 3
-11 1 -15 -5 -4 -6 -11 -7 -17 -4 -7 5 -9 2 -5 -8 4 -12 1 -14 -15 -10 -14 3
-19 1 -14 -6 4 -7 2 -12 -3 -12 -6 0 -11 6 -11 13 0 6 -5 4 -11 -5 -5 -10 -19
-18 -31 -18 -13 0 -18 -5 -15 -14 4 -10 1 -13 -10 -9 -8 3 -19 0 -24 -8 -7
-12 -9 -12 -9 0 0 9 -5 7 -17 -6 -10 -10 -14 -12 -9 -3 5 8 -3 3 -17 -12 -27
-29 -44 -37 -31 -15 6 8 3 8 -9 -1 -9 -8 -22 -10 -28 -6 -7 4 -9 3 -6 -3 6
-10 -37 -33 -68 -37 -5 -1 -9 -7 -8 -14 2 -6 -4 -9 -12 -6 -8 4 -15 1 -15 -5
0 -6 -3 -11 -7 -10 -15 2 -53 -14 -53 -22 0 -5 -7 -6 -15 -3 -8 4 -17 -1 -21
-10 -5 -13 -9 -14 -20 -5 -12 10 -13 8 -8 -6 5 -13 4 -16 -4 -11 -7 4 -12 2
-12 -6 0 -9 -3 -9 -10 2 -9 13 -14 8 -12 -12 1 -3 -5 -9 -14 -12 -10 -4 -13
-2 -8 7 6 8 3 8 -9 -1 -9 -8 -21 -11 -26 -7 -6 3 -8 0 -5 -9 4 -10 0 -14 -12
-12 -18 3 -45 -14 -39 -25 2 -3 -10 -4 -26 -3 -26 2 -28 0 -17 -14 10 -12 10
-14 0 -8 -16 9 -54 -2 -47 -15 3 -5 -2 -6 -11 -2 -12 4 -15 3 -10 -5 5 -8 2
-10 -8 -6 -10 4 -16 1 -16 -7 0 -7 -3 -9 -7 -6 -3 4 -12 -1 -20 -11 -12 -16
-13 -16 -6 2 4 13 3 17 -5 12 -7 -4 -12 -14 -12 -23 0 -12 -3 -13 -14 -4 -16
14 -32 -2 -20 -20 5 -8 2 -9 -12 -1 -14 8 -27 4 -63 -20 -24 -17 -41 -25 -37
-17 4 8 0 5 -8 -5 -9 -11 -16 -16 -16 -12 0 4 -14 -3 -32 -15 -17 -13 -28 -18
-24 -11 4 7 2 12 -3 12 -6 0 -11 -10 -11 -22 0 -17 -3 -19 -9 -9 -6 10 -10 10
-16 1 -6 -9 -10 -9 -16 1 -6 10 -9 7 -10 -11 0 -14 -3 -20 -5 -13 -3 7 -12 9
-20 6 -7 -3 -12 -8 -9 -12 2 -4 -11 -14 -30 -23 -19 -8 -32 -12 -29 -7 3 5 -2
6 -10 3 -9 -3 -14 -10 -11 -14 2 -4 -3 -7 -13 -6 -9 0 -18 -3 -19 -8 -2 -14
-26 -26 -50 -26 -13 0 -23 -4 -23 -9 0 -5 -10 -11 -22 -13 -13 -2 -22 -9 -20
-17 3 -12 0 -12 -12 -1 -13 10 -16 10 -16 -3 0 -10 -7 -15 -20 -12 -13 2 -20
-2 -20 -11 0 -12 -4 -13 -22 -3 -22 12 -22 11 -8 -6 11 -14 11 -17 1 -11 -8 5
-17 3 -22 -5 -7 -11 -9 -11 -9 -1 0 7 -5 10 -10 7 -6 -4 -8 -11 -5 -16 6 -9
-8 -13 -34 -10 -7 2 -10 -2 -6 -8 3 -7 0 -8 -9 -5 -9 4 -16 1 -16 -6 0 -6 -6
-10 -12 -8 -7 3 -21 -5 -31 -16 -10 -12 -16 -15 -12 -8 9 18 -6 15 -22 -5 -8
-10 -12 -12 -8 -6 4 9 1 11 -9 7 -9 -3 -14 -9 -12 -13 3 -4 -4 -13 -16 -20
-11 -7 -17 -8 -13 -2 3 6 1 11 -4 11 -6 0 -11 -5 -11 -11 0 -6 -6 -9 -12 -6
-7 2 -21 -5 -30 -16 -10 -11 -18 -17 -18 -13 0 4 -10 1 -22 -6 -13 -7 -26 -11
-30 -10 -5 1 -8 -3 -8 -9 0 -5 -5 -7 -12 -3 -8 5 -9 2 -4 -11 5 -15 4 -16 -9
-5 -12 10 -15 10 -15 0 0 -8 -3 -11 -6 -7 -4 3 -14 -2 -23 -11 -9 -10 -11 -11
-6 -3 8 12 7 12 -11 3 -12 -6 -25 -8 -29 -4 -5 4 -5 2 -2 -4 4 -7 -1 -18 -10
-25 -14 -12 -16 -12 -9 0 6 9 5 12 -5 9 -8 -3 -13 -11 -11 -17 1 -7 -2 -10 -7
-7 -5 3 -14 -1 -21 -9 -7 -8 -16 -13 -20 -10 -16 10 -39 -7 -32 -23 5 -15 4
-15 -12 -2 -16 12 -20 12 -30 -1 -6 -9 -17 -14 -23 -12 -7 3 -13 0 -13 -6 0
-6 5 -11 11 -11 6 0 9 -9 6 -20 -3 -11 -1 -20 3 -20 5 0 7 -9 5 -20 -2 -11 1
-20 7 -20 6 0 5 -7 -3 -17 -10 -11 -10 -14 -1 -9 8 5 12 0 12 -13 0 -12 5 -21
11 -21 8 0 8 -5 -1 -15 -9 -11 -9 -15 -1 -15 7 0 10 -4 7 -9 -9 -15 5 -42 18
-34 6 4 5 -1 -3 -10 -10 -13 -11 -20 -2 -30 6 -8 8 -17 4 -20 -3 -4 -2 -7 4
-7 6 0 9 -9 6 -20 -3 -12 0 -20 7 -20 9 0 9 -4 2 -13 -12 -14 10 -51 24 -39 4
4 2 -1 -5 -10 -11 -15 -11 -18 0 -18 11 0 11 -2 -1 -10 -10 -6 -11 -10 -2 -10
6 0 12 -9 12 -20 0 -12 7 -33 16 -48 15 -25 15 -25 0 -8 -9 11 -16 15 -16 9 0
-20 25 -33 40 -20 10 9 11 9 6 0 -9 -16 10 -17 20 -2 4 8 9 7 15 -2 8 -12 10
-12 18 0 6 9 11 10 15 2 4 -6 12 -11 17 -11 6 0 7 6 3 13 -5 8 -2 8 9 -2 13
-10 17 -10 17 -1 0 9 3 10 13 1 10 -8 17 -7 27 2 10 9 11 9 6 0 -8 -15 3 -17
24 -3 9 6 17 5 22 -3 6 -9 10 -8 18 3 8 12 10 12 10 1 0 -11 3 -11 17 0 11 10
14 10 9 2 -9 -16 6 -17 22 -1 9 9 12 9 12 -1 0 -11 3 -11 17 0 11 10 14 10 9
2 -4 -7 -3 -13 3 -13 5 0 13 5 16 10 5 8 11 7 21 -1 11 -9 14 -8 14 2 0 12 2
12 9 0 6 -9 10 -10 16 -2 5 9 10 9 21 0 11 -9 14 -8 14 2 0 10 3 10 12 1 9 -9
15 -9 27 1 12 9 13 9 7 0 -9 -16 6 -17 22 -1 9 9 12 9 12 -1 0 -7 4 -10 9 -7
10 7 9 25 -2 44 -5 7 -3 12 3 12 7 0 6 8 -4 21 -8 12 -12 28 -9 37 5 11 3 13
-8 7 -11 -6 -12 -5 -2 5 10 11 9 16 -5 27 -10 9 -11 12 -2 7 12 -6 13 -5 4 7
-6 8 -10 22 -9 32 2 9 -1 17 -7 17 -5 0 -8 10 -6 23 2 15 -2 21 -12 19 -9 -1
-7 5 8 17 12 11 22 24 22 30 0 6 5 11 11 11 5 0 7 -5 3 -12 -4 -7 7 -2 24 11
18 12 37 19 42 16 6 -4 10 -3 9 2 -3 20 2 27 11 13 8 -13 10 -13 10 2 0 11 5
15 15 12 8 -4 15 -1 15 5 0 7 8 11 18 9 9 -2 16 2 15 9 -2 7 4 10 12 7 8 -4
15 -1 15 7 0 7 3 9 7 6 3 -4 15 1 26 10 15 13 18 14 12 3 -6 -10 -2 -9 12 3
11 10 30 19 42 20 15 1 20 6 16 16 -3 9 -3 12 1 8 4 -4 14 -1 22 6 13 10 14 9
7 -3 -7 -12 -6 -13 7 -3 8 7 17 11 20 8 3 -3 11 1 18 10 7 8 20 15 30 15 10 0
20 7 24 15 3 9 12 12 22 8 13 -5 16 -2 11 9 -4 13 -1 16 19 12 15 -3 27 1 30
10 3 9 12 12 21 9 11 -4 14 -2 9 5 -7 12 5 16 32 13 6 -1 12 3 12 10 0 6 8 9
20 6 10 -3 18 -2 17 2 -1 3 2 7 6 8 5 1 15 10 24 20 9 11 12 12 8 3 -4 -10 -2
-10 8 2 11 14 16 15 27 5 10 -9 11 -9 6 1 -4 6 -2 12 4 12 6 0 8 5 5 10 -3 6
-1 10 4 10 6 0 11 -5 11 -10 0 -6 6 -5 14 2 11 10 11 17 3 28 -7 8 -2 6 11 -4
13 -12 22 -14 22 -7 0 7 5 9 10 6 6 -3 10 -1 10 5 0 7 7 10 15 6 8 -3 14 0 12
7 -1 7 5 12 13 12 8 1 25 7 38 13 12 7 27 10 32 7 6 -3 7 1 4 9 -5 12 0 16 20
16 14 0 26 5 26 11 0 5 5 7 10 4 6 -3 10 -2 10 4 0 6 8 7 17 4 12 -5 15 -2 11
9 -5 11 0 15 15 14 14 -1 21 4 19 13 -3 12 0 12 12 1 12 -9 16 -10 16 0 0 7 7
10 16 6 14 -5 15 -4 4 9 -11 13 -10 14 3 9 9 -3 25 4 37 16 l22 22 -7 -24 -7
-23 17 23 c9 13 23 21 31 18 7 -3 17 1 21 9 5 8 19 16 32 18 13 2 29 11 36 20
9 13 14 14 25 4 10 -10 12 -8 7 11 -4 19 -3 21 9 11 11 -9 15 -8 20 5 3 9 10
16 16 16 5 0 6 -6 2 -12 -5 -9 -3 -9 9 1 9 7 14 18 10 25 -4 6 1 5 10 -3 13
-10 17 -10 17 -1 0 7 7 10 16 6 8 -3 12 -2 9 4 -3 6 -1 11 4 11 6 1 17 2 24 3
6 1 11 7 10 13 -1 6 6 9 17 6 12 -3 22 1 26 10 3 9 14 14 25 12 12 -3 19 2 19
12 0 13 3 13 16 3 12 -11 15 -11 12 1 -2 9 5 14 19 13 12 0 21 4 20 9 -1 6 9
13 23 17 14 4 24 11 23 17 -1 5 4 10 12 10 8 0 12 -5 9 -11 -3 -6 1 -3 9 6 8
10 17 15 20 11 4 -3 7 -1 7 7 0 10 3 10 15 0 13 -11 14 -10 9 4 -4 9 -3 16 2
15 20 -3 35 2 29 10 -3 6 3 8 14 6 11 -2 21 2 24 8 3 7 17 13 31 15 18 1 25
-2 20 -9 -4 -7 -1 -10 7 -7 8 3 20 -2 27 -11 8 -9 11 -10 7 -3 -3 6 -2 12 3
12 6 0 12 -7 15 -15 4 -8 15 -12 26 -10 13 2 26 -4 35 -16 10 -15 15 -17 19
-7 4 9 6 7 6 -4 1 -10 6 -18 12 -18 5 0 7 6 4 13 -4 6 0 4 8 -5 8 -10 22 -18
31 -18 10 0 14 -5 11 -10 -4 -6 -3 -10 2 -9 21 4 44 -2 39 -9 -7 -12 28 -11
35 0 3 5 9 2 12 -7 5 -11 3 -14 -6 -10 -6 4 -3 -1 7 -9 16 -13 22 -13 28 -3 5
8 8 6 8 -7 0 -15 3 -16 15 -6 12 10 15 9 15 -5 0 -11 5 -15 15 -11 8 3 15 1
15 -4 0 -6 7 -10 15 -10 8 0 15 -4 15 -9 0 -5 7 -12 16 -15 8 -3 12 -2 9 3 -3
5 0 13 6 17 8 4 9 3 5 -4 -4 -7 -2 -12 4 -12 6 0 8 -4 5 -10 -4 -6 1 -7 11 -3
13 5 15 3 9 -7 -6 -10 -4 -12 8 -7 10 3 17 2 17 -3 0 -6 7 -10 16 -10 9 0 12
-5 8 -12 -5 -10 -4 -10 7 0 11 10 16 8 27 -10 8 -13 11 -15 8 -5 -7 23 -1 22
25 -5 12 -13 18 -17 14 -10 -6 11 -3 12 13 3 12 -6 24 -16 27 -21 4 -6 11 -8
16 -5 5 4 9 1 9 -5 0 -6 5 -8 10 -5 6 3 10 1 10 -5 0 -6 5 -8 10 -5 6 3 10 1
10 -5 0 -6 5 -8 10 -5 6 3 10 1 10 -5 0 -7 8 -9 21 -5 15 5 19 4 15 -4 -4 -6
-1 -11 8 -11 8 0 17 -6 19 -12 4 -10 6 -9 6 1 1 9 8 6 21 -9 13 -15 20 -18 20
-9 0 12 2 12 9 0 5 -8 14 -10 22 -5 10 6 10 3 -1 -11 -14 -17 -14 -18 9 -6 13
7 21 9 18 4 -3 -4 1 -14 9 -21 11 -10 14 -10 14 0 0 6 7 3 15 -8 9 -12 14 -14
15 -6 0 7 5 10 10 7 6 -4 7 -11 4 -17 -5 -7 0 -9 14 -6 13 4 20 2 19 -6 -1 -6
4 -10 11 -8 7 1 20 -5 29 -14 13 -12 17 -13 24 -2 7 10 9 9 9 -5 0 -10 5 -15
10 -12 6 3 10 1 10 -6 0 -10 3 -10 12 -1 7 7 17 12 23 12 5 0 4 -4 -3 -9 -10
-6 -9 -11 4 -22 10 -8 15 -9 11 -2 -4 6 -3 15 3 18 6 4 10 3 9 -2 -4 -22 2
-32 16 -27 9 4 18 -1 21 -11 5 -13 9 -14 15 -4 6 11 9 10 15 -4 3 -9 14 -17
24 -17 25 0 71 -25 62 -34 -4 -5 2 -6 13 -4 13 2 19 -2 17 -10 -2 -9 4 -11 18
-7 13 4 22 1 26 -9 3 -9 10 -16 16 -16 5 0 6 6 2 13 -6 9 -5 9 8 0 8 -7 19 -9
23 -5 5 4 5 2 1 -5 -10 -18 13 -26 31 -11 13 10 15 10 9 0 -10 -17 11 -42 30
-35 8 3 14 0 14 -7 0 -9 4 -9 17 1 9 8 14 9 10 3 -8 -13 19 -27 34 -18 8 5 13
-9 10 -29 -1 -4 7 -3 18 3 25 13 41 13 21 0 -14 -9 -10 -11 15 -10 3 1 13 -6
21 -15 9 -8 20 -13 25 -10 5 4 9 1 9 -5 0 -6 5 -8 10 -5 6 3 13 -1 16 -9 3 -9
10 -13 15 -10 5 3 6 10 3 16 -4 7 -2 8 5 4 6 -4 9 -11 7 -14 -2 -4 13 -17 35
-29 22 -12 37 -16 33 -10 -3 7 2 3 10 -7 11 -14 16 -15 16 -6 0 9 4 8 14 -5 9
-12 20 -16 35 -12 18 4 20 3 10 -9 -9 -11 -9 -14 1 -14 9 0 10 -3 1 -13 -6 -8
-8 -17 -5 -20 4 -4 -1 -18 -11 -33 -9 -15 -13 -24 -7 -20 6 3 9 -4 8 -18 0
-13 -5 -22 -9 -19 -4 2 -6 -7 -3 -21 3 -14 0 -29 -6 -32 -7 -5 -8 -2 -3 6 5 9
4 11 -4 6 -9 -6 -9 -11 -1 -21 8 -10 8 -15 -1 -20 -8 -6 -7 -10 2 -16 12 -7
12 -9 1 -9 -8 0 -12 -6 -9 -12 2 -7 1 -20 -3 -28 -6 -11 -2 -15 16 -15 13 0
24 5 24 10 0 6 5 3 10 -5 6 -9 10 -10 10 -3 0 8 9 9 30 3 16 -5 32 -5 35 0 3
5 18 5 33 1 15 -5 37 -4 50 0 15 6 22 5 22 -3 0 -8 3 -9 10 -2 6 6 31 8 60 4
33 -4 50 -3 50 4 0 6 5 4 10 -4 9 -13 10 -13 10 0 0 9 3 11 8 5 8 -11 143 -14
136 -4 -2 4 3 10 12 13 10 4 13 13 9 26 -4 13 -2 20 7 20 10 0 9 3 -2 10 -11
7 -11 10 -2 10 7 0 10 5 7 10 -4 6 -1 18 6 26 6 8 9 17 6 21 -4 3 -1 13 6 21
7 10 8 13 1 9 -8 -4 -11 1 -10 17 1 16 6 22 15 18 10 -4 12 -1 6 9 -12 19 -14
49 -2 42 5 -3 7 5 5 18 -2 13 4 30 12 37 8 8 10 11 4 8 -8 -4 -11 5 -10 23 1
24 3 27 15 18 12 -10 12 -9 2 11 -9 17 -9 22 1 22 9 0 9 3 -2 10 -13 9 -13 10
0 10 13 0 13 1 0 10 -11 7 -11 10 -2 10 8 0 10 5 6 12 -5 8 -1 9 12 5 17 -6
17 -6 3 5 -16 13 -15 43 2 32 5 -3 5 6 -1 20 -6 18 -6 26 1 26 5 0 -2 11 -17
25 -14 13 -30 22 -34 20 -5 -3 -10 0 -12 7 -2 6 -14 13 -27 15 -12 2 -29 10
-38 19 -8 8 -20 13 -27 11 -6 -2 -16 3 -22 11 -6 9 -21 17 -33 19 -12 2 -31
12 -43 22 -11 11 -26 17 -34 14 -8 -3 -14 0 -14 6 0 6 -5 11 -11 11 -5 0 -7
-6 -3 -12 4 -7 -4 -3 -17 9 -20 18 -28 20 -38 10 -10 -9 -11 -8 -6 6 6 13 2
17 -15 17 -11 0 -19 4 -16 9 3 4 -4 8 -17 7 -14 -1 -21 4 -19 13 3 12 1 12
-14 0 -12 -9 -15 -9 -10 -1 6 11 -5 17 -26 13 -5 0 -8 4 -8 10 0 5 -4 7 -10 4
-5 -3 -10 -1 -10 6 0 8 -4 8 -15 -1 -13 -11 -14 -10 -9 4 4 12 0 16 -15 16
-12 0 -21 5 -21 11 0 5 -8 9 -17 7 -22 -3 -65 26 -55 38 4 4 0 3 -10 -4 -12
-10 -18 -10 -24 -1 -5 8 -3 9 6 4 8 -5 11 -4 6 3 -4 6 -13 9 -21 5 -8 -3 -15
0 -15 7 0 6 -6 10 -12 8 -7 -3 -21 5 -31 16 -10 12 -16 15 -12 9 11 -23 -15
-14 -41 14 -19 20 -23 22 -18 7 6 -15 1 -13 -21 9 -16 15 -34 26 -42 23 -7 -3
-13 0 -13 7 0 8 -4 6 -10 -3 -9 -13 -10 -13 -11 0 -1 8 -1 18 -1 21 1 3 -11 4
-25 1 -20 -4 -24 -2 -18 8 6 10 4 12 -8 7 -10 -4 -20 1 -27 11 -8 14 -11 14
-18 4 -7 -10 -11 -8 -15 8 -4 17 -11 21 -26 17 -14 -3 -19 -1 -14 6 4 7 0 8
-11 4 -10 -4 -15 -3 -11 3 4 6 -5 10 -20 10 -15 0 -24 4 -20 10 4 6 -5 10 -20
10 -17 0 -24 4 -19 12 5 8 2 9 -9 5 -10 -4 -20 0 -26 11 -6 10 -11 12 -11 5 0
-8 -8 -5 -21 8 -17 17 -23 18 -37 7 -11 -9 -14 -10 -8 0 11 19 -3 35 -19 22
-11 -9 -17 -7 -27 9 -7 12 -21 21 -31 21 -11 0 -15 4 -11 12 4 7 3 8 -5 4 -6
-4 -22 2 -36 12 -14 11 -34 18 -44 15 -10 -3 -22 1 -26 8 -6 8 -4 10 5 4 8 -5
11 -4 7 3 -4 5 -15 9 -25 8 -9 -2 -20 1 -23 6 -3 5 -16 10 -28 11 -12 1 -20 6
-17 14 3 8 -1 10 -11 6 -12 -5 -14 -3 -8 6 5 10 2 11 -14 6 -13 -4 -21 -2 -21
5 0 7 -8 9 -21 5 -15 -5 -19 -4 -15 4 4 6 0 11 -8 11 -9 0 -16 5 -16 10 0 6
-11 10 -25 10 -14 0 -28 7 -31 15 -5 12 -9 13 -21 4 -11 -10 -15 -8 -19 9 -4
12 -11 19 -20 15 -8 -3 -17 2 -20 11 -3 9 -10 14 -14 11 -12 -7 -41 6 -35 15
3 5 -5 6 -17 2 -14 -3 -19 -2 -14 6 5 8 -2 12 -18 12 -14 0 -26 5 -26 10 0 6
-9 10 -21 10 -13 0 -18 4 -13 13 4 6 4 9 -1 5 -4 -4 -15 -2 -23 5 -13 10 -14
9 -7 -3 4 -8 -2 -5 -14 8 -22 22 -37 30 -27 13 4 -5 -3 -7 -15 -4 -11 3 -25
14 -32 23 -6 10 -16 16 -23 13 -6 -2 -15 1 -19 6 -3 6 -11 9 -16 6 -5 -4 -9 0
-9 9 0 9 -8 13 -25 12 -13 -2 -24 0 -23 3 2 18 -4 22 -17 11 -13 -11 -14 -10
-9 4 4 11 2 16 -7 14 -8 -2 -13 2 -12 8 1 7 -6 10 -17 7 -11 -3 -17 -10 -13
-17 3 -6 2 -7 -3 -3 -5 5 -9 14 -9 20 0 7 -7 12 -15 12 -18 0 -40 17 -33 28 2
4 0 7 -6 7 -5 0 -13 -5 -17 -11 -4 -8 -12 -3 -20 12 -8 15 -13 18 -14 9 0 -9
-3 -11 -8 -5 -4 6 -20 16 -35 23 -18 8 -25 16 -21 25 5 8 2 8 -9 -2 -14 -11
-18 -11 -23 3 -3 9 -10 16 -16 16 -5 0 -6 -4 -3 -10z m1090 -518 c-3 -3 -11 0
-18 7 -9 10 -8 11 6 5 10 -3 15 -9 12 -12z m1166 -549 c13 -16 12 -17 -3 -4
-10 7 -18 15 -18 17 0 8 8 3 21 -13z m74 -33 c3 -5 1 -10 -4 -10 -6 0 -11 5
-11 10 0 6 2 10 4 10 3 0 8 -4 11 -10z"/>
<path d="M141 5693 c-6 -10 -11 -13 -11 -6 0 12 -17 12 -37 0 -7 -5 -13 -5
-13 0 0 4 -7 -3 -16 -15 -8 -12 -22 -22 -30 -22 -8 0 -13 -6 -12 -12 2 -7 -2
-12 -7 -11 -13 2 -18 -124 -5 -132 5 -3 7 -15 5 -27 -4 -17 -2 -19 7 -10 13
13 29 16 27 5 -3 -21 2 -33 16 -33 8 0 15 -4 15 -9 0 -5 101 -9 224 -9 124 0
229 -3 235 -7 6 -3 11 -3 11 2 0 10 293 9 309 -1 6 -4 11 -4 11 1 0 4 52 8
115 7 73 0 112 3 108 9 -4 6 1 8 10 4 10 -3 17 -2 17 4 0 6 5 7 10 4 9 -6 14
8 11 28 -1 5 3 6 8 3 5 -4 13 -1 17 5 3 6 0 15 -7 20 -10 6 -7 9 11 9 18 0 21
3 11 9 -11 7 -11 9 0 14 12 5 12 6 0 6 -11 1 -11 4 0 17 10 13 10 17 -2 26
-10 7 -11 11 -2 14 10 4 10 10 0 27 -18 31 -34 47 -41 40 -3 -4 -6 1 -6 10 0
9 -5 19 -12 23 -7 5 -8 3 -3 -7 8 -12 6 -12 -8 -1 -9 8 -22 10 -28 6 -7 -4 -9
-3 -5 4 4 7 -3 10 -21 8 -16 -1 -36 2 -47 7 -13 6 -16 6 -12 -2 8 -13 -21 -10
-43 3 -10 7 -12 6 -6 -4 6 -10 4 -12 -7 -7 -9 3 -20 1 -26 -5 -6 -6 -12 -6
-17 3 -6 8 -4 10 5 4 9 -6 11 -4 5 4 -5 9 -10 10 -18 2 -13 -13 -31 -15 -23
-3 3 5 -1 9 -9 9 -8 0 -12 -3 -10 -7 2 -3 -18 -6 -45 -6 -27 0 -46 4 -43 10 4
5 0 6 -8 0 -21 -13 -39 -14 -39 -1 0 6 -7 2 -16 -9 -8 -10 -13 -14 -10 -8 3 7
-1 15 -10 18 -8 3 -13 2 -10 -2 3 -5 -13 -8 -34 -8 -22 0 -36 4 -33 10 4 5 1
6 -8 0 -21 -13 -39 -14 -39 -1 0 6 -7 2 -16 -9 -8 -10 -13 -14 -10 -8 3 7 -1
15 -10 18 -8 3 -13 2 -10 -3 3 -5 -5 -8 -19 -8 -14 0 -23 3 -20 7 2 3 -2 7
-10 7 -8 0 -12 -4 -9 -8 5 -9 -70 -4 -87 7 -8 4 -10 3 -5 -4 8 -14 -20 -12
-43 2 -10 7 -12 6 -6 -4 6 -10 4 -12 -7 -7 -9 3 -20 1 -26 -5 -6 -6 -12 -6
-17 3 -6 8 -4 10 5 4 9 -6 11 -4 5 4 -5 9 -10 10 -18 2 -13 -13 -31 -15 -23
-3 3 5 -1 9 -9 9 -8 0 -12 -4 -9 -9 6 -9 -25 -6 -43 5 -7 4 -16 0 -22 -10z"/>
<path d="M4120 5309 c0 -5 5 -7 10 -4 6 3 10 8 10 11 0 2 -4 4 -10 4 -5 0 -10
-5 -10 -11z"/>
<path d="M4140 5305 c-9 -11 -16 -12 -25 -5 -10 8 -17 6 -27 -9 -8 -12 -18
-18 -21 -15 -3 4 -14 -1 -23 -10 -9 -10 -23 -15 -30 -12 -7 3 -18 -3 -23 -12
-8 -12 -10 -13 -11 -3 0 9 -6 7 -19 -8 -11 -12 -22 -22 -25 -22 -21 3 -26 -1
-20 -11 5 -9 2 -9 -9 1 -9 7 -17 9 -17 5 0 -5 -9 -15 -21 -22 -12 -8 -18 -9
-15 -3 4 7 1 8 -8 5 -9 -3 -13 -11 -9 -17 4 -6 -2 -8 -15 -5 -12 4 -20 2 -16
-3 3 -5 -4 -9 -16 -9 -12 0 -18 -4 -15 -10 3 -6 -1 -7 -9 -4 -9 3 -16 1 -16
-6 0 -6 -4 -9 -9 -6 -5 3 -12 -1 -15 -10 -3 -8 -11 -12 -16 -9 -6 4 -17 1 -25
-5 -8 -7 -15 -9 -15 -4 0 5 -5 2 -10 -6 -5 -8 -17 -15 -27 -15 -10 -1 -17 -6
-16 -12 1 -6 -6 -9 -19 -5 -14 3 -19 1 -14 -6 4 -7 -1 -10 -14 -7 -12 2 -20
-1 -20 -10 0 -9 -7 -11 -22 -7 -14 3 -19 2 -14 -6 5 -8 0 -12 -13 -12 -12 0
-21 -6 -21 -12 0 -9 -4 -8 -10 2 -8 13 -10 13 -10 -1 0 -10 -7 -16 -17 -15
-10 0 -17 -4 -16 -10 1 -7 -6 -10 -17 -7 -11 3 -20 0 -20 -6 0 -6 -12 -11 -26
-11 -14 0 -23 -4 -19 -10 4 -6 -5 -10 -20 -10 -14 0 -28 -7 -31 -15 -4 -8 -10
-12 -15 -9 -5 3 -9 -6 -9 -20 0 -14 4 -27 8 -30 5 -3 9 -22 10 -42 1 -21 7
-41 13 -45 7 -4 9 -14 6 -23 -3 -8 -1 -18 5 -22 7 -4 6 -9 -3 -15 -11 -7 -10
-9 3 -9 10 0 17 -3 17 -7 -5 -33 3 -73 13 -67 6 4 8 3 4 -4 -3 -6 -2 -22 4
-37 7 -17 7 -24 0 -20 -6 3 -10 1 -10 -4 0 -6 6 -11 14 -11 8 0 13 -11 12 -27
0 -19 4 -27 14 -25 10 1 8 -3 -4 -13 -19 -14 -11 -21 18 -16 5 1 5 -4 -1 -11
-16 -20 -9 -61 13 -69 10 -4 14 -8 7 -8 -13 -1 -10 -29 6 -59 7 -13 7 -23 -2
-32 -8 -9 -8 -11 -1 -7 7 4 15 0 18 -9 4 -10 2 -13 -7 -7 -6 4 -4 -6 7 -21 10
-16 13 -25 7 -22 -7 5 -9 1 -5 -8 3 -9 10 -14 14 -11 5 3 6 -4 3 -15 -3 -12 0
-20 7 -20 10 0 10 -3 0 -15 -11 -13 -7 -19 11 -17 4 1 5 -8 2 -18 -3 -11 -1
-20 4 -20 11 0 11 -30 0 -48 -6 -8 -3 -10 7 -6 11 4 14 -1 12 -20 -2 -14 0
-26 5 -26 5 0 6 -6 3 -14 -3 -8 0 -17 5 -21 6 -3 9 -11 6 -16 -4 -5 -1 -9 6
-9 8 0 8 -4 -1 -15 -11 -13 -7 -19 11 -17 4 1 4 -8 1 -20 -4 -15 -2 -19 7 -13
10 6 11 3 2 -13 -7 -14 -8 -23 -1 -27 6 -4 8 -11 5 -16 -4 -5 -1 -9 5 -9 6 0
8 -11 6 -26 -3 -15 -3 -24 1 -21 7 8 32 -16 26 -25 -2 -5 1 -8 7 -8 7 0 9 -7
6 -16 -3 -8 -2 -13 2 -10 8 5 38 -15 40 -26 1 -5 2 -13 2 -19 0 -5 5 -7 11 -4
6 4 13 -3 16 -15 3 -12 11 -19 19 -16 8 3 11 -2 9 -15 -2 -12 2 -19 11 -19 8
0 13 -4 10 -8 -3 -5 4 -14 14 -22 10 -8 17 -17 14 -22 -3 -4 1 -8 9 -8 8 0 21
-8 28 -17 13 -17 12 -17 -6 -4 -13 10 -12 6 5 -12 38 -40 50 -55 50 -65 0 -5
11 -19 25 -32 13 -12 22 -28 18 -34 -3 -6 -3 -8 1 -4 10 8 56 -31 56 -48 0 -6
8 -18 18 -25 16 -13 16 -13 2 6 -14 19 -14 19 3 6 13 -10 15 -17 6 -27 -8 -10
-8 -14 -1 -14 6 0 22 -11 35 -24 14 -14 29 -22 33 -18 5 4 3 0 -4 -10 -11 -14
-10 -17 8 -23 12 -4 28 -21 35 -38 8 -18 14 -28 15 -24 0 4 6 2 14 -5 10 -10
11 -15 2 -21 -6 -5 -2 -7 12 -4 12 3 20 1 17 -3 -8 -13 6 -40 22 -40 8 0 11
-4 8 -10 -3 -5 -1 -10 5 -10 6 0 15 11 22 25 6 13 15 22 19 19 5 -3 9 2 9 10
0 9 7 16 15 16 8 0 12 6 9 14 -4 9 5 20 23 30 16 8 36 23 44 33 11 15 9 15
-10 -2 l-25 -20 20 26 c10 15 25 24 32 22 8 -4 10 0 5 13 -4 10 -2 15 4 11 10
-6 45 28 36 36 -2 3 5 8 16 12 19 6 25 17 22 38 0 4 2 6 6 5 5 -2 18 7 31 20
12 12 19 22 16 22 -3 0 12 17 34 38 21 20 47 49 57 64 9 15 25 30 36 33 10 4
19 15 19 25 0 14 5 18 17 13 11 -4 14 -3 9 5 -4 7 9 28 33 53 23 22 41 44 41
50 0 6 5 7 10 4 6 -3 10 1 10 10 0 9 5 13 10 10 9 -6 14 8 11 28 0 4 5 7 13 7
8 0 17 7 20 16 3 8 10 12 16 9 6 -4 7 1 3 11 -5 12 -3 15 6 9 10 -6 11 -3 1
15 -10 18 -9 21 1 15 9 -6 11 -3 6 8 -4 10 -1 17 6 17 8 0 6 4 -3 10 -14 9 -7
15 14 11 5 -1 4 4 -3 13 -9 11 -9 16 0 21 8 6 7 10 -2 16 -8 5 -9 9 -3 9 6 0
11 6 12 13 2 21 7 42 15 54 4 6 3 14 -3 18 -7 4 -6 13 1 27 6 11 9 29 6 39 -3
10 -1 17 3 14 5 -3 11 -1 14 4 4 5 1 13 -4 16 -7 5 -5 12 7 22 10 8 12 12 6 8
-8 -4 -13 0 -13 10 0 9 4 14 8 11 4 -2 7 8 6 22 -1 15 3 35 8 46 8 14 7 17 -4
10 -11 -6 -11 -5 1 9 7 9 10 17 5 17 -4 0 0 6 11 13 10 8 14 17 8 20 -5 3 -7
22 -5 41 2 20 8 33 13 30 5 -3 4 7 -1 21 -6 15 -6 24 -1 20 5 -3 12 -1 16 5 3
5 2 10 -3 10 -5 0 -9 7 -9 15 0 8 4 15 8 15 13 0 17 38 5 51 -8 9 -8 10 3 4
10 -6 13 -4 8 7 -3 9 0 21 6 28 9 10 9 11 -3 5 -11 -6 -10 -3 2 11 14 16 15
23 6 32 -8 8 -8 12 -1 12 6 0 9 13 8 30 -2 19 1 27 8 23 6 -4 8 0 4 10 -4 10
-2 17 5 17 7 0 7 4 -1 14 -8 10 -9 16 -1 21 6 3 8 10 5 15 -3 5 -1 11 5 15 5
3 10 12 10 18 0 7 -4 6 -10 -3 -6 -9 -10 -10 -10 -3 0 6 5 15 11 19 6 3 9 15
6 25 -3 11 -1 16 4 13 6 -3 7 5 3 20 -3 14 -2 26 3 26 5 0 10 6 11 13 8 70 5
87 -13 81 -8 -4 -15 -1 -15 6 0 7 -7 10 -15 6 -10 -3 -15 1 -15 12 0 15 -2 15
-10 2 -8 -12 -10 -12 -10 5 0 15 -3 17 -9 7 -7 -11 -9 -11 -14 2 -4 9 -12 16
-18 16 -7 0 -22 8 -33 18 -20 16 -20 16 -7 0 18 -24 9 -23 -19 2 -13 11 -31
20 -40 20 -10 0 -33 11 -53 24 -19 13 -38 22 -41 18 -3 -3 -6 0 -6 7 0 7 -4 9
-10 6 -5 -3 -10 2 -10 12 0 15 -2 16 -10 3 -7 -11 -10 -11 -10 -2 0 7 -4 10
-10 7 -5 -3 -10 -1 -10 5 0 6 -4 8 -10 5 -5 -3 -10 -1 -10 4 0 6 -9 11 -21 11
-11 0 -18 4 -15 8 2 4 -5 9 -17 9 -12 1 -23 7 -25 13 -2 5 -10 10 -18 10 -8 0
-14 4 -14 10 0 5 -7 7 -15 4 -8 -4 -15 -1 -15 6 0 7 -7 10 -15 6 -10 -4 -19 2
-25 17 -5 12 -9 16 -9 10 -1 -19 -25 -11 -34 11 -6 16 -10 16 -24 5 -9 -8 -14
-9 -11 -4 4 6 -2 17 -14 24 -11 7 -17 8 -13 2 3 -6 1 -11 -4 -11 -6 0 -11 7
-11 15 0 10 -7 15 -17 13 -10 -2 -17 2 -16 9 2 7 -3 10 -11 7 -7 -3 -30 5 -50
16 -20 12 -36 19 -36 15 0 -4 -6 -2 -14 4 -10 9 -16 8 -26 -4z m865 -414 c3
-5 2 -12 -3 -15 -5 -3 -9 1 -9 9 0 17 3 19 12 6z m-1144 -1478 c13 -16 12 -17
-3 -4 -17 13 -22 21 -14 21 2 0 10 -8 17 -17z"/>
<path d="M770 5200 c0 -6 -6 -10 -12 -9 -40 5 -79 -2 -72 -13 5 -8 2 -9 -9 -5
-9 3 -19 2 -22 -4 -4 -5 -11 -6 -17 -3 -7 4 -8 2 -4 -4 4 -7 2 -12 -4 -12 -6
0 -8 -5 -4 -12 5 -9 2 -8 -9 1 -15 12 -17 12 -11 -3 4 -10 1 -16 -9 -16 -8 0
-17 -7 -21 -15 -3 -8 -1 -15 4 -15 6 0 10 -5 10 -11 0 -5 -4 -8 -8 -5 -11 7
-29 -25 -26 -46 1 -10 -3 -18 -9 -18 -7 0 -5 -5 3 -10 12 -8 12 -10 1 -10 -9
0 -10 -4 -4 -12 6 -7 9 -25 8 -40 -1 -16 2 -28 7 -28 4 0 8 -9 8 -20 0 -11 7
-20 16 -20 8 0 13 -4 10 -8 -3 -5 4 -14 14 -22 10 -8 17 -17 15 -21 -3 -4 2
-10 11 -13 10 -4 13 -2 9 7 -4 6 2 3 12 -8 10 -11 30 -20 46 -20 15 1 27 -2
27 -6 0 -4 15 -5 33 -4 17 2 38 -2 46 -9 12 -9 13 -8 6 3 -6 11 -3 13 18 7 14
-3 29 -1 32 4 4 6 12 7 18 3 17 -11 96 -12 103 -1 3 4 11 5 17 1 17 -11 96
-12 103 -1 3 4 10 5 16 2 6 -4 79 -8 162 -8 83 -1 157 -5 165 -10 10 -7 12 -6
6 4 -6 10 -2 11 18 6 14 -3 29 -1 32 4 4 6 12 7 18 3 17 -11 96 -12 103 -1 3
4 11 5 17 1 17 -11 96 -12 103 -1 3 4 10 5 16 2 6 -4 79 -8 162 -8 83 -1 157
-5 165 -10 10 -7 12 -6 6 4 -6 10 -2 11 18 6 14 -3 29 -1 32 4 4 7 11 7 18 2
7 -5 27 -9 45 -8 19 0 36 -3 39 -8 4 -5 0 -6 -7 -1 -9 5 -11 4 -6 -3 4 -7 14
-12 22 -12 8 0 22 -9 31 -19 9 -11 22 -17 29 -14 7 2 18 -4 25 -15 8 -12 19
-17 31 -14 12 3 18 0 16 -9 -2 -9 4 -13 16 -11 12 2 16 -1 10 -9 -5 -9 -1 -11
14 -7 12 4 20 3 17 -2 -7 -12 28 -38 48 -35 11 2 17 -1 14 -9 -3 -7 4 -13 16
-13 11 -1 23 -7 27 -13 4 -7 10 -11 14 -11 20 3 26 0 21 -9 -3 -5 1 -10 9 -10
9 0 16 -6 16 -12 0 -9 4 -8 10 2 6 10 10 11 10 3 0 -7 5 -13 11 -13 16 0 39
-26 31 -36 -4 -5 0 -3 8 4 8 6 18 12 22 12 4 0 7 -6 6 -12 -2 -7 3 -12 10 -10
6 1 12 -2 12 -8 0 -5 7 -10 16 -10 8 0 13 -4 9 -9 -3 -6 4 -8 15 -6 11 2 18 0
15 -5 -3 -5 -1 -11 5 -15 5 -3 10 0 10 7 1 7 6 4 13 -7 7 -11 19 -20 27 -20 8
0 14 -6 12 -14 -3 -12 -1 -12 14 0 12 9 15 9 10 2 -4 -8 -2 -13 4 -13 6 0 8
-5 4 -12 -6 -10 -5 -10 7 -1 12 10 18 9 29 -7 10 -15 17 -17 27 -8 11 8 12 7
7 -7 -5 -13 -4 -16 4 -11 7 4 12 2 12 -3 0 -6 3 -10 8 -9 14 3 42 -14 37 -23
-3 -4 4 -6 15 -4 11 2 18 0 15 -6 -4 -5 1 -9 10 -9 9 0 13 -4 10 -10 -3 -5 0
-7 8 -4 8 3 17 -2 20 -10 4 -9 13 -13 22 -10 8 3 15 1 15 -5 0 -6 5 -11 12
-11 6 0 8 3 5 6 -3 4 -2 16 4 27 7 12 7 17 1 13 -5 -3 -12 1 -16 9 -3 8 -1 17
5 21 6 4 6 11 -2 20 -6 8 -9 17 -6 20 3 3 2 17 -3 30 -7 17 -6 24 2 24 6 0 4
8 -6 19 -12 13 -14 21 -6 26 8 5 8 10 0 20 -7 8 -9 18 -6 24 3 5 0 12 -6 14
-9 4 -9 6 -2 6 8 1 9 12 4 38 -5 20 -7 41 -4 45 3 4 0 8 -6 8 -7 0 -9 8 -5 20
4 13 2 20 -7 20 -11 0 -11 2 0 9 20 12 19 18 -3 36 -11 9 -14 14 -7 10 13 -7
17 21 4 29 -5 3 -8 15 -7 27 2 26 -31 63 -47 53 -6 -4 -8 -3 -5 3 4 6 -5 21
-20 34 -14 13 -23 18 -19 12 12 -22 -12 -14 -40 12 -14 13 -30 22 -35 19 -5
-3 -9 0 -9 6 0 7 -7 9 -16 6 -12 -5 -15 -2 -10 9 3 9 2 14 -2 12 -14 -9 -53
13 -46 24 4 8 3 9 -4 5 -7 -4 -12 -2 -12 4 0 6 -4 9 -9 5 -5 -3 -16 2 -24 10
-9 8 -23 15 -32 15 -9 0 -13 5 -10 10 3 6 -1 10 -9 10 -9 0 -16 5 -16 11 0 8
-5 7 -15 -1 -9 -7 -18 -10 -22 -6 -3 3 -1 6 6 6 16 0 5 17 -21 31 -16 9 -19 8
-13 -3 4 -8 2 -8 -7 2 -22 24 -62 56 -54 43 4 -7 2 -13 -3 -13 -6 0 -11 6 -11
14 0 9 -7 13 -19 11 -15 -3 -18 1 -14 12 4 10 2 14 -5 9 -6 -3 -13 -2 -17 4
-4 6 -10 8 -15 5 -4 -3 -11 2 -14 11 -3 8 -10 12 -16 9 -9 -6 -14 8 -11 28 1
5 -3 6 -9 2 -6 -3 -7 -12 -3 -18 5 -8 2 -8 -9 0 -8 7 -18 9 -22 5 -4 -4 -6 0
-4 8 1 8 -4 15 -12 15 -8 0 -21 4 -29 9 -10 7 -12 6 -6 -4 6 -9 4 -11 -6 -5
-19 12 -49 14 -49 3 0 -5 -6 -6 -12 -2 -15 10 -106 10 -115 1 -3 -4 -12 -2
-19 4 -8 7 -14 7 -19 -1 -5 -8 -11 -8 -21 1 -8 6 -14 7 -14 2 0 -7 -15 -7 -40
-3 -23 4 -43 3 -46 -2 -3 -5 -11 -4 -19 2 -10 8 -15 8 -20 0 -5 -8 -11 -8 -21
1 -8 6 -14 7 -14 2 0 -7 -15 -7 -40 -3 -23 4 -43 3 -46 -2 -3 -5 -11 -4 -19 2
-10 8 -15 8 -20 0 -5 -8 -11 -8 -21 1 -8 6 -14 7 -14 2 0 -7 -15 -7 -40 -3
-23 4 -43 3 -46 -2 -3 -5 -11 -5 -18 1 -9 7 -16 7 -24 -1 -7 -7 -12 -8 -12 -4
0 5 -7 3 -15 -4 -13 -11 -14 -10 -9 4 5 14 3 15 -20 6 -14 -5 -26 -7 -26 -4 0
4 -7 1 -16 -6 -8 -8 -14 -9 -13 -4 4 21 -2 26 -17 13 -13 -10 -17 -10 -25 2
-7 12 -9 12 -9 0 0 -8 -3 -11 -7 -8 -3 4 -13 1 -21 -6 -10 -8 -13 -8 -9 -1 4
7 0 15 -9 18 -9 3 -12 2 -9 -4 9 -14 -55 -10 -74 4 -11 8 -13 8 -8 -1 9 -15
-32 -14 -52 1 -11 8 -13 8 -8 0 9 -15 -73 -15 -92 0 -11 8 -13 8 -8 -1 9 -15
-32 -14 -52 1 -11 8 -13 8 -8 0 9 -15 -73 -15 -92 0 -11 8 -13 8 -8 -1 9 -15
-32 -14 -52 1 -11 8 -13 8 -8 0 9 -15 -73 -15 -92 0 -11 8 -13 8 -8 -1 9 -15
-32 -14 -52 1 -12 9 -13 8 -6 -3 6 -11 4 -13 -7 -8 -9 3 -21 0 -28 -6 -10 -9
-11 -9 -6 0 3 6 2 14 -4 18 -5 3 -10 1 -10 -5z"/>
<path d="M5945 5200 c-4 -6 -11 -8 -16 -5 -5 4 -12 -1 -15 -9 -3 -9 -15 -16
-25 -16 -10 0 -19 -5 -19 -11 0 -6 -7 -8 -16 -5 -8 3 -13 2 -10 -3 3 -5 -8
-14 -25 -20 -17 -6 -28 -15 -24 -21 4 -6 3 -9 -2 -8 -4 1 -24 -4 -43 -11 -19
-8 -39 -13 -44 -12 -5 1 -3 -5 4 -14 11 -13 10 -15 -4 -9 -9 3 -16 1 -16 -6 0
-6 -5 -8 -10 -5 -6 3 -13 -1 -16 -10 -5 -13 -9 -13 -22 -3 -9 7 -13 9 -10 3 8
-14 -14 -32 -34 -29 -20 2 -42 -21 -34 -35 3 -5 -3 -7 -14 -4 -12 3 -22 -1
-26 -10 -3 -9 -11 -14 -19 -11 -7 3 -15 -2 -19 -11 -3 -9 -10 -13 -16 -10 -5
3 -10 1 -10 -6 0 -7 -3 -10 -6 -6 -9 9 -33 -16 -26 -28 3 -5 -1 -4 -10 3 -13
10 -17 10 -22 -3 -3 -8 -12 -15 -20 -15 -8 0 -18 -5 -22 -12 -5 -7 -3 -8 6 -3
9 5 11 4 6 -4 -6 -9 -11 -9 -24 1 -9 7 -13 8 -9 2 4 -7 -1 -18 -10 -25 -14
-12 -15 -12 -9 -1 7 11 4 12 -13 3 -11 -7 -21 -16 -21 -22 0 -6 -4 -8 -9 -5
-5 3 -11 -1 -15 -9 -3 -8 0 -15 7 -15 8 0 8 -3 -2 -9 -8 -5 -12 -19 -9 -35 3
-14 2 -26 -2 -26 -5 0 -6 -10 -2 -22 3 -13 1 -19 -6 -15 -11 7 -11 -18 1 -29
3 -3 -1 -17 -9 -29 -12 -18 -12 -24 -2 -28 7 -3 8 -6 2 -6 -7 -1 -9 -12 -6
-27 3 -15 1 -24 -4 -21 -5 3 -10 -6 -10 -19 -1 -15 2 -21 10 -17 7 5 7 2 -1
-8 -7 -8 -12 -25 -13 -37 0 -12 0 -31 -1 -42 0 -12 -5 -18 -11 -14 -6 4 -6 -1
1 -14 7 -13 8 -23 1 -27 -5 -3 -8 -19 -6 -35 2 -17 -1 -30 -6 -30 -5 0 -6 -5
-3 -10 4 -6 2 -17 -5 -25 -9 -10 -7 -13 6 -11 10 2 20 8 22 14 2 7 8 12 13 12
6 0 7 -6 4 -12 -4 -7 0 -5 8 4 8 10 17 15 20 11 4 -3 7 -1 7 6 0 7 4 10 9 7 5
-3 12 2 15 11 6 15 8 15 16 3 8 -13 10 -12 10 3 0 11 6 17 18 15 10 -2 16 2
14 10 -1 7 5 12 15 10 11 -2 17 2 15 10 -1 8 1 11 6 8 5 -3 19 4 30 15 12 11
22 15 22 9 0 -6 5 -8 10 -5 6 4 8 11 4 16 -3 6 2 9 12 7 12 -2 18 2 16 11 -3
12 -1 12 14 0 10 -8 15 -9 12 -4 -8 14 14 32 35 29 9 -1 15 1 13 4 -2 4 7 15
20 25 22 16 23 16 17 1 -5 -14 -2 -13 14 3 11 11 23 27 26 34 4 10 6 10 6 2 1
-7 6 -13 12 -13 5 0 7 5 4 10 -3 6 3 10 13 10 11 0 27 10 36 23 9 12 14 16 10
9 -5 -10 2 -10 25 2 17 9 31 19 31 22 0 3 -5 2 -12 -2 -6 -4 -8 -3 -5 4 4 5
17 8 30 5 16 -4 19 -2 8 5 -11 8 -9 11 10 14 15 2 23 9 21 18 -3 12 -1 13 9 3
18 -18 30 -16 22 2 -3 9 -2 15 3 14 23 -4 45 2 39 11 -3 6 3 10 15 10 11 0 23
7 27 16 5 13 7 13 14 2 7 -10 9 -9 9 5 0 10 5 15 10 12 6 -3 10 -1 10 5 0 6 5
8 10 5 6 -3 10 -1 10 4 0 6 7 11 15 11 8 0 15 5 15 11 0 5 4 8 9 4 5 -3 12 -1
16 5 4 6 12 7 18 4 7 -4 9 -4 5 1 -10 10 21 34 45 35 10 0 16 3 14 8 -3 4 6 8
19 8 13 1 24 -3 24 -10 0 -7 3 -7 8 -1 10 14 52 17 52 4 0 -5 5 -7 12 -3 19
12 88 12 88 0 0 -7 3 -7 8 -1 10 14 45 16 54 2 5 -8 11 -8 16 -2 11 16 34 17
43 3 5 -7 9 -8 9 -3 0 14 50 15 50 1 0 -7 3 -7 8 -1 10 14 45 16 54 2 4 -7 8
-7 8 -2 0 14 50 15 50 1 0 -7 3 -7 8 -1 9 12 72 14 72 2 0 -4 5 -5 12 -1 17
11 129 11 151 1 9 -4 17 -4 17 1 0 4 9 8 20 9 11 1 20 -4 20 -10 0 -8 3 -8 8
-2 10 14 45 16 54 2 4 -7 8 -7 8 -2 0 14 50 15 50 1 0 -7 3 -7 8 -1 11 15 52
17 52 2 0 -7 3 -8 8 -2 4 6 21 10 37 10 17 0 33 -4 37 -10 5 -6 8 -5 8 3 0 6
7 12 16 12 10 0 14 6 11 14 -4 10 0 13 14 11 17 -4 19 -2 8 11 -10 12 -9 13 4
9 9 -4 21 2 29 14 8 12 18 18 23 13 5 -4 5 -1 1 5 -5 8 6 21 28 34 20 12 33
26 29 32 -4 7 0 8 11 4 9 -4 15 -3 12 1 -3 5 4 14 14 22 10 8 17 17 14 21 -2
4 1 11 7 15 8 4 9 3 5 -4 -12 -20 3 -13 34 15 18 16 28 33 25 41 -5 13 -3 13
12 1 11 -9 14 -10 9 -1 -6 11 4 17 26 13 4 0 5 6 2 14 -4 8 -2 15 3 15 4 0 20
11 35 24 14 14 29 22 32 18 4 -3 4 2 0 12 -5 14 -4 17 4 12 7 -4 12 -2 12 4 0
6 5 8 10 5 6 -3 10 -2 10 4 0 5 -6 12 -12 15 -7 4 -3 4 10 2 19 -4 21 -2 11
10 -10 12 -15 12 -33 1 -18 -12 -23 -12 -34 0 -10 10 -17 11 -27 3 -9 -8 -15
-8 -20 0 -4 7 -12 7 -25 0 -25 -13 -33 -13 -24 3 5 7 1 7 -10 -2 -15 -13 -19
-13 -27 0 -8 12 -10 12 -18 0 -7 -12 -13 -12 -24 -3 -7 7 -17 9 -21 5 -9 -9
-56 -12 -56 -3 0 9 -32 6 -48 -4 -7 -4 -12 -2 -12 6 0 10 -2 10 -8 1 -5 -7
-13 -9 -21 -3 -8 4 -25 4 -38 -1 -16 -6 -23 -5 -23 4 0 9 -3 8 -9 -1 -4 -8
-12 -14 -16 -14 -4 0 -12 6 -16 14 -6 9 -9 9 -9 1 0 -8 -9 -9 -29 -3 -16 4
-32 5 -36 2 -10 -10 -39 -8 -47 3 -5 6 -8 5 -8 -3 0 -9 -6 -10 -17 -5 -22 10
-44 10 -60 0 -6 -4 -15 -3 -18 3 -5 8 -11 8 -20 0 -8 -7 -20 -8 -27 -4 -18 11
-48 12 -48 2 0 -11 -23 -6 -32 7 -5 6 -8 5 -8 -3 0 -9 -5 -10 -17 -3 -10 5
-26 5 -40 0 -16 -6 -23 -5 -23 4 0 9 -3 8 -9 -1 -4 -8 -12 -14 -16 -14 -4 0
-12 6 -16 14 -6 9 -9 9 -9 1 0 -8 -9 -9 -29 -3 -16 4 -32 5 -36 2 -10 -10 -39
-8 -47 3 -5 6 -8 5 -8 -3 0 -9 -6 -10 -17 -5 -22 10 -44 10 -60 0 -6 -4 -15
-3 -18 3 -5 8 -11 8 -20 0 -8 -7 -20 -8 -27 -4 -17 11 -48 13 -48 3 0 -6 -21
-5 -40 1 -17 6 -77 4 -87 -3 -6 -4 -14 -3 -18 3 -3 6 -12 7 -18 3 -19 -12 -36
-12 -43 -2 -3 6 -11 5 -20 -2 -11 -9 -14 -9 -14 1 0 9 -4 9 -13 2 -7 -6 -18
-8 -24 -4 -15 10 -86 8 -103 -3 -9 -5 -11 -4 -6 3 4 7 5 12 2 12 -3 0 -8 -5
-11 -10z m1525 -175 c-7 -9 -15 -13 -19 -10 -3 3 1 10 9 15 21 14 24 12 10 -5z
m-1880 -35 c0 -5 -5 -10 -11 -10 -5 0 -7 5 -4 10 3 6 8 10 11 10 2 0 4 -4 4
-10z"/>
<path d="M6065 4529 c4 -10 -2 -15 -17 -16 -12 -1 -28 -9 -34 -17 -6 -9 -15
-12 -19 -8 -5 4 -6 0 -3 -9 5 -13 1 -15 -20 -11 -21 4 -24 2 -18 -13 5 -14 4
-16 -8 -6 -11 9 -15 8 -19 -3 -4 -9 -15 -13 -26 -11 -13 2 -18 -1 -15 -9 5
-13 -34 -36 -71 -43 -11 -2 -23 -10 -28 -18 -4 -9 -12 -13 -18 -10 -5 4 -12 0
-15 -9 -3 -8 -12 -12 -20 -9 -10 3 -12 0 -8 -10 3 -8 0 -18 -5 -22 -6 -3 -9
-11 -6 -16 4 -5 2 -9 -3 -9 -5 0 -7 -12 -4 -26 4 -20 2 -25 -8 -19 -9 6 -9 3
0 -15 10 -18 9 -21 -1 -15 -9 6 -11 3 -6 -8 4 -10 1 -17 -6 -17 -8 0 -6 -4 3
-10 9 -6 11 -10 3 -10 -7 0 -10 -7 -6 -17 5 -12 3 -14 -8 -8 -11 6 -11 5 -2
-5 11 -12 10 -19 -16 -69 -10 -18 -10 -21 0 -16 7 5 10 3 7 -6 -3 -8 -12 -13
-19 -11 -8 2 -6 -5 6 -19 16 -17 16 -21 4 -17 -12 5 -15 1 -13 -18 1 -13 -2
-24 -8 -24 -7 0 -6 -5 1 -14 9 -11 9 -16 0 -22 -8 -5 -9 -3 -4 6 6 9 4 11 -4
5 -9 -5 -10 -10 -2 -18 8 -8 6 -16 -7 -31 -9 -11 -11 -16 -4 -12 6 4 13 2 13
-3 1 -6 2 -15 3 -20 0 -5 5 -13 10 -18 6 -5 6 -2 1 7 -8 13 -7 13 9 1 9 -8 15
-20 12 -27 -3 -8 -2 -13 2 -11 4 1 21 -13 38 -30 17 -18 34 -29 38 -25 4 4 7
3 6 -3 -5 -24 1 -34 17 -28 10 4 14 2 10 -4 -8 -13 25 -53 44 -53 11 0 11 -2
-1 -10 -13 -9 -13 -10 0 -11 8 -1 19 0 25 1 5 1 7 -1 3 -5 -4 -4 0 -14 8 -22
8 -8 12 -19 9 -24 -4 -5 0 -6 8 -3 9 3 17 -3 20 -16 3 -12 10 -19 15 -16 5 3
16 -2 23 -11 11 -13 11 -15 1 -9 -11 7 -11 4 0 -13 7 -12 20 -21 28 -21 13 0
58 -41 52 -47 -7 -9 0 -23 8 -18 6 3 10 0 10 -7 0 -7 16 -26 35 -42 19 -16 33
-32 31 -35 -2 -3 2 -11 9 -18 10 -10 14 -9 19 2 2 7 0 16 -7 19 -7 2 -4 5 6 5
10 1 15 6 12 11 -4 6 -12 8 -18 4 -7 -3 -5 0 3 8 8 7 16 22 17 33 1 11 5 31 9
44 6 19 4 22 -6 16 -8 -5 -3 6 9 24 18 25 21 35 11 41 -9 5 -9 9 -1 14 6 4 11
12 11 17 0 6 -5 7 -11 4 -7 -5 -7 -1 0 14 6 12 16 30 22 42 7 15 7 19 0 14 -6
-3 -11 -2 -11 4 0 5 4 13 10 16 5 3 9 16 9 28 -1 28 5 54 14 63 4 4 2 13 -4
21 -8 9 -8 13 -1 13 7 0 9 7 5 17 -4 11 -3 14 5 9 8 -5 10 -2 6 9 -4 8 0 22 7
31 10 13 10 17 -2 25 -10 6 -11 11 -3 17 6 4 10 15 8 25 -1 9 2 17 7 17 6 0 7
5 4 10 -4 6 -1 17 5 25 10 12 10 15 0 15 -10 0 -10 3 0 15 10 12 10 15 -1 15
-12 0 -12 2 0 9 8 5 11 16 8 25 -4 11 -1 16 11 16 10 0 13 3 7 8 -11 8 -13 37
-3 47 4 4 4 14 1 23 -4 9 -2 13 4 9 7 -5 9 0 6 13 -3 13 0 20 8 20 11 0 11 2
-1 10 -13 9 -13 11 0 20 13 9 13 10 0 10 -12 0 -13 2 -1 9 7 5 11 15 9 22 -3
8 2 20 9 27 10 10 11 18 3 27 -8 10 -7 14 2 18 10 4 10 6 -1 6 -11 1 -11 4 -1
16 7 8 9 15 5 15 -4 0 -3 6 2 13 5 6 9 23 9 37 -1 14 6 31 14 38 8 8 10 11 4
8 -15 -7 -26 32 -12 41 7 3 8 1 4 -5 -4 -7 -2 -12 3 -12 18 0 6 43 -12 46 -10
1 -17 -3 -17 -9 0 -7 -5 -6 -10 3 -8 12 -11 13 -19 1 -7 -11 -9 -11 -14 0 -4
11 -6 11 -6 1 -1 -8 -6 -10 -13 -5 -20 12 -46 14 -53 3 -4 -7 -13 -7 -25 0
-13 7 -20 6 -23 -3 -4 -9 -6 -9 -6 1 -1 6 -6 12 -12 12 -5 0 -8 -4 -5 -9 9
-13 -19 -7 -38 8 -14 12 -16 12 -11 0z m-351 -755 c3 -8 2 -12 -4 -9 -6 3 -10
10 -10 16 0 14 7 11 14 -7z"/>
<path d="M1934 4519 c-2 -4 2 -10 8 -12 9 -4 9 -6 -1 -6 -11 -1 -10 -5 5 -17
10 -8 13 -13 7 -9 -8 4 -13 0 -13 -10 0 -9 4 -14 9 -11 5 4 7 -3 4 -14 -3 -11
-1 -20 4 -20 5 0 9 -10 8 -22 -2 -13 4 -33 11 -45 9 -15 10 -23 4 -23 -7 0 -8
-5 -3 -12 4 -7 9 -22 10 -33 2 -11 8 -22 14 -23 6 -3 6 -8 -1 -17 -8 -9 -8
-15 0 -20 5 -3 10 -17 10 -31 0 -13 5 -24 10 -24 12 0 9 -22 -5 -32 -6 -4 -2
-8 9 -8 13 0 17 -5 13 -20 -3 -10 0 -21 7 -24 7 -3 6 -8 -4 -15 -12 -8 -12
-11 -1 -11 7 0 11 -6 7 -15 -3 -10 1 -15 12 -15 15 0 15 -2 2 -10 -13 -9 -13
-10 0 -10 13 0 13 -1 0 -10 -11 -7 -11 -10 -2 -10 7 0 11 -4 7 -9 -3 -5 -1
-12 4 -16 6 -3 7 -13 4 -22 -4 -11 -3 -14 6 -9 14 9 11 -16 -4 -26 -6 -5 -5
-8 3 -8 6 0 12 -9 12 -21 0 -11 4 -17 10 -14 7 4 7 -3 0 -20 -7 -19 -7 -24 2
-19 8 5 9 0 6 -14 -4 -12 -2 -20 3 -16 5 3 9 1 9 -5 0 -5 -6 -12 -12 -14 -7
-3 -4 -6 7 -6 17 -1 17 -3 5 -11 -12 -8 -12 -10 5 -11 l20 0 -20 -9 c-15 -6
-16 -9 -4 -9 11 -1 15 -11 14 -36 0 -22 6 -43 18 -55 10 -11 13 -20 8 -20 -5
0 -9 -9 -8 -19 0 -11 5 -17 9 -15 4 3 9 -9 9 -25 2 -50 3 -52 24 -68 15 -12
16 -14 3 -10 -15 5 -16 2 -7 -19 5 -14 7 -30 3 -35 -3 -5 0 -9 5 -9 6 0 11
-14 11 -31 0 -19 4 -28 11 -23 7 4 9 0 5 -14 -9 -27 12 -39 28 -16 7 9 18 14
24 10 8 -5 10 -2 6 8 -3 9 -1 16 6 16 6 0 9 4 6 8 -2 4 0 14 6 22 8 12 9 12 4
-2 -7 -23 7 -23 25 -1 12 14 12 16 -1 9 -9 -4 -8 -2 2 7 10 8 15 17 11 20 -3
4 1 7 11 7 9 0 15 4 11 9 -3 5 4 12 15 16 11 4 18 11 15 16 -4 5 -1 9 5 9 7 0
10 6 7 13 -3 8 1 14 9 14 7 0 10 -5 7 -10 -3 -6 -1 -7 6 -3 6 4 9 16 6 27 -4
11 -2 19 4 19 6 0 11 -6 11 -12 0 -9 3 -8 9 2 6 8 7 18 5 22 -3 4 2 8 11 8 9
0 13 5 10 10 -3 6 1 10 10 10 11 0 15 5 11 16 -3 8 -2 13 3 10 5 -3 11 3 14
14 4 14 10 18 23 13 12 -4 15 -3 10 5 -4 7 -2 12 4 12 7 0 10 7 7 14 -4 10 -1
13 9 9 9 -3 14 1 14 13 0 9 3 15 6 11 10 -10 32 17 26 32 -3 9 -1 12 6 7 7 -4
12 -2 12 4 0 6 5 8 13 4 7 -5 6 0 -3 11 -14 17 -14 18 7 7 18 -10 21 -9 19 6
-2 9 2 20 8 25 7 4 8 10 1 15 -11 8 -17 34 -16 70 1 12 -3 22 -7 22 -4 0 -9
12 -10 27 -1 15 -8 30 -15 35 -9 6 -8 8 3 8 11 0 12 2 2 8 -7 5 -13 25 -14 45
-1 20 -5 34 -9 31 -4 -2 -8 4 -8 13 0 10 -2 29 -4 43 -3 14 -5 29 -6 33 0 5
-6 5 -12 1 -8 -4 -8 0 0 15 8 15 9 21 1 21 -6 0 -8 5 -5 10 3 6 1 10 -6 10 -8
0 -7 5 2 17 10 11 10 14 2 9 -9 -5 -13 1 -13 18 0 14 -4 26 -10 26 -5 0 -10 6
-10 14 0 7 -13 16 -30 20 -17 3 -30 12 -30 20 0 8 -5 18 -12 22 -8 5 -9 2 -4
-11 6 -18 6 -18 -12 -2 -10 9 -22 14 -26 10 -4 -5 -6 -3 -4 2 1 6 0 10 -4 10
-4 0 -14 9 -23 20 -9 11 -14 13 -10 5 4 -10 2 -9 -8 3 -16 20 -32 23 -21 5 4
-7 -3 -3 -15 10 -12 12 -26 22 -32 22 -6 0 -8 4 -5 8 2 4 -4 9 -15 9 -10 1
-26 9 -35 17 -9 9 -20 14 -25 11 -5 -4 -9 -3 -9 2 0 4 -14 14 -30 21 -17 8
-27 18 -24 24 4 6 -2 5 -15 -1 -16 -9 -21 -9 -21 0 0 8 -4 8 -15 -1 -12 -10
-15 -10 -15 1 0 11 -2 11 -10 -1 -6 -10 -10 -11 -10 -2 0 6 -5 12 -11 12 -5 0
-8 -4 -5 -9 7 -10 -20 -9 -30 2 -4 4 -14 1 -22 -6 -13 -10 -14 -9 -7 3 8 13 7
13 -8 1 -13 -10 -17 -10 -17 -1 0 9 -4 9 -17 -1 -9 -8 -14 -9 -10 -3 3 6 -1
11 -9 11 -8 0 -17 -4 -20 -8z"/>
<path d="M5839 4403 c-13 -17 -13 -17 6 -3 11 8 22 16 24 17 2 2 0 3 -6 3 -6
0 -17 -8 -24 -17z"/>
<path d="M3223 4063 c4 -7 -1 -14 -14 -18 -17 -6 -19 -9 -8 -16 8 -5 9 -9 3
-9 -6 0 -25 -13 -42 -30 -18 -16 -30 -30 -27 -30 2 0 -6 -10 -18 -23 -12 -13
-26 -21 -32 -18 -5 3 -4 -3 3 -12 12 -14 11 -16 -7 -12 -12 2 -19 0 -16 -6 4
-5 -12 -26 -34 -47 -39 -36 -55 -62 -29 -46 7 4 8 3 4 -5 -4 -6 -12 -9 -17 -6
-5 4 -9 1 -9 -5 0 -6 -5 -8 -12 -4 -8 5 -9 2 -5 -9 7 -18 -25 -42 -37 -29 -4
3 -4 0 -1 -9 4 -10 -14 -33 -55 -69 -33 -29 -60 -59 -60 -67 0 -7 -5 -13 -11
-13 -6 0 -9 -7 -6 -14 4 -10 1 -13 -9 -9 -9 3 -14 -1 -14 -12 0 -11 -5 -15
-14 -12 -10 4 -13 1 -9 -9 3 -8 -1 -14 -11 -14 -9 0 -15 -3 -14 -7 4 -12 -35
-53 -44 -47 -4 3 -5 -3 -1 -12 4 -12 3 -15 -5 -10 -7 4 -12 3 -12 -1 0 -5 -7
-18 -16 -29 -8 -10 -12 -13 -8 -5 5 10 3 12 -5 7 -7 -5 -10 -13 -8 -20 6 -16
-20 -40 -26 -23 -5 11 -11 -17 -8 -35 0 -5 -3 -7 -7 -5 -5 1 -29 -17 -52 -41
-36 -36 -41 -45 -29 -54 11 -8 11 -9 -3 -5 -20 7 -66 -33 -62 -55 1 -11 -3
-15 -14 -11 -9 4 -13 2 -9 -4 4 -6 1 -13 -7 -16 -8 -3 -17 -19 -21 -36 -4 -17
-11 -31 -16 -31 -5 0 -9 -5 -9 -11 0 -5 5 -7 11 -3 7 4 6 -3 -2 -17 -14 -26
-19 -69 -8 -69 4 0 7 -12 7 -27 0 -15 5 -29 11 -31 6 -2 11 -12 11 -23 0 -10
4 -19 9 -19 5 0 13 -10 16 -21 6 -17 9 -19 16 -8 7 11 9 11 9 -2 0 -19 26 -32
43 -22 7 4 6 0 -1 -10 -12 -14 -11 -16 5 -17 134 -4 157 -3 161 8 3 10 7 10
20 0 12 -10 14 -10 8 0 -4 7 -1 12 8 12 8 0 20 9 26 20 6 11 15 18 21 15 5 -4
9 -1 9 5 0 6 5 8 13 4 9 -6 9 -4 -1 8 -11 14 -10 17 7 23 12 3 26 15 32 26 5
11 15 16 21 13 6 -4 8 -3 5 3 -4 5 5 20 19 32 14 12 22 26 19 32 -4 5 -1 8 7
7 7 -2 12 3 10 11 -2 8 3 11 12 8 9 -4 17 1 21 14 4 10 11 19 16 19 6 0 7 5 3
12 -5 8 -2 9 9 5 9 -3 16 -3 16 1 -3 20 2 33 11 27 6 -3 10 0 10 7 0 8 9 20
20 28 11 8 20 20 20 28 0 7 8 12 18 10 9 -2 16 3 14 10 -1 7 5 15 13 18 8 3
12 10 9 15 -3 5 2 9 12 9 11 0 15 6 11 20 -3 10 -2 19 2 18 23 -3 41 4 39 15
-2 6 2 11 9 10 8 -2 10 4 6 14 -4 11 -3 14 5 9 7 -4 12 -2 12 3 0 6 3 10 8 10
19 -3 25 2 12 11 -11 7 -11 10 -2 10 7 0 10 4 7 10 -4 6 1 7 11 3 14 -5 16 -3
11 11 -4 10 -3 15 3 11 6 -4 17 1 26 9 8 9 12 16 7 16 -4 0 0 5 10 11 9 6 14
15 11 21 -4 7 -2 8 4 4 7 -4 12 -2 12 4 0 6 5 8 10 5 6 -3 10 3 10 14 0 15 4
19 17 14 12 -5 15 -2 10 9 -4 11 1 18 16 22 17 4 19 8 9 18 -14 14 -16 32 -2
23 6 -3 7 1 4 9 -3 9 -10 16 -15 16 -11 0 -7 23 6 32 6 5 5 8 -4 8 -8 0 -11 6
-7 16 3 8 2 12 -4 9 -6 -3 -10 -3 -11 2 0 4 -2 16 -4 26 -2 9 1 15 6 11 5 -3
9 -1 9 5 0 5 -5 11 -12 13 -7 3 -12 21 -11 41 1 20 -3 37 -8 37 -5 0 -9 5 -9
11 0 5 6 7 13 3 7 -5 6 0 -3 11 -8 10 -15 28 -15 39 -1 12 -4 27 -9 34 -4 7
-9 34 -11 61 -1 27 -7 57 -13 67 -5 11 -8 27 -7 36 2 9 -4 23 -13 30 -10 8
-13 9 -9 1z m32 -92 c3 -5 2 -12 -3 -15 -5 -3 -9 1 -9 9 0 17 3 19 12 6z
m-405 -355 c0 -2 -7 -7 -16 -10 -8 -3 -12 -2 -9 4 6 10 25 14 25 6z"/>
<path d="M5104 4035 c3 -8 -2 -19 -11 -24 -10 -5 -18 -26 -20 -52 -3 -24 -8
-46 -12 -49 -5 -3 -7 -13 -5 -22 1 -11 -4 -18 -13 -18 -12 0 -13 -3 -4 -14 8
-10 9 -16 1 -21 -5 -3 -8 -17 -6 -31 3 -14 1 -22 -5 -19 -9 6 -13 -7 -9 -39 1
-12 -3 -16 -10 -11 -9 5 -8 1 1 -16 11 -21 10 -22 -3 -12 -13 11 -15 8 -13
-17 1 -17 -2 -30 -6 -30 -4 0 -7 -14 -7 -31 1 -17 -4 -34 -11 -39 -7 -4 -13
-11 -13 -16 0 -5 -5 -8 -11 -6 -6 2 -3 -6 8 -18 10 -11 25 -18 32 -15 8 2 11
0 8 -5 -8 -12 20 -42 29 -32 4 3 4 -1 0 -11 -4 -11 -1 -17 9 -17 8 0 17 -9 20
-21 3 -12 10 -18 16 -15 6 4 8 -2 6 -13 -3 -14 1 -18 11 -14 8 3 14 2 12 -3
-2 -5 2 -11 7 -13 17 -6 37 -40 30 -51 -4 -6 -1 -9 7 -8 7 2 12 -3 10 -10 -1
-7 5 -12 15 -10 13 2 18 -3 17 -18 -1 -14 5 -21 15 -20 9 1 15 -6 15 -16 -1
-10 2 -16 6 -13 5 3 11 -4 15 -15 3 -11 13 -20 21 -20 8 0 13 -4 9 -10 -3 -5
5 -16 19 -25 13 -9 27 -26 30 -38 5 -19 8 -20 17 -7 9 12 10 11 6 -8 -3 -12
-2 -20 1 -18 10 5 32 -20 25 -28 -4 -3 1 -6 10 -6 8 0 19 -9 22 -20 3 -11 10
-20 15 -20 5 0 12 -9 15 -20 4 -11 11 -18 16 -15 5 4 9 -1 9 -10 0 -10 5 -13
12 -9 8 5 9 2 5 -10 -4 -10 -3 -15 3 -11 6 3 13 -1 16 -9 3 -9 11 -13 17 -9 6
4 8 0 4 -10 -3 -9 -1 -19 5 -23 7 -5 8 -2 3 6 -5 9 -4 11 3 6 7 -4 12 -14 12
-22 0 -8 5 -12 10 -9 6 3 10 -1 10 -9 0 -8 9 -18 20 -21 11 -3 20 -13 20 -21
0 -8 7 -17 15 -20 8 -4 12 -10 9 -15 -3 -5 1 -9 9 -9 7 0 23 -9 34 -19 12 -11
24 -17 27 -14 3 4 6 1 6 -5 0 -7 5 -12 11 -12 5 0 7 4 4 10 -3 6 1 7 9 4 9 -3
16 -10 16 -14 0 -13 29 -20 36 -8 5 7 2 8 -6 3 -8 -5 -11 -4 -6 3 4 6 13 9 21
6 8 -4 12 -11 8 -17 -7 -12 14 -1 40 21 16 14 17 14 11 -1 -3 -9 -2 -17 4 -17
5 0 13 7 16 16 3 8 10 12 16 9 5 -3 10 -1 10 4 0 6 6 11 13 11 6 0 23 10 37
21 14 11 18 18 10 14 -8 -4 -3 3 12 15 17 13 25 28 23 41 -2 11 0 17 5 14 5
-3 11 -1 14 4 4 5 2 12 -4 16 -6 4 -4 12 5 22 12 12 13 18 4 29 -9 11 -8 14 2
14 9 0 10 3 3 8 -6 4 -10 21 -9 38 1 20 -3 30 -10 28 -6 -3 -12 8 -13 23 -1
16 -11 35 -21 44 -11 9 -17 19 -14 23 4 3 -1 6 -11 6 -11 0 -14 4 -10 12 5 8
2 9 -10 5 -14 -6 -15 -3 -6 13 6 11 7 20 3 19 -21 -4 -33 2 -33 17 0 10 -6 14
-15 11 -8 -4 -17 -1 -21 5 -4 7 -3 8 4 4 7 -4 12 -2 12 3 0 6 -4 11 -10 11 -5
0 -10 7 -10 15 0 8 -3 14 -7 14 -20 -3 -34 2 -28 11 3 5 -11 26 -32 46 -21 21
-37 41 -36 46 2 4 -2 8 -8 8 -5 0 -7 6 -3 13 5 8 2 8 -9 -2 -15 -12 -17 -11
-17 6 0 10 -9 25 -20 33 -11 8 -20 20 -20 28 0 7 -4 11 -8 8 -9 -5 -35 26 -35
40 0 5 -8 15 -19 22 -10 8 -15 19 -11 25 5 9 2 8 -8 0 -13 -11 -18 -8 -30 15
-18 35 -60 78 -74 74 -5 -1 -1 5 10 14 16 14 17 16 3 11 -10 -4 -18 -2 -18 3
0 6 -7 10 -16 10 -8 0 -12 5 -9 10 3 6 1 10 -5 10 -6 0 -8 5 -5 11 4 6 0 9
-11 7 -10 -2 -19 3 -20 10 -1 6 -2 17 -3 23 0 5 -6 7 -13 3 -8 -5 -9 -2 -5 9
4 11 1 17 -7 17 -8 0 -17 7 -20 16 -3 8 -10 12 -16 9 -6 -4 -7 1 -3 11 4 12 3
15 -5 10 -8 -5 -12 1 -12 16 0 18 -2 20 -10 8 -8 -13 -10 -12 -10 3 0 16 -12
22 -35 17 -5 -1 -5 4 2 11 9 9 6 18 -17 39 -16 15 -26 31 -22 35 4 5 1 5 -6 1
-7 -4 -15 -1 -18 8 -3 9 -10 13 -15 10 -5 -3 -6 2 -3 10 4 11 0 16 -11 16 -9
0 -13 5 -10 10 3 6 1 10 -5 10 -6 0 -8 5 -4 12 4 7 3 8 -5 4 -6 -4 -14 0 -17
8 -3 9 -11 16 -16 16 -6 0 -8 -7 -4 -15z"/>
<path d="M2900 3710 c-9 -6 -10 -10 -3 -10 6 0 15 5 18 10 8 12 4 12 -15 0z"/>
<path d="M5970 3465 c0 -8 4 -15 10 -15 5 0 7 7 4 15 -4 8 -8 15 -10 15 -2 0
-4 -7 -4 -15z"/>
<path d="M5343 2754 c7 -12 -28 -46 -38 -36 -3 4 -3 -1 0 -9 3 -9 -2 -22 -11
-30 -16 -12 -17 -12 -10 1 4 8 1 6 -8 -4 -8 -10 -13 -24 -9 -30 3 -6 3 -8 -2
-4 -5 5 -14 -1 -22 -12 -8 -11 -21 -20 -29 -20 -8 0 -13 -4 -10 -8 2 -4 1 -14
-5 -22 -7 -13 -9 -13 -9 0 -1 8 -5 5 -11 -8 -5 -13 -13 -21 -19 -17 -6 4 -7
-1 -3 -11 4 -12 3 -15 -5 -10 -7 4 -15 0 -19 -11 -8 -21 -50 -63 -64 -63 -5 0
-9 -5 -9 -11 0 -5 5 -7 10 -4 24 15 7 -4 -17 -21 -27 -17 -28 -17 -13 2 14 17
14 18 -2 6 -9 -8 -14 -20 -11 -28 3 -8 -1 -14 -11 -14 -8 0 -20 -9 -26 -20 -6
-11 -16 -19 -22 -17 -11 2 -13 -2 -17 -34 0 -6 -8 -8 -17 -5 -14 6 -15 4 -4
-9 11 -13 11 -16 -1 -13 -8 2 -13 -2 -12 -9 2 -7 -4 -10 -13 -6 -8 3 -14 1
-12 -4 2 -5 -12 -23 -30 -41 -18 -18 -30 -37 -27 -42 3 -6 -1 -7 -9 -4 -9 3
-16 2 -16 -3 0 -6 -10 -15 -22 -22 -13 -6 -16 -10 -7 -7 9 2 16 -2 16 -9 0 -7
-8 -10 -19 -7 -14 3 -17 0 -11 -13 5 -15 2 -17 -15 -13 -19 5 -20 4 -10 -15
10 -20 10 -21 -6 -8 -14 12 -16 12 -10 -3 5 -12 2 -15 -10 -10 -12 5 -15 2 -9
-12 4 -12 3 -15 -5 -10 -7 4 -12 1 -12 -9 0 -9 -4 -13 -10 -10 -5 3 -10 1 -10
-5 0 -7 -9 -23 -20 -37 -11 -14 -20 -21 -20 -16 0 6 7 16 15 23 8 7 15 17 15
23 0 5 -10 -3 -22 -19 -13 -16 -22 -32 -21 -36 2 -5 -4 -8 -13 -8 -8 0 -13 -4
-10 -9 3 -5 -16 -28 -42 -51 -26 -24 -46 -49 -44 -56 2 -9 -3 -11 -13 -8 -10
4 -15 2 -13 -7 2 -8 -3 -13 -9 -12 -7 2 -13 -2 -13 -8 0 -5 -6 -7 -12 -3 -9 5
-8 2 1 -9 8 -10 11 -20 7 -24 -3 -3 -6 0 -6 8 -1 10 -3 9 -11 -3 -5 -10 -17
-18 -24 -18 -8 0 -15 -7 -15 -15 0 -8 -6 -15 -14 -15 -8 0 -18 -5 -22 -12 -4
-7 -3 -8 4 -4 7 4 12 2 12 -5 0 -7 -8 -9 -21 -6 -17 4 -19 3 -10 -6 16 -16 14
-27 -4 -21 -10 4 -15 0 -15 -12 0 -9 -3 -15 -6 -11 -5 5 -41 -25 -46 -40 -5
-14 -57 -63 -67 -63 -5 0 -13 -5 -17 -12 -5 -7 -2 -9 7 -4 8 4 4 -2 -9 -13
-13 -11 -21 -25 -17 -31 3 -5 0 -7 -8 -4 -8 3 -21 -3 -28 -13 -19 -27 -47 -36
-45 -15 0 8 -14 26 -32 38 -20 14 -28 25 -22 29 7 4 -5 21 -29 42 -23 19 -41
41 -41 49 0 8 -7 14 -15 14 -8 0 -15 5 -15 10 0 6 -8 10 -17 11 -10 0 -13 3
-6 6 10 3 10 7 0 18 -9 9 -14 10 -19 1 -5 -6 -8 -2 -8 12 0 12 -5 22 -10 22
-6 0 -15 12 -20 26 -6 14 -20 28 -31 31 -16 4 -18 8 -7 14 9 6 7 9 -9 9 -14 0
-23 6 -23 16 0 18 -25 46 -34 37 -3 -4 -6 4 -6 16 0 12 -4 19 -10 16 -5 -3
-10 1 -10 9 0 15 -12 21 -33 17 -5 -1 -6 3 -3 8 4 5 -1 16 -9 24 -8 9 -15 20
-15 26 0 6 -6 11 -14 11 -8 0 -18 5 -22 12 -5 7 -3 8 5 3 9 -5 9 -2 0 13 -7
12 -15 19 -17 17 -6 -5 -32 21 -32 32 0 4 -10 19 -21 33 -20 25 -20 25 -9 1 7
-13 8 -21 2 -17 -5 3 -15 19 -22 36 -7 16 -16 27 -21 24 -5 -3 -9 2 -9 10 0 9
-5 16 -11 16 -5 0 -7 5 -4 10 3 6 1 10 -5 10 -12 0 -40 24 -40 35 0 3 5 3 12
-1 7 -4 8 -3 4 4 -4 6 -13 9 -22 5 -9 -3 -14 0 -12 8 2 8 -2 13 -9 12 -7 -2
-10 6 -8 17 2 12 -1 17 -10 14 -7 -3 -16 0 -21 7 -5 8 -3 10 7 5 8 -4 2 4 -13
18 -16 14 -28 29 -28 34 0 5 -7 15 -15 22 -8 7 -12 17 -8 24 4 6 0 5 -9 -2
-13 -10 -18 -10 -24 -1 -5 8 -3 10 7 4 8 -4 4 2 -8 14 -13 12 -23 26 -23 32 0
6 -4 7 -10 4 -6 -3 -7 1 -4 9 3 9 1 16 -6 16 -14 0 -40 25 -40 39 0 6 -9 15
-21 21 -13 7 -18 17 -15 27 6 14 4 14 -11 2 -15 -13 -16 -12 -11 9 4 12 3 20
-2 17 -4 -3 -11 2 -14 11 -3 8 -10 12 -16 9 -5 -3 -10 1 -10 10 0 9 -4 14 -9
11 -5 -4 -8 2 -6 11 3 23 -12 43 -42 54 -13 5 -23 15 -23 24 0 8 -5 15 -11 15
-5 0 -7 6 -3 13 5 7 0 6 -11 -3 -14 -11 -17 -12 -11 -1 6 9 5 12 -5 9 -8 -3
-13 -13 -13 -22 2 -14 -1 -15 -14 -4 -12 10 -14 10 -8 1 4 -8 2 -13 -4 -13 -6
0 -8 -5 -4 -12 5 -8 2 -9 -10 -5 -14 6 -17 3 -12 -9 4 -12 2 -15 -9 -10 -8 3
-14 2 -14 -2 3 -18 -2 -32 -12 -32 -5 0 -7 5 -3 12 5 7 3 8 -5 4 -7 -5 -10
-15 -6 -24 3 -9 3 -13 -1 -9 -4 4 -14 1 -22 -6 -13 -9 -14 -9 -8 1 4 6 2 12
-3 12 -6 0 -11 -6 -11 -14 0 -8 -5 -18 -12 -22 -7 -5 -9 -2 -4 7 5 9 3 9 -6
-1 -7 -9 -21 -14 -32 -12 -13 3 -16 0 -11 -9 6 -9 3 -11 -8 -6 -10 3 -17 2
-17 -3 0 -5 -9 -7 -20 -5 -11 2 -22 0 -25 -6 -4 -5 -11 -9 -16 -9 -6 0 -7 5
-3 12 4 6 -3 4 -15 -4 -16 -11 -32 -14 -57 -8 -21 5 -34 4 -34 -2 0 -6 -6 -5
-15 2 -12 10 -15 10 -15 -1 0 -11 -2 -11 -8 -1 -5 8 -16 10 -27 6 -15 -6 -17
-4 -11 12 5 15 4 16 -5 7 -7 -7 -19 -9 -34 -3 -16 6 -22 5 -22 -6 0 -8 6 -13
12 -10 7 2 18 0 26 -6 11 -8 10 -9 -3 -4 -21 6 -23 -1 -4 -19 9 -10 16 -11 24
-3 8 8 9 5 5 -10 -4 -16 1 -24 20 -33 17 -8 23 -17 19 -27 -4 -11 -1 -14 12
-9 9 4 15 3 11 -2 -6 -11 39 -64 48 -55 3 3 8 -4 12 -15 3 -12 11 -19 16 -16
5 3 6 -1 3 -9 -4 -11 0 -16 11 -16 11 0 15 -5 12 -14 -4 -11 -1 -13 10 -9 11
4 14 2 9 -5 -4 -7 -2 -12 4 -12 6 0 8 -4 5 -10 -3 -5 1 -10 10 -10 9 0 13 -4
10 -10 -6 -9 8 -14 28 -11 4 0 6 -2 6 -6 -4 -22 3 -33 19 -33 14 0 15 -2 2
-10 -13 -8 -12 -10 3 -10 11 0 15 -4 11 -12 -5 -8 -2 -9 9 -5 9 3 19 1 23 -5
4 -7 3 -8 -4 -4 -25 15 -10 -7 28 -44 22 -21 40 -43 40 -48 0 -5 7 -12 15 -16
8 -3 15 -9 14 -13 -3 -20 2 -24 16 -13 13 11 14 10 10 -2 -7 -16 19 -48 38
-48 7 0 6 -5 -3 -11 -12 -9 -10 -10 8 -6 13 3 21 3 18 0 -3 -4 2 -15 11 -26
10 -11 12 -17 6 -13 -7 4 -13 5 -13 2 0 -3 16 -13 35 -22 19 -9 35 -21 35 -27
0 -6 -8 -4 -18 4 -10 8 -6 2 9 -13 15 -14 25 -29 22 -32 -6 -6 13 -10 30 -7 5
1 6 -3 2 -9 -3 -5 2 -10 12 -11 16 0 16 -1 -2 -9 -17 -7 -17 -9 -2 -9 9 -1 17
-7 17 -13 0 -10 2 -10 9 0 6 10 10 5 14 -16 4 -19 14 -31 27 -35 12 -3 24 -15
27 -26 3 -11 9 -18 14 -15 5 3 9 -4 9 -15 0 -20 14 -29 23 -13 2 4 2 1 0 -7
-4 -17 16 -43 28 -35 5 3 9 0 9 -6 0 -15 47 -60 54 -52 4 3 4 -2 0 -13 -6 -14
-4 -17 9 -12 9 3 16 2 14 -3 -1 -5 7 -16 18 -24 l20 -16 -20 6 c-16 5 -15 3 5
-12 14 -10 29 -18 34 -16 5 2 3 -5 -5 -14 -8 -10 -9 -15 -2 -11 6 4 18 -1 26
-13 7 -11 17 -17 20 -13 4 3 7 -1 7 -11 0 -9 4 -14 10 -11 6 3 7 -1 4 -9 -4
-11 0 -16 10 -16 14 0 19 -9 18 -30 0 -3 11 -14 26 -24 14 -11 22 -13 17 -6
-5 8 -4 11 3 6 6 -4 8 -14 5 -23 -4 -10 -2 -14 5 -9 6 3 13 -3 17 -14 4 -11
11 -18 16 -15 5 4 9 1 9 -6 0 -7 15 -26 33 -42 17 -17 26 -26 18 -22 -9 5 -12
4 -7 -3 4 -7 12 -12 17 -12 11 0 39 -25 39 -35 0 -3 -5 -3 -12 1 -7 4 -8 3 -4
-4 4 -6 13 -9 20 -6 8 3 17 0 22 -7 4 -8 3 -10 -4 -5 -8 5 -10 2 -6 -8 3 -9
10 -13 15 -10 5 3 9 -1 9 -8 0 -8 9 -20 19 -28 11 -7 18 -17 15 -22 -3 -4 3
-5 12 -1 12 4 15 2 12 -8 -3 -8 5 -19 16 -25 12 -5 20 -17 20 -26 -1 -11 4
-14 14 -10 11 4 14 1 9 -11 -4 -11 -1 -15 12 -12 15 3 17 -1 13 -17 -3 -14 -1
-19 6 -14 7 4 12 1 12 -6 0 -8 9 -20 21 -28 39 -28 83 -74 64 -66 -13 5 -11
-1 8 -18 15 -14 27 -30 27 -36 0 -5 7 -10 15 -10 14 0 19 -12 16 -33 0 -4 2
-6 6 -6 23 4 35 -3 30 -16 -4 -8 -1 -17 5 -21 7 -5 8 -2 3 6 -6 10 -3 12 13 8
21 -6 38 15 27 33 -4 5 2 6 11 2 12 -4 15 -3 10 6 -6 8 -2 11 10 9 11 -2 18 2
17 9 -2 7 6 17 17 23 11 6 20 18 20 26 0 9 5 12 12 8 7 -5 9 -2 5 9 -4 12 -2
14 10 10 10 -4 14 -2 10 4 -4 6 1 17 10 24 14 12 16 12 8 0 -6 -10 -4 -12 4
-7 7 5 10 15 6 24 -3 9 -3 13 1 9 11 -10 35 13 27 27 -4 6 2 4 12 -4 13 -10
16 -11 11 -2 -10 17 23 55 41 48 7 -3 12 -2 11 2 -4 14 23 52 33 47 5 -4 8 -1
7 6 -2 7 7 18 20 24 12 5 22 16 22 23 0 7 5 10 12 6 7 -5 8 -3 3 5 -4 7 1 20
13 31 15 14 22 16 25 7 4 -9 6 -8 6 2 1 19 47 71 56 63 5 -4 5 1 2 11 -5 12
-1 17 13 17 10 0 22 4 25 10 3 6 -1 7 -12 4 -15 -4 -14 -3 2 7 24 15 35 30 29
40 -2 4 6 5 18 1 17 -4 20 -2 15 12 -4 11 -3 15 4 11 6 -4 13 2 16 14 3 11 9
18 14 15 5 -3 9 0 9 6 0 6 5 8 13 4 9 -6 9 -4 -1 8 -10 13 -10 18 -1 24 8 4 9
3 5 -4 -11 -18 3 -14 25 7 12 11 18 24 15 30 -4 6 1 8 12 6 13 -2 19 2 18 13
0 9 5 16 12 15 11 -3 16 9 13 29 0 5 2 7 7 7 17 -3 33 2 29 9 -6 10 110 122
118 114 4 -4 5 0 3 8 -2 8 3 14 9 13 7 -2 12 1 10 5 -1 4 14 24 35 44 21 22
32 39 25 42 -7 2 -2 5 11 5 19 1 22 5 17 24 -5 17 -4 18 4 7 8 -12 11 -12 17
4 4 9 17 22 30 27 14 5 24 17 24 29 0 11 3 19 8 19 21 -4 30 3 36 26 4 14 11
23 16 20 6 -3 10 -1 10 5 0 6 5 8 13 4 9 -6 9 -4 -1 8 -11 13 -10 16 5 14 12
0 17 5 17 17 -2 14 1 15 12 6 11 -9 14 -7 14 10 0 12 4 20 9 17 5 -3 12 1 15
10 3 9 11 12 18 8 9 -6 9 -3 0 9 -12 14 -11 16 7 12 12 -2 19 0 16 5 -6 10 30
51 38 43 3 -2 8 4 11 15 4 11 14 23 22 26 8 3 12 10 9 16 -4 6 1 7 11 3 12 -4
15 -3 10 5 -4 7 -2 12 4 12 6 0 8 5 5 10 -4 6 -2 9 3 8 14 -5 105 90 97 101
-4 7 0 8 11 4 13 -5 15 -3 9 7 -6 10 -4 12 8 7 9 -3 16 -3 16 1 -3 19 2 33 10
28 5 -3 11 3 14 14 3 11 13 20 22 20 11 0 15 5 11 16 -3 8 -2 12 4 9 6 -3 10
-1 10 5 0 6 5 8 12 4 7 -5 9 -2 5 9 -4 12 -2 14 11 10 15 -6 15 -5 3 10 -12
15 -12 17 2 12 9 -4 21 2 30 15 9 12 20 19 26 15 7 -3 11 -3 10 2 -4 23 14 51
29 46 10 -4 13 -2 8 5 -4 7 -2 12 3 12 6 0 11 6 11 14 0 8 4 18 10 21 6 3 7
-1 4 -12 -5 -17 -5 -17 6 0 6 9 8 22 5 28 -4 6 0 9 11 7 13 -2 19 3 18 14 -1
10 2 15 7 12 5 -3 9 0 9 6 0 6 5 8 12 4 7 -5 9 -2 5 9 -4 12 -2 14 10 10 10
-4 14 -2 9 5 -3 6 3 13 15 17 11 4 19 8 17 10 -8 8 -78 -22 -71 -30 5 -5 0 -3
-9 4 -12 9 -18 10 -18 2 0 -6 -12 -11 -26 -11 -17 0 -23 -4 -18 -12 6 -10 4
-10 -8 0 -13 10 -17 10 -21 0 -3 -8 -6 -5 -6 6 -1 19 -2 19 -14 2 -10 -14 -18
-15 -39 -7 -18 7 -29 6 -37 -2 -8 -8 -11 -8 -11 1 0 7 -12 10 -30 8 -16 -2
-39 3 -50 11 -11 8 -25 11 -30 8 -6 -3 -10 0 -10 7 0 9 -3 9 -10 -2 -8 -13
-10 -12 -10 3 0 9 -3 16 -7 16 -20 -3 -34 2 -28 11 3 5 0 7 -8 4 -8 -3 -21 2
-30 10 -9 9 -20 16 -26 16 -6 0 -11 5 -11 11 0 5 -4 7 -10 4 -6 -4 -7 1 -3 12
6 16 5 16 -10 5 -14 -12 -16 -11 -12 6 2 13 -5 24 -20 32 -14 7 -21 18 -18 24
4 6 -1 5 -10 -3 -15 -12 -17 -12 -12 1 3 8 -2 21 -11 29 -10 8 -15 9 -11 3z
m-2263 -109 c7 -8 9 -15 6 -15 -4 0 -14 7 -22 15 -9 8 -11 15 -6 15 5 0 15 -7
22 -15z m954 -1114 c-3 -3 -15 6 -27 18 l-22 24 27 -19 c14 -10 24 -21 22 -23z
m119 -66 c-3 -9 -8 -14 -10 -11 -3 3 -2 9 2 15 9 16 15 13 8 -4z m417 -329 c0
-2 -8 -10 -17 -17 -16 -13 -17 -12 -4 4 13 16 21 21 21 13z"/>
<path d="M3950 820 c0 -5 5 -10 11 -10 5 0 7 5 4 10 -3 6 -8 10 -11 10 -2 0
-4 -4 -4 -10z"/>
</g>
</svg>
